<svg xmlns="http://www.w3.org/2000/svg" xmlns:xlink="http://www.w3.org/1999/xlink" width="400" zoomAndPan="magnify" viewBox="0 0 300 60" height="80" preserveAspectRatio="xMidYMid meet" version="1.0"><defs><g/></defs><g fill="#ffecce" fill-opacity="1"><g transform="translate(5.440429, 48.262761)"><g><path d="M 2.371094 -2.980469 L 5.851562 -3.851562 L 6.378906 -1.738281 L 4.203125 -1.738281 L 4.203125 -38.859375 L 6.378906 -38.859375 L 5.851562 -36.75 L 0.726562 -38.03125 L 0.726562 -42.773438 L 18.269531 -42.773438 C 25.292969 -42.773438 30.4375 -41.648438 33.710938 -39.40625 C 35.457031 -38.203125 36.777344 -36.75 37.667969 -35.042969 C 38.558594 -33.34375 39.003906 -31.421875 39.003906 -29.289062 C 39.003906 -26.355469 38.191406 -23.941406 36.566406 -22.042969 C 35.042969 -20.269531 33.097656 -18.945312 30.730469 -18.082031 C 28.386719 -17.1875 25.886719 -16.71875 23.234375 -16.675781 L 23.199219 -18.847656 L 25.375 -18.847656 L 25.375 -18.558594 L 23.199219 -18.558594 L 23.316406 -20.730469 C 24.933594 -20.644531 26.375 -20.398438 27.632812 -19.992188 C 30.960938 -18.945312 33.238281 -17.019531 34.46875 -14.214844 L 39.683594 -2.632812 L 37.699219 -1.738281 L 38.324219 -3.824219 L 42.773438 -2.488281 L 42.773438 2.175781 L 32.480469 2.175781 C 30.433594 2.175781 28.640625 1.628906 27.105469 0.542969 C 25.621094 -0.507812 24.429688 -2.035156 23.535156 -4.042969 L 17.730469 -17.097656 L 19.71875 -17.980469 L 19.71875 -15.804688 L 15.949219 -15.804688 L 15.949219 -17.980469 L 18.125 -17.980469 L 18.125 -1.738281 L 15.949219 -1.738281 L 16.40625 -3.867188 L 22.183594 -2.628906 L 22.183594 2.175781 L 0.726562 2.175781 L 0.726562 -2.566406 Z M 3.425781 1.238281 L 2.898438 -0.871094 L 5.074219 -0.871094 L 5.074219 0 L 2.898438 0 L 2.898438 -2.175781 L 20.007812 -2.175781 L 20.007812 0 L 17.835938 0 L 17.835938 -0.871094 L 20.007812 -0.871094 L 19.554688 1.257812 L 13.773438 0.0195312 L 13.773438 -20.152344 L 21.132812 -20.152344 L 27.503906 -5.816406 C 28.078125 -4.535156 28.78125 -3.601562 29.617188 -3.007812 C 30.402344 -2.453125 31.355469 -2.175781 32.480469 -2.175781 L 40.597656 -2.175781 L 40.597656 0 L 38.421875 0 L 38.421875 -0.871094 L 40.597656 -0.871094 L 39.972656 1.214844 L 36.121094 0.0585938 L 30.488281 -12.464844 C 29.785156 -14.066406 28.390625 -15.195312 26.304688 -15.851562 C 25.398438 -16.140625 24.324219 -16.320312 23.082031 -16.386719 L 21.023438 -16.5 L 21.023438 -20.988281 L 23.164062 -21.023438 C 25.304688 -21.058594 27.332031 -21.441406 29.238281 -22.167969 C 30.890625 -22.773438 32.234375 -23.675781 33.261719 -24.875 C 34.191406 -25.957031 34.652344 -27.429688 34.652344 -29.289062 C 34.652344 -30.710938 34.375 -31.957031 33.8125 -33.03125 C 33.253906 -34.097656 32.398438 -35.027344 31.246094 -35.820312 C 28.71875 -37.554688 24.390625 -38.421875 18.269531 -38.421875 L 2.898438 -38.421875 L 2.898438 -40.597656 L 5.074219 -40.597656 L 5.074219 -39.726562 L 2.898438 -39.726562 L 3.425781 -41.839844 L 8.554688 -40.554688 L 8.554688 -0.0429688 Z M 18.269531 -21.605469 C 20.335938 -21.605469 21.925781 -22.21875 23.039062 -23.445312 C 24.210938 -24.730469 24.792969 -26.679688 24.792969 -29.289062 C 24.792969 -31.898438 24.210938 -33.847656 23.039062 -35.132812 C 21.925781 -36.359375 20.335938 -36.972656 18.269531 -36.972656 L 15.949219 -36.972656 L 15.949219 -39.148438 L 18.125 -39.148438 L 18.125 -19.429688 L 15.949219 -19.429688 L 15.949219 -21.605469 Z M 18.269531 -17.253906 L 13.773438 -17.253906 L 13.773438 -41.324219 L 18.269531 -41.324219 C 21.617188 -41.324219 24.28125 -40.234375 26.257812 -38.058594 C 28.183594 -35.945312 29.144531 -33.019531 29.144531 -29.289062 C 29.144531 -25.558594 28.183594 -22.632812 26.257812 -20.519531 C 24.28125 -18.34375 21.617188 -17.253906 18.269531 -17.253906 Z M 18.269531 -17.253906 "/></g></g></g><g fill="#ffecce" fill-opacity="1"><g transform="translate(46.037737, 48.262761)"><g><path d="M 17.980469 3.046875 C 12.433594 3.046875 8.074219 1.472656 4.90625 -1.675781 C 1.730469 -4.828125 0.144531 -9.101562 0.144531 -14.5 C 0.144531 -17.984375 0.824219 -21.042969 2.183594 -23.675781 C 3.578125 -26.375 5.535156 -28.445312 8.046875 -29.898438 C 10.53125 -31.328125 13.355469 -32.042969 16.527344 -32.042969 C 19.652344 -32.042969 22.421875 -31.445312 24.832031 -30.25 C 27.296875 -29.03125 29.207031 -27.375 30.5625 -25.28125 C 31.9375 -23.160156 32.625 -20.824219 32.625 -18.269531 C 32.625 -17.105469 32.5 -16.078125 32.253906 -15.191406 L 31.589844 -12.925781 L 30.3125 -12.660156 C 28.589844 -12.300781 26.730469 -12 24.734375 -11.761719 L 24.476562 -13.917969 L 24.78125 -11.765625 C 20.621094 -11.171875 16.417969 -10.875 12.179688 -10.875 L 12.179688 -13.050781 L 14.355469 -13.050781 C 14.355469 -8.992188 14.855469 -6.1875 15.863281 -4.632812 C 16.285156 -3.976562 16.765625 -3.496094 17.304688 -3.195312 C 17.824219 -2.902344 18.4375 -2.753906 19.140625 -2.753906 C 20.273438 -2.753906 21.324219 -3.023438 22.292969 -3.558594 C 23.265625 -4.09375 24.03125 -4.796875 24.585938 -5.667969 C 25.109375 -6.488281 25.375 -7.304688 25.375 -8.121094 L 25.375 -10.292969 L 31.171875 -10.292969 L 31.171875 -8.121094 C 31.171875 -6.132812 30.589844 -4.261719 29.417969 -2.503906 C 28.273438 -0.792969 26.699219 0.566406 24.695312 1.570312 C 22.726562 2.554688 20.488281 3.046875 17.980469 3.046875 Z M 17.980469 -1.304688 C 19.800781 -1.304688 21.390625 -1.644531 22.75 -2.324219 C 24.066406 -2.980469 25.082031 -3.847656 25.796875 -4.917969 C 26.480469 -5.945312 26.824219 -7.011719 26.824219 -8.121094 L 29 -8.121094 L 29 -5.945312 L 27.546875 -5.945312 L 27.546875 -8.121094 L 29.722656 -8.121094 C 29.722656 -6.457031 29.234375 -4.859375 28.25 -3.324219 C 27.296875 -1.832031 26.011719 -0.640625 24.394531 0.25 C 22.773438 1.148438 21.019531 1.59375 19.140625 1.59375 C 17.675781 1.59375 16.355469 1.261719 15.171875 0.597656 C 14.011719 -0.0546875 13.023438 -1.011719 12.207031 -2.269531 C 10.738281 -4.542969 10.003906 -8.136719 10.003906 -13.050781 L 10.003906 -15.222656 L 12.179688 -15.222656 C 16.214844 -15.222656 20.210938 -15.507812 24.167969 -16.074219 L 24.191406 -16.074219 L 24.214844 -16.078125 C 26.085938 -16.304688 27.820312 -16.582031 29.421875 -16.917969 L 29.867188 -14.789062 L 27.78125 -15.402344 L 28.0625 -16.359375 C 28.203125 -16.863281 28.273438 -17.5 28.273438 -18.269531 C 28.273438 -19.96875 27.820312 -21.515625 26.914062 -22.914062 C 25.988281 -24.339844 24.652344 -25.488281 22.902344 -26.355469 C 21.097656 -27.246094 18.972656 -27.695312 16.527344 -27.695312 C 14.132812 -27.695312 12.03125 -27.171875 10.222656 -26.128906 C 8.445312 -25.105469 7.054688 -23.621094 6.050781 -21.679688 C 5.011719 -19.671875 4.496094 -17.277344 4.496094 -14.5 C 4.496094 -10.308594 5.652344 -7.0625 7.96875 -4.761719 C 10.292969 -2.457031 13.628906 -1.304688 17.980469 -1.304688 Z M 12.179688 -16.675781 C 14.5625 -16.675781 16.484375 -16.765625 17.941406 -16.949219 L 18.011719 -16.957031 L 18.082031 -16.960938 C 18.632812 -16.992188 19.222656 -17.074219 19.851562 -17.207031 L 20.300781 -15.078125 L 18.167969 -15.507812 C 18.210938 -15.722656 18.3125 -16.171875 18.472656 -16.851562 L 20.589844 -16.355469 L 18.457031 -16.78125 C 18.621094 -17.609375 18.703125 -18.488281 18.703125 -19.429688 C 18.703125 -22.253906 18.375 -24.242188 17.714844 -25.398438 C 17.28125 -26.15625 16.886719 -26.535156 16.527344 -26.535156 C 16.441406 -26.535156 16.339844 -26.472656 16.226562 -26.347656 C 15.90625 -26 15.613281 -25.390625 15.347656 -24.519531 C 14.683594 -22.359375 14.355469 -19.019531 14.355469 -14.5 L 12.179688 -14.5 Z M 12.179688 -12.324219 L 10.003906 -12.324219 L 10.003906 -14.5 C 10.003906 -19.453125 10.398438 -23.21875 11.1875 -25.792969 C 11.644531 -27.292969 12.257812 -28.457031 13.023438 -29.292969 C 14 -30.351562 15.167969 -30.882812 16.527344 -30.882812 C 17.601562 -30.882812 18.582031 -30.558594 19.476562 -29.910156 C 20.238281 -29.355469 20.910156 -28.570312 21.492188 -27.554688 C 22.535156 -25.730469 23.054688 -23.023438 23.054688 -19.429688 C 23.054688 -18.203125 22.941406 -17.035156 22.722656 -15.929688 L 22.714844 -15.894531 L 22.707031 -15.855469 C 22.558594 -15.222656 22.464844 -14.820312 22.433594 -14.652344 L 22.152344 -13.246094 L 20.746094 -12.949219 C 19.90625 -12.773438 19.105469 -12.664062 18.339844 -12.617188 L 18.210938 -14.789062 L 18.480469 -12.632812 C 16.84375 -12.425781 14.746094 -12.324219 12.179688 -12.324219 Z M 12.179688 -12.324219 "/></g></g></g><g fill="#ffecce" fill-opacity="1"><g transform="translate(78.515587, 48.262761)"><g><path d="M 15.949219 3.046875 C 13.179688 3.046875 10.683594 2.433594 8.460938 1.207031 C 7.359375 0.609375 6.441406 -0.0546875 5.710938 -0.78125 L 7.25 -2.320312 L 9.007812 -1.039062 C 8.226562 0.0351562 7.351562 0.878906 6.382812 1.492188 L 5.21875 -0.347656 L 6.425781 1.460938 C 5.980469 1.757812 5.492188 2.027344 4.960938 2.269531 L 4.53125 2.464844 L 0.433594 2.464844 L 0.433594 -11.746094 L 6.535156 -11.746094 L 7.007812 -10.210938 C 7.445312 -8.804688 8.082031 -7.496094 8.921875 -6.285156 C 10.539062 -3.933594 12.496094 -2.753906 14.789062 -2.753906 C 15.832031 -2.753906 16.558594 -2.949219 16.972656 -3.34375 C 17.351562 -3.707031 17.542969 -4.332031 17.542969 -5.21875 C 17.542969 -5.777344 17.257812 -6.273438 16.6875 -6.710938 C 15.644531 -7.503906 13.960938 -8.511719 11.632812 -9.730469 C 9.5 -10.796875 7.753906 -11.765625 6.394531 -12.640625 C 4.867188 -13.621094 3.570312 -14.847656 2.5 -16.328125 C 1.316406 -17.964844 0.726562 -19.867188 0.726562 -22.039062 C 0.726562 -25.097656 2.019531 -27.566406 4.605469 -29.453125 C 6.980469 -31.179688 10.46875 -32.042969 15.078125 -32.042969 C 17.542969 -32.042969 19.820312 -31.394531 21.914062 -30.089844 L 20.761719 -28.246094 L 21.871094 -30.117188 C 22.835938 -29.546875 23.679688 -28.945312 24.398438 -28.316406 L 22.96875 -26.679688 L 21.203125 -27.953125 C 21.84375 -28.835938 22.679688 -29.65625 23.71875 -30.410156 L 23.804688 -30.472656 L 23.894531 -30.527344 C 24.683594 -30.988281 25.207031 -31.265625 25.46875 -31.351562 L 25.804688 -31.464844 L 29.78125 -31.464844 L 29.78125 -17.253906 L 23.742188 -17.253906 L 23.234375 -18.710938 C 22.710938 -20.210938 22.070312 -21.542969 21.316406 -22.714844 C 19.804688 -25.066406 18.113281 -26.242188 16.238281 -26.242188 C 15.816406 -26.242188 15.453125 -26.082031 15.148438 -25.761719 C 14.8125 -25.40625 14.644531 -24.941406 14.644531 -24.359375 C 14.644531 -23.589844 14.988281 -22.925781 15.679688 -22.378906 C 16.800781 -21.484375 18.554688 -20.433594 20.9375 -19.222656 C 23.054688 -18.144531 24.757812 -17.1875 26.039062 -16.351562 C 27.472656 -15.417969 28.699219 -14.269531 29.722656 -12.90625 C 30.882812 -11.359375 31.464844 -9.570312 31.464844 -7.539062 C 31.464844 -5.777344 31.101562 -4.214844 30.378906 -2.84375 C 29.640625 -1.449219 28.554688 -0.300781 27.113281 0.609375 C 24.535156 2.234375 20.816406 3.046875 15.949219 3.046875 Z M 15.949219 -1.304688 C 19.976562 -1.304688 22.925781 -1.894531 24.792969 -3.074219 C 25.578125 -3.566406 26.15625 -4.167969 26.53125 -4.878906 C 26.917969 -5.609375 27.113281 -6.496094 27.113281 -7.539062 C 27.113281 -8.601562 26.824219 -9.519531 26.242188 -10.292969 C 25.527344 -11.25 24.667969 -12.054688 23.664062 -12.707031 C 22.511719 -13.457031 20.945312 -14.335938 18.964844 -15.34375 C 16.320312 -16.6875 14.324219 -17.898438 12.96875 -18.976562 C 11.1875 -20.394531 10.292969 -22.191406 10.292969 -24.359375 C 10.292969 -26.097656 10.859375 -27.5625 11.996094 -28.757812 C 13.15625 -29.980469 14.574219 -30.59375 16.238281 -30.59375 C 19.699219 -30.59375 22.609375 -28.753906 24.96875 -25.078125 C 25.914062 -23.617188 26.703125 -21.972656 27.339844 -20.144531 L 25.285156 -19.429688 L 25.285156 -21.605469 L 27.605469 -21.605469 L 27.605469 -19.429688 L 25.433594 -19.429688 L 25.433594 -29.289062 L 27.605469 -29.289062 L 27.605469 -27.113281 L 26.15625 -27.113281 L 26.15625 -29.289062 L 26.84375 -27.226562 C 26.914062 -27.25 26.960938 -27.265625 26.992188 -27.28125 C 26.953125 -27.261719 26.898438 -27.234375 26.828125 -27.195312 C 26.652344 -27.097656 26.410156 -26.957031 26.101562 -26.777344 L 24.996094 -28.652344 L 26.277344 -26.890625 C 25.613281 -26.410156 25.097656 -25.914062 24.730469 -25.40625 L 23.332031 -23.46875 L 21.535156 -25.042969 C 21.015625 -25.496094 20.390625 -25.9375 19.65625 -26.371094 L 19.636719 -26.386719 L 19.613281 -26.398438 C 18.226562 -27.261719 16.714844 -27.695312 15.078125 -27.695312 C 11.414062 -27.695312 8.777344 -27.109375 7.167969 -25.933594 C 5.773438 -24.921875 5.074219 -23.621094 5.074219 -22.039062 C 5.074219 -20.808594 5.390625 -19.753906 6.023438 -18.875 C 6.773438 -17.84375 7.679688 -16.984375 8.742188 -16.300781 C 9.972656 -15.511719 11.609375 -14.605469 13.652344 -13.585938 C 16.199219 -12.25 18.089844 -11.113281 19.328125 -10.167969 C 21.039062 -8.863281 21.894531 -7.214844 21.894531 -5.21875 C 21.894531 -3.089844 21.253906 -1.414062 19.972656 -0.195312 C 18.722656 1 16.992188 1.59375 14.789062 1.59375 C 12.871094 1.59375 11.101562 1.125 9.488281 0.183594 C 7.933594 -0.726562 6.550781 -2.054688 5.347656 -3.804688 C 4.253906 -5.382812 3.421875 -7.089844 2.851562 -8.925781 L 4.929688 -9.570312 L 4.929688 -7.394531 L 2.609375 -7.394531 L 2.609375 -9.570312 L 4.785156 -9.570312 L 4.785156 0.289062 L 2.609375 0.289062 L 2.609375 -1.886719 L 4.058594 -1.886719 L 4.058594 0.289062 L 3.160156 -1.691406 C 3.476562 -1.835938 3.761719 -1.992188 4.011719 -2.15625 L 4.058594 -2.1875 C 4.558594 -2.503906 5.035156 -2.972656 5.492188 -3.597656 L 6.988281 -5.65625 L 8.789062 -3.859375 C 9.21875 -3.425781 9.808594 -3.007812 10.5625 -2.601562 C 12.128906 -1.738281 13.925781 -1.304688 15.949219 -1.304688 Z M 15.949219 -1.304688 "/></g></g></g><g fill="#ffecce" fill-opacity="1"><g transform="translate(109.83351, 48.262761)"><g><path d="M 17.6875 3.046875 C 12.292969 3.046875 8.019531 1.46875 4.871094 -1.679688 C 1.71875 -4.832031 0.144531 -9.105469 0.144531 -14.5 C 0.144531 -19.894531 1.71875 -24.167969 4.871094 -27.316406 C 8.019531 -30.46875 12.292969 -32.042969 17.6875 -32.042969 C 23.085938 -32.042969 27.355469 -30.46875 30.507812 -27.316406 C 33.660156 -24.167969 35.234375 -19.894531 35.234375 -14.5 C 35.234375 -9.105469 33.660156 -4.832031 30.507812 -1.679688 C 27.355469 1.46875 23.085938 3.046875 17.6875 3.046875 Z M 17.6875 -1.304688 C 21.882812 -1.304688 25.128906 -2.457031 27.433594 -4.757812 C 29.734375 -7.058594 30.882812 -10.304688 30.882812 -14.5 C 30.882812 -18.691406 29.734375 -21.941406 27.433594 -24.242188 C 25.128906 -26.542969 21.882812 -27.695312 17.6875 -27.695312 C 13.496094 -27.695312 10.246094 -26.542969 7.945312 -24.242188 C 5.644531 -21.941406 4.496094 -18.691406 4.496094 -14.5 C 4.496094 -10.304688 5.644531 -7.058594 7.945312 -4.757812 C 10.246094 -2.457031 13.496094 -1.304688 17.6875 -1.304688 Z M 17.6875 -2.464844 C 18.332031 -2.464844 18.988281 -3.140625 19.652344 -4.496094 C 20.566406 -6.359375 21.023438 -9.695312 21.023438 -14.5 C 21.023438 -19.304688 20.566406 -22.640625 19.652344 -24.503906 C 18.988281 -25.855469 18.332031 -26.535156 17.6875 -26.535156 C 17.046875 -26.535156 16.390625 -25.855469 15.726562 -24.503906 C 14.8125 -22.640625 14.355469 -19.304688 14.355469 -14.5 C 14.355469 -9.695312 14.8125 -6.359375 15.726562 -4.496094 C 16.390625 -3.140625 17.046875 -2.464844 17.6875 -2.464844 Z M 17.6875 1.886719 C 16.394531 1.886719 15.21875 1.449219 14.160156 0.570312 C 13.269531 -0.167969 12.492188 -1.21875 11.820312 -2.578125 C 10.609375 -5.046875 10.003906 -9.019531 10.003906 -14.5 C 10.003906 -19.980469 10.609375 -23.953125 11.820312 -26.417969 C 12.492188 -27.78125 13.269531 -28.832031 14.160156 -29.570312 C 15.21875 -30.445312 16.394531 -30.882812 17.6875 -30.882812 C 18.984375 -30.882812 20.160156 -30.445312 21.214844 -29.570312 C 22.109375 -28.832031 22.886719 -27.78125 23.554688 -26.417969 C 24.769531 -23.953125 25.375 -19.980469 25.375 -14.5 C 25.375 -9.019531 24.769531 -5.046875 23.554688 -2.578125 C 22.886719 -1.21875 22.109375 -0.167969 21.214844 0.570312 C 20.160156 1.449219 18.984375 1.886719 17.6875 1.886719 Z M 17.6875 1.886719 "/></g></g></g><g fill="#ffecce" fill-opacity="1"><g transform="translate(145.211168, 48.262761)"><g><path d="M 1.792969 -2.980469 L 5.273438 -3.851562 L 5.800781 -1.738281 L 3.625 -1.738281 L 3.625 -27.257812 L 5.800781 -27.257812 L 5.273438 -25.148438 L 0.144531 -26.429688 L 0.144531 -31.171875 L 7.539062 -31.171875 C 10.46875 -31.171875 12.808594 -30.199219 14.554688 -28.246094 C 15.226562 -27.46875 15.785156 -26.542969 16.222656 -25.472656 L 14.210938 -24.648438 L 12.414062 -25.875 C 13.109375 -26.898438 13.964844 -27.824219 14.976562 -28.652344 C 17.320312 -30.527344 19.945312 -31.464844 22.851562 -31.464844 C 25.46875 -31.464844 27.496094 -30.796875 28.9375 -29.464844 C 30.429688 -28.085938 31.171875 -26.191406 31.171875 -23.777344 C 31.171875 -21.863281 30.566406 -20.296875 29.347656 -19.082031 C 28.128906 -17.863281 26.5625 -17.253906 24.648438 -17.253906 C 24.003906 -17.253906 23.359375 -17.300781 22.71875 -17.390625 L 22.605469 -17.40625 L 20.152344 -18.019531 L 20.152344 -27.839844 L 22.328125 -27.839844 L 22.328125 -25.664062 C 20.9375 -25.664062 19.640625 -25.089844 18.433594 -23.945312 L 16.933594 -25.519531 L 18.472656 -23.980469 C 17.824219 -23.332031 17.316406 -22.699219 16.945312 -22.078125 L 15.078125 -23.199219 L 17.253906 -23.199219 L 17.253906 -1.738281 L 15.078125 -1.738281 L 15.605469 -3.851562 L 20.734375 -2.566406 L 20.734375 2.175781 L 0.144531 2.175781 L 0.144531 -2.566406 Z M 2.847656 1.238281 L 2.320312 -0.871094 L 4.496094 -0.871094 L 4.496094 0 L 2.320312 0 L 2.320312 -2.175781 L 18.558594 -2.175781 L 18.558594 0 L 16.382812 0 L 16.382812 -0.871094 L 18.558594 -0.871094 L 18.03125 1.238281 L 12.90625 -0.0429688 L 12.90625 -23.800781 L 13.214844 -24.316406 C 13.769531 -25.246094 14.496094 -26.15625 15.398438 -27.058594 L 15.417969 -27.074219 L 15.433594 -27.09375 C 17.480469 -29.039062 19.777344 -30.015625 22.328125 -30.015625 L 24.503906 -30.015625 L 24.503906 -19.71875 L 22.328125 -19.71875 L 22.855469 -21.828125 L 23.550781 -21.65625 L 23.023438 -19.546875 L 23.332031 -21.699219 C 23.773438 -21.636719 24.210938 -21.605469 24.648438 -21.605469 C 25.363281 -21.605469 25.902344 -21.789062 26.273438 -22.15625 C 26.640625 -22.523438 26.824219 -23.066406 26.824219 -23.777344 C 26.824219 -24.921875 26.542969 -25.753906 25.984375 -26.269531 C 25.378906 -26.832031 24.332031 -27.113281 22.851562 -27.113281 C 20.960938 -27.113281 19.257812 -26.503906 17.734375 -25.285156 C 17.042969 -24.722656 16.46875 -24.101562 16.007812 -23.421875 L 13.726562 -20.082031 L 12.195312 -23.824219 C 11.9375 -24.457031 11.644531 -24.960938 11.3125 -25.34375 C 10.429688 -26.332031 9.171875 -26.824219 7.539062 -26.824219 L 2.320312 -26.824219 L 2.320312 -29 L 4.496094 -29 L 4.496094 -28.128906 L 2.320312 -28.128906 L 2.847656 -30.238281 L 7.976562 -28.957031 L 7.976562 -0.0429688 Z M 2.847656 1.238281 "/></g></g></g><g fill="#ffecce" fill-opacity="1"><g transform="translate(175.079205, 48.262761)"><g><path d="M 17.398438 3.046875 C 14.507812 3.046875 11.972656 2.503906 9.792969 1.425781 C 7.546875 0.316406 5.8125 -1.230469 4.589844 -3.203125 C 3.367188 -5.179688 2.753906 -7.398438 2.753906 -9.859375 L 2.753906 -27.546875 L 4.929688 -27.546875 L 4.929688 -25.375 L -1.304688 -25.375 L -1.304688 -31.171875 L 4.929688 -31.171875 L 4.929688 -29 L 2.753906 -29 L 2.753906 -31.898438 C 2.753906 -34.238281 3.402344 -36.058594 4.695312 -37.351562 C 5.992188 -38.644531 7.808594 -39.292969 10.148438 -39.292969 L 16.382812 -39.292969 L 16.382812 -29 L 14.210938 -29 L 14.210938 -31.171875 L 24.503906 -31.171875 L 24.503906 -25.375 L 14.210938 -25.375 L 14.210938 -27.546875 L 16.382812 -27.546875 L 16.382812 -9.859375 C 16.382812 -6.679688 16.660156 -4.597656 17.210938 -3.613281 C 17.390625 -3.289062 17.589844 -3.0625 17.804688 -2.933594 C 17.996094 -2.8125 18.25 -2.753906 18.558594 -2.753906 C 19.238281 -2.753906 19.882812 -3.148438 20.492188 -3.9375 C 21.234375 -4.898438 21.605469 -6.292969 21.605469 -8.121094 L 21.605469 -10.292969 L 27.402344 -10.292969 L 27.402344 -8.121094 C 27.402344 -4.695312 26.5 -1.992188 24.6875 -0.0117188 C 22.828125 2.027344 20.398438 3.046875 17.398438 3.046875 Z M 17.398438 -1.304688 C 19.117188 -1.304688 20.476562 -1.851562 21.476562 -2.945312 C 22.527344 -4.097656 23.054688 -5.820312 23.054688 -8.121094 L 25.230469 -8.121094 L 25.230469 -5.945312 L 23.777344 -5.945312 L 23.777344 -8.121094 L 25.953125 -8.121094 C 25.953125 -5.304688 25.28125 -3.027344 23.933594 -1.28125 C 22.457031 0.636719 20.664062 1.59375 18.558594 1.59375 C 17.4375 1.59375 16.433594 1.324219 15.546875 0.785156 C 14.675781 0.257812 13.964844 -0.5 13.414062 -1.492188 C 12.492188 -3.136719 12.035156 -5.925781 12.035156 -9.859375 L 12.035156 -29.722656 L 22.328125 -29.722656 L 22.328125 -27.546875 L 20.152344 -27.546875 L 20.152344 -29 L 22.328125 -29 L 22.328125 -26.824219 L 12.035156 -26.824219 L 12.035156 -37.117188 L 14.210938 -37.117188 L 14.210938 -34.945312 L 10.148438 -34.945312 C 9.011719 -34.945312 8.21875 -34.722656 7.773438 -34.277344 C 7.328125 -33.832031 7.105469 -33.039062 7.105469 -31.898438 L 7.105469 -26.824219 L 0.871094 -26.824219 L 0.871094 -29 L 3.046875 -29 L 3.046875 -27.546875 L 0.871094 -27.546875 L 0.871094 -29.722656 L 7.105469 -29.722656 L 7.105469 -9.859375 C 7.105469 -8.222656 7.5 -6.769531 8.285156 -5.496094 C 9.074219 -4.222656 10.21875 -3.214844 11.722656 -2.472656 C 13.292969 -1.695312 15.1875 -1.304688 17.398438 -1.304688 Z M 17.398438 -1.304688 "/></g></g></g><g fill="#ffecce" fill-opacity="1"><g transform="translate(201.177467, 48.262761)"><g><path d="M 1.792969 -2.980469 L 5.273438 -3.851562 L 5.800781 -1.738281 L 3.625 -1.738281 L 3.625 -27.257812 L 5.800781 -27.257812 L 5.273438 -25.148438 L 0.144531 -26.429688 L 0.144531 -31.171875 L 9.859375 -31.171875 C 12.199219 -31.171875 14.019531 -30.527344 15.3125 -29.230469 C 16.605469 -27.9375 17.253906 -26.121094 17.253906 -23.777344 L 17.253906 -1.738281 L 15.078125 -1.738281 L 15.605469 -3.851562 L 20.734375 -2.566406 L 20.734375 2.175781 L 0.144531 2.175781 L 0.144531 -2.566406 Z M 2.847656 1.238281 L 2.320312 -0.871094 L 4.496094 -0.871094 L 4.496094 0 L 2.320312 0 L 2.320312 -2.175781 L 18.558594 -2.175781 L 18.558594 0 L 16.382812 0 L 16.382812 -0.871094 L 18.558594 -0.871094 L 18.03125 1.238281 L 12.90625 -0.0429688 L 12.90625 -23.777344 C 12.90625 -24.917969 12.683594 -25.710938 12.238281 -26.15625 C 11.792969 -26.601562 11 -26.824219 9.859375 -26.824219 L 2.320312 -26.824219 L 2.320312 -29 L 4.496094 -29 L 4.496094 -28.128906 L 2.320312 -28.128906 L 2.847656 -30.238281 L 7.976562 -28.957031 L 7.976562 -0.0429688 Z M 9.859375 -30.304688 C 8.097656 -30.304688 6.621094 -30.902344 5.421875 -32.101562 C 4.222656 -33.296875 3.625 -34.777344 3.625 -36.539062 C 3.625 -38.300781 4.222656 -39.777344 5.421875 -40.976562 C 6.621094 -42.175781 8.097656 -42.773438 9.859375 -42.773438 C 11.621094 -42.773438 13.097656 -42.175781 14.296875 -40.976562 C 15.496094 -39.777344 16.09375 -38.300781 16.09375 -36.539062 C 16.09375 -34.777344 15.496094 -33.296875 14.296875 -32.101562 C 13.097656 -30.902344 11.621094 -30.304688 9.859375 -30.304688 Z M 9.859375 -34.652344 C 10.417969 -34.652344 10.871094 -34.828125 11.222656 -35.175781 C 11.570312 -35.523438 11.746094 -35.980469 11.746094 -36.539062 C 11.746094 -37.097656 11.570312 -37.550781 11.222656 -37.898438 C 10.871094 -38.25 10.417969 -38.421875 9.859375 -38.421875 C 9.300781 -38.421875 8.847656 -38.25 8.496094 -37.898438 C 8.148438 -37.550781 7.976562 -37.097656 7.976562 -36.539062 C 7.976562 -35.980469 8.148438 -35.523438 8.496094 -35.175781 C 8.847656 -34.828125 9.300781 -34.652344 9.859375 -34.652344 Z M 9.859375 -34.652344 "/></g></g></g><g fill="#ffecce" fill-opacity="1"><g transform="translate(220.896185, 48.262761)"><g><path d="M 13.628906 3.046875 C 9.683594 3.046875 6.585938 2.152344 4.332031 0.371094 C 1.929688 -1.535156 0.726562 -3.976562 0.726562 -6.960938 C 0.726562 -8.777344 1.117188 -10.5625 1.902344 -12.3125 L 3.886719 -11.425781 L 1.859375 -12.214844 C 2.199219 -13.085938 2.636719 -13.890625 3.175781 -14.625 L 3.644531 -15.265625 L 4.414062 -15.453125 C 6.050781 -15.851562 7.824219 -16.210938 9.734375 -16.527344 C 13.992188 -17.238281 17.769531 -17.671875 21.0625 -17.832031 L 21.167969 -15.660156 L 18.992188 -15.660156 L 18.992188 -17.398438 C 18.992188 -19.417969 18.875 -21.105469 18.636719 -22.457031 C 18.425781 -23.652344 18.136719 -24.53125 17.773438 -25.097656 C 17.464844 -25.578125 17.085938 -25.929688 16.632812 -26.160156 C 16.140625 -26.410156 15.527344 -26.535156 14.789062 -26.535156 C 14.210938 -26.535156 13.746094 -26.472656 13.390625 -26.355469 L 12.621094 -26.082031 L 11.890625 -28.128906 L 14.066406 -28.128906 L 14.066406 -17.699219 L 11.515625 -17.109375 L 11.40625 -17.097656 C 10.695312 -17.007812 10.085938 -16.964844 9.570312 -16.964844 C 7.65625 -16.964844 6.089844 -17.574219 4.871094 -18.789062 C 3.652344 -20.007812 3.042969 -21.574219 3.042969 -23.488281 C 3.042969 -26.03125 4.257812 -28.136719 6.683594 -29.804688 C 8.851562 -31.296875 11.941406 -32.042969 15.949219 -32.042969 C 19.300781 -32.042969 22.21875 -31.4375 24.703125 -30.230469 C 27.269531 -28.980469 29.234375 -27.234375 30.597656 -24.996094 C 31.949219 -22.773438 32.625 -20.242188 32.625 -17.398438 L 32.625 -1.738281 L 30.449219 -1.738281 L 30.976562 -3.851562 L 36.105469 -2.566406 L 36.105469 2.175781 L 28.707031 2.175781 C 25.738281 2.175781 23.398438 1.21875 21.691406 -0.699219 L 23.316406 -2.144531 L 21.726562 -0.660156 C 20.976562 -1.464844 20.394531 -2.457031 19.984375 -3.636719 L 22.039062 -4.351562 L 23.9375 -3.285156 C 23.308594 -2.160156 22.5625 -1.148438 21.703125 -0.242188 L 21.664062 -0.203125 C 19.5 1.960938 16.820312 3.046875 13.628906 3.046875 Z M 13.628906 -1.304688 C 15.621094 -1.304688 17.273438 -1.960938 18.585938 -3.277344 L 20.125 -1.738281 L 18.546875 -3.238281 C 19.15625 -3.878906 19.6875 -4.605469 20.140625 -5.414062 L 22.503906 -9.632812 L 24.09375 -5.0625 C 24.300781 -4.464844 24.574219 -3.984375 24.90625 -3.628906 L 24.921875 -3.613281 L 24.9375 -3.59375 C 25.78125 -2.648438 27.039062 -2.175781 28.707031 -2.175781 L 33.929688 -2.175781 L 33.929688 0 L 31.753906 0 L 31.753906 -0.871094 L 33.929688 -0.871094 L 33.402344 1.238281 L 28.273438 -0.0429688 L 28.273438 -17.398438 C 28.273438 -19.429688 27.808594 -21.207031 26.878906 -22.734375 C 25.960938 -24.246094 24.601562 -25.441406 22.796875 -26.316406 C 20.914062 -27.234375 18.632812 -27.695312 15.949219 -27.695312 C 12.84375 -27.695312 10.578125 -27.203125 9.148438 -26.222656 C 7.980469 -25.414062 7.394531 -24.503906 7.394531 -23.488281 C 7.394531 -22.773438 7.578125 -22.234375 7.945312 -21.867188 C 8.316406 -21.5 8.855469 -21.3125 9.570312 -21.3125 C 9.90625 -21.3125 10.335938 -21.347656 10.867188 -21.414062 L 11.136719 -19.253906 L 10.644531 -21.375 L 11.402344 -21.546875 L 11.890625 -19.429688 L 9.714844 -19.429688 L 9.714844 -29.660156 L 12.011719 -30.480469 C 12.816406 -30.75 13.742188 -30.882812 14.789062 -30.882812 C 16.21875 -30.882812 17.488281 -30.601562 18.597656 -30.039062 C 19.753906 -29.457031 20.699219 -28.59375 21.433594 -27.449219 C 22.707031 -25.46875 23.34375 -22.117188 23.34375 -17.398438 L 23.34375 -13.585938 L 21.273438 -13.488281 C 18.148438 -13.335938 14.542969 -12.921875 10.449219 -12.238281 C 8.644531 -11.9375 6.976562 -11.601562 5.445312 -11.226562 L 4.929688 -13.339844 L 6.683594 -12.054688 C 6.371094 -11.628906 6.113281 -11.15625 5.914062 -10.636719 L 5.894531 -10.585938 L 5.871094 -10.539062 C 5.339844 -9.351562 5.074219 -8.15625 5.074219 -6.960938 C 5.074219 -5.378906 5.726562 -4.074219 7.035156 -3.039062 C 8.496094 -1.882812 10.691406 -1.304688 13.628906 -1.304688 Z M 15.949219 -3.335938 C 16.65625 -3.335938 17.371094 -3.816406 18.09375 -4.785156 C 18.429688 -5.242188 18.800781 -5.894531 19.207031 -6.742188 L 21.167969 -5.800781 L 18.992188 -5.800781 L 18.992188 -14.210938 L 21.167969 -14.210938 L 21.167969 -12.035156 C 19.476562 -12.035156 17.859375 -11.941406 16.324219 -11.757812 C 15.109375 -11.601562 14.277344 -11.503906 13.828125 -11.464844 L 13.628906 -13.628906 L 15.609375 -12.730469 C 15.46875 -12.417969 15.316406 -11.953125 15.152344 -11.335938 C 14.8125 -10.046875 14.644531 -8.78125 14.644531 -7.539062 C 14.644531 -5.792969 14.863281 -4.574219 15.296875 -3.882812 C 15.527344 -3.519531 15.746094 -3.335938 15.949219 -3.335938 Z M 15.949219 1.015625 C 15.027344 1.015625 14.183594 0.773438 13.414062 0.289062 C 12.71875 -0.144531 12.121094 -0.765625 11.613281 -1.566406 C 10.734375 -2.964844 10.292969 -4.957031 10.292969 -7.539062 C 10.292969 -9.15625 10.511719 -10.792969 10.945312 -12.441406 C 11.171875 -13.296875 11.40625 -13.992188 11.648438 -14.53125 L 12.171875 -15.679688 L 13.433594 -15.796875 C 13.832031 -15.832031 14.621094 -15.925781 15.808594 -16.078125 C 17.515625 -16.28125 19.304688 -16.382812 21.167969 -16.382812 L 23.34375 -16.382812 L 23.34375 -5.304688 L 23.128906 -4.859375 C 22.609375 -3.769531 22.089844 -2.875 21.574219 -2.175781 C 19.980469 -0.046875 18.105469 1.015625 15.949219 1.015625 Z M 15.949219 1.015625 "/></g></g></g><g fill="#ffecce" fill-opacity="1"><g transform="translate(255.983861, 48.262761)"><g><path d="M 1.792969 -2.980469 L 5.273438 -3.851562 L 5.800781 -1.738281 L 3.625 -1.738281 L 3.625 -27.257812 L 5.800781 -27.257812 L 5.273438 -25.148438 L 0.144531 -26.429688 L 0.144531 -31.171875 L 7.539062 -31.171875 C 10.46875 -31.171875 12.808594 -30.199219 14.554688 -28.246094 C 15.226562 -27.46875 15.785156 -26.542969 16.222656 -25.472656 L 14.210938 -24.648438 L 12.292969 -25.679688 C 12.9375 -26.871094 13.699219 -27.910156 14.585938 -28.796875 C 16.75 -30.960938 19.429688 -32.042969 22.617188 -32.042969 C 25.144531 -32.042969 27.425781 -31.503906 29.464844 -30.429688 C 31.511719 -29.347656 33.125 -27.914062 34.296875 -26.132812 C 35.5 -24.300781 36.105469 -22.355469 36.105469 -20.300781 L 36.105469 -1.738281 L 33.929688 -1.738281 L 34.457031 -3.851562 L 39.582031 -2.566406 L 39.582031 2.175781 L 29.867188 2.175781 C 27.527344 2.175781 25.710938 1.527344 24.414062 0.234375 C 23.121094 -1.0625 22.472656 -2.878906 22.472656 -5.21875 L 22.472656 -20.300781 C 22.472656 -22.292969 22.160156 -23.753906 21.539062 -24.683594 C 21.097656 -25.335938 20.6875 -25.664062 20.300781 -25.664062 C 19.554688 -25.664062 18.820312 -25.179688 18.09375 -24.214844 C 17.707031 -23.707031 17.378906 -23.105469 17.105469 -22.40625 L 15.078125 -23.199219 L 17.253906 -23.199219 L 17.253906 -1.738281 L 15.078125 -1.738281 L 15.605469 -3.851562 L 20.734375 -2.566406 L 20.734375 2.175781 L 0.144531 2.175781 L 0.144531 -2.566406 Z M 2.847656 1.238281 L 2.320312 -0.871094 L 4.496094 -0.871094 L 4.496094 0 L 2.320312 0 L 2.320312 -2.175781 L 18.558594 -2.175781 L 18.558594 0 L 16.382812 0 L 16.382812 -0.871094 L 18.558594 -0.871094 L 18.03125 1.238281 L 12.90625 -0.0429688 L 12.90625 -23.609375 L 13.054688 -23.992188 C 13.476562 -25.070312 13.996094 -26.015625 14.617188 -26.824219 C 16.210938 -28.949219 18.105469 -30.015625 20.300781 -30.015625 C 22.230469 -30.015625 23.847656 -29.046875 25.148438 -27.109375 C 26.265625 -25.445312 26.824219 -23.175781 26.824219 -20.300781 L 26.824219 -5.21875 C 26.824219 -4.082031 27.046875 -3.289062 27.492188 -2.84375 C 27.9375 -2.398438 28.730469 -2.175781 29.867188 -2.175781 L 37.410156 -2.175781 L 37.410156 0 L 35.234375 0 L 35.234375 -0.871094 L 37.410156 -0.871094 L 36.882812 1.238281 L 31.753906 -0.0429688 L 31.753906 -20.300781 C 31.753906 -21.488281 31.390625 -22.636719 30.660156 -23.742188 C 29.898438 -24.902344 28.824219 -25.847656 27.433594 -26.582031 C 26.027344 -27.324219 24.425781 -27.695312 22.617188 -27.695312 C 20.628906 -27.695312 18.976562 -27.035156 17.660156 -25.722656 C 17.078125 -25.136719 16.566406 -24.4375 16.125 -23.617188 L 13.941406 -19.5625 L 12.195312 -23.824219 C 11.9375 -24.457031 11.644531 -24.960938 11.3125 -25.34375 C 10.429688 -26.332031 9.171875 -26.824219 7.539062 -26.824219 L 2.320312 -26.824219 L 2.320312 -29 L 4.496094 -29 L 4.496094 -28.128906 L 2.320312 -28.128906 L 2.847656 -30.238281 L 7.976562 -28.957031 L 7.976562 -0.0429688 Z M 2.847656 1.238281 "/></g></g></g><g fill="#e06054" fill-opacity="1"><g transform="translate(5.440429, 48.262761)"><g><path d="M 2.90625 -0.875 L 6.375 -1.734375 L 6.375 -38.859375 L 2.90625 -39.734375 L 2.90625 -40.59375 L 18.265625 -40.59375 C 24.835938 -40.59375 29.570312 -39.597656 32.46875 -37.609375 C 35.375 -35.617188 36.828125 -32.847656 36.828125 -29.296875 C 36.828125 -26.890625 36.1875 -24.941406 34.90625 -23.453125 C 33.632812 -21.972656 31.992188 -20.863281 29.984375 -20.125 C 27.859375 -19.3125 25.597656 -18.882812 23.203125 -18.84375 L 23.203125 -18.5625 C 24.628906 -18.476562 25.882812 -18.265625 26.96875 -17.921875 C 29.675781 -17.066406 31.515625 -15.539062 32.484375 -13.34375 L 37.703125 -1.734375 L 40.59375 -0.875 L 40.59375 0 L 32.484375 0 C 29.304688 0 26.984375 -1.644531 25.515625 -4.9375 L 19.71875 -17.984375 L 15.953125 -17.984375 L 15.953125 -1.734375 L 20.015625 -0.875 L 20.015625 0 L 2.90625 0 Z M 18.265625 -19.4375 C 20.972656 -19.4375 23.097656 -20.285156 24.640625 -21.984375 C 26.191406 -23.679688 26.96875 -26.117188 26.96875 -29.296875 C 26.96875 -32.460938 26.191406 -34.894531 24.640625 -36.59375 C 23.097656 -38.300781 20.972656 -39.15625 18.265625 -39.15625 L 15.953125 -39.15625 L 15.953125 -19.4375 Z M 18.265625 -19.4375 "/></g></g></g><g fill="#e06054" fill-opacity="1"><g transform="translate(46.037737, 48.262761)"><g><path d="M 17.984375 0.875 C 13.035156 0.875 9.1875 -0.488281 6.4375 -3.21875 C 3.6875 -5.945312 2.3125 -9.707031 2.3125 -14.5 C 2.3125 -17.632812 2.910156 -20.359375 4.109375 -22.671875 C 5.316406 -24.992188 6.992188 -26.773438 9.140625 -28.015625 C 11.285156 -29.253906 13.75 -29.875 16.53125 -29.875 C 19.3125 -29.875 21.753906 -29.347656 23.859375 -28.296875 C 25.972656 -27.253906 27.597656 -25.851562 28.734375 -24.09375 C 29.878906 -22.332031 30.453125 -20.390625 30.453125 -18.265625 C 30.453125 -17.296875 30.351562 -16.46875 30.15625 -15.78125 L 29.875 -14.796875 C 28.207031 -14.441406 26.40625 -14.148438 24.46875 -13.921875 C 20.414062 -13.335938 16.320312 -13.046875 12.1875 -13.046875 C 12.1875 -8.566406 12.800781 -5.367188 14.03125 -3.453125 C 15.269531 -1.535156 16.972656 -0.578125 19.140625 -0.578125 C 20.648438 -0.578125 22.050781 -0.929688 23.34375 -1.640625 C 24.632812 -2.359375 25.65625 -3.304688 26.40625 -4.484375 C 27.164062 -5.671875 27.546875 -6.882812 27.546875 -8.125 L 29 -8.125 C 29 -6.570312 28.535156 -5.097656 27.609375 -3.703125 C 26.679688 -2.316406 25.382812 -1.207031 23.71875 -0.375 C 22.0625 0.457031 20.148438 0.875 17.984375 0.875 Z M 12.1875 -14.5 C 14.65625 -14.5 16.664062 -14.597656 18.21875 -14.796875 C 18.875 -14.828125 19.566406 -14.921875 20.296875 -15.078125 C 20.335938 -15.273438 20.4375 -15.703125 20.59375 -16.359375 C 20.78125 -17.328125 20.875 -18.351562 20.875 -19.4375 C 20.875 -22.644531 20.445312 -24.988281 19.59375 -26.46875 C 18.75 -27.957031 17.726562 -28.703125 16.53125 -28.703125 C 13.632812 -28.703125 12.1875 -23.96875 12.1875 -14.5 Z M 12.1875 -14.5 "/></g></g></g><g fill="#e06054" fill-opacity="1"><g transform="translate(78.515587, 48.262761)"><g><path d="M 15.953125 0.875 C 13.554688 0.875 11.410156 0.347656 9.515625 -0.703125 C 8.585938 -1.203125 7.832031 -1.738281 7.25 -2.3125 C 6.632812 -1.46875 5.957031 -0.8125 5.21875 -0.34375 C 4.875 -0.113281 4.488281 0.0976562 4.0625 0.296875 L 2.609375 0.296875 L 2.609375 -9.5625 L 4.9375 -9.5625 C 5.4375 -7.945312 6.171875 -6.441406 7.140625 -5.046875 C 9.179688 -2.066406 11.734375 -0.578125 14.796875 -0.578125 C 16.410156 -0.578125 17.632812 -0.972656 18.46875 -1.765625 C 19.300781 -2.554688 19.71875 -3.707031 19.71875 -5.21875 C 19.71875 -6.5 19.144531 -7.570312 18 -8.4375 C 16.863281 -9.3125 15.078125 -10.382812 12.640625 -11.65625 C 10.554688 -12.695312 8.863281 -13.632812 7.5625 -14.46875 C 6.269531 -15.300781 5.171875 -16.34375 4.265625 -17.59375 C 3.359375 -18.851562 2.90625 -20.335938 2.90625 -22.046875 C 2.90625 -24.359375 3.898438 -26.238281 5.890625 -27.6875 C 7.878906 -29.144531 10.941406 -29.875 15.078125 -29.875 C 17.128906 -29.875 19.023438 -29.332031 20.765625 -28.25 C 21.617188 -27.738281 22.351562 -27.21875 22.96875 -26.6875 C 23.46875 -27.375 24.144531 -28.03125 25 -28.65625 C 25.65625 -29.039062 26.039062 -29.253906 26.15625 -29.296875 L 27.609375 -29.296875 L 27.609375 -19.4375 L 25.28125 -19.4375 C 24.707031 -21.09375 23.992188 -22.578125 23.140625 -23.890625 C 21.203125 -26.910156 18.898438 -28.421875 16.234375 -28.421875 C 15.191406 -28.421875 14.300781 -28.03125 13.5625 -27.25 C 12.832031 -26.476562 12.46875 -25.515625 12.46875 -24.359375 C 12.46875 -22.890625 13.085938 -21.660156 14.328125 -20.671875 C 15.566406 -19.691406 17.441406 -18.5625 19.953125 -17.28125 C 22.003906 -16.238281 23.640625 -15.320312 24.859375 -14.53125 C 26.078125 -13.738281 27.117188 -12.757812 27.984375 -11.59375 C 28.859375 -10.4375 29.296875 -9.085938 29.296875 -7.546875 C 29.296875 -1.929688 24.847656 0.875 15.953125 0.875 Z M 15.953125 0.875 "/></g></g></g><g fill="#e06054" fill-opacity="1"><g transform="translate(109.83351, 48.262761)"><g><path d="M 17.6875 0.875 C 12.894531 0.875 9.132812 -0.488281 6.40625 -3.21875 C 3.675781 -5.945312 2.3125 -9.707031 2.3125 -14.5 C 2.3125 -19.289062 3.675781 -23.050781 6.40625 -25.78125 C 9.132812 -28.507812 12.894531 -29.875 17.6875 -29.875 C 22.476562 -29.875 26.238281 -28.507812 28.96875 -25.78125 C 31.695312 -23.050781 33.0625 -19.289062 33.0625 -14.5 C 33.0625 -9.707031 31.695312 -5.945312 28.96875 -3.21875 C 26.238281 -0.488281 22.476562 0.875 17.6875 0.875 Z M 17.6875 -0.296875 C 19.238281 -0.296875 20.546875 -1.375 21.609375 -3.53125 C 22.671875 -5.695312 23.203125 -9.351562 23.203125 -14.5 C 23.203125 -19.644531 22.671875 -23.296875 21.609375 -25.453125 C 20.546875 -27.617188 19.238281 -28.703125 17.6875 -28.703125 C 16.144531 -28.703125 14.84375 -27.617188 13.78125 -25.453125 C 12.71875 -23.296875 12.1875 -19.644531 12.1875 -14.5 C 12.1875 -9.351562 12.71875 -5.695312 13.78125 -3.53125 C 14.84375 -1.375 16.144531 -0.296875 17.6875 -0.296875 Z M 17.6875 -0.296875 "/></g></g></g><g fill="#e06054" fill-opacity="1"><g transform="translate(145.211168, 48.262761)"><g><path d="M 2.3125 -0.875 L 5.796875 -1.734375 L 5.796875 -27.265625 L 2.3125 -28.125 L 2.3125 -29 L 7.546875 -29 C 9.828125 -29 11.625 -28.265625 12.9375 -26.796875 C 13.4375 -26.210938 13.859375 -25.5 14.203125 -24.65625 C 14.785156 -25.5 15.503906 -26.269531 16.359375 -26.96875 C 18.285156 -28.519531 20.453125 -29.296875 22.859375 -29.296875 C 24.898438 -29.296875 26.429688 -28.820312 27.453125 -27.875 C 28.484375 -26.925781 29 -25.5625 29 -23.78125 C 29 -22.46875 28.601562 -21.414062 27.8125 -20.625 C 27.019531 -19.832031 25.96875 -19.4375 24.65625 -19.4375 C 24.113281 -19.4375 23.570312 -19.472656 23.03125 -19.546875 L 22.328125 -19.71875 L 22.328125 -27.84375 C 20.359375 -27.84375 18.5625 -27.066406 16.9375 -25.515625 C 16.164062 -24.742188 15.546875 -23.972656 15.078125 -23.203125 L 15.078125 -1.734375 L 18.5625 -0.875 L 18.5625 0 L 2.3125 0 Z M 2.3125 -0.875 "/></g></g></g><g fill="#e06054" fill-opacity="1"><g transform="translate(175.079205, 48.262761)"><g><path d="M 17.40625 0.875 C 14.851562 0.875 12.640625 0.410156 10.765625 -0.515625 C 8.890625 -1.441406 7.445312 -2.71875 6.4375 -4.34375 C 5.4375 -5.96875 4.9375 -7.804688 4.9375 -9.859375 L 4.9375 -27.546875 L 0.875 -27.546875 L 0.875 -29 L 4.9375 -29 L 4.9375 -31.90625 C 4.9375 -35.382812 6.675781 -37.125 10.15625 -37.125 L 14.203125 -37.125 L 14.203125 -29 L 22.328125 -29 L 22.328125 -27.546875 L 14.203125 -27.546875 L 14.203125 -9.859375 C 14.203125 -6.304688 14.566406 -3.867188 15.296875 -2.546875 C 16.035156 -1.234375 17.125 -0.578125 18.5625 -0.578125 C 19.945312 -0.578125 21.160156 -1.253906 22.203125 -2.609375 C 23.253906 -3.960938 23.78125 -5.800781 23.78125 -8.125 L 25.234375 -8.125 C 25.234375 -5.257812 24.515625 -3.039062 23.078125 -1.46875 C 21.648438 0.09375 19.757812 0.875 17.40625 0.875 Z M 17.40625 0.875 "/></g></g></g><g fill="#e06054" fill-opacity="1"><g transform="translate(201.177467, 48.262761)"><g><path d="M 2.3125 -0.875 L 5.796875 -1.734375 L 5.796875 -27.265625 L 2.3125 -28.125 L 2.3125 -29 L 9.859375 -29 C 13.335938 -29 15.078125 -27.257812 15.078125 -23.78125 L 15.078125 -1.734375 L 18.5625 -0.875 L 18.5625 0 L 2.3125 0 Z M 9.859375 -32.484375 C 8.703125 -32.484375 7.734375 -32.867188 6.953125 -33.640625 C 6.179688 -34.410156 5.796875 -35.378906 5.796875 -36.546875 C 5.796875 -37.703125 6.179688 -38.664062 6.953125 -39.4375 C 7.734375 -40.207031 8.703125 -40.59375 9.859375 -40.59375 C 11.015625 -40.59375 11.976562 -40.207031 12.75 -39.4375 C 13.53125 -38.664062 13.921875 -37.703125 13.921875 -36.546875 C 13.921875 -35.378906 13.53125 -34.410156 12.75 -33.640625 C 11.976562 -32.867188 11.015625 -32.484375 9.859375 -32.484375 Z M 9.859375 -32.484375 "/></g></g></g><g fill="#e06054" fill-opacity="1"><g transform="translate(220.896185, 48.262761)"><g><path d="M 13.625 0.875 C 10.1875 0.875 7.539062 0.140625 5.6875 -1.328125 C 3.832031 -2.796875 2.90625 -4.671875 2.90625 -6.953125 C 2.90625 -8.460938 3.234375 -9.953125 3.890625 -11.421875 C 4.160156 -12.117188 4.507812 -12.757812 4.9375 -13.34375 C 6.519531 -13.726562 8.238281 -14.078125 10.09375 -14.390625 C 14.269531 -15.078125 17.960938 -15.5 21.171875 -15.65625 L 21.171875 -17.40625 C 21.171875 -21.695312 20.644531 -24.648438 19.59375 -26.265625 C 18.550781 -27.890625 16.953125 -28.703125 14.796875 -28.703125 C 13.984375 -28.703125 13.285156 -28.609375 12.703125 -28.421875 L 11.890625 -28.125 L 11.890625 -19.4375 L 11.140625 -19.25 C 10.515625 -19.175781 9.988281 -19.140625 9.5625 -19.140625 C 8.25 -19.140625 7.195312 -19.535156 6.40625 -20.328125 C 5.613281 -21.117188 5.21875 -22.171875 5.21875 -23.484375 C 5.21875 -25.265625 6.113281 -26.773438 7.90625 -28.015625 C 9.707031 -29.253906 12.390625 -29.875 15.953125 -29.875 C 18.960938 -29.875 21.5625 -29.34375 23.75 -28.28125 C 25.9375 -27.21875 27.597656 -25.742188 28.734375 -23.859375 C 29.878906 -21.984375 30.453125 -19.832031 30.453125 -17.40625 L 30.453125 -1.734375 L 33.9375 -0.875 L 33.9375 0 L 28.703125 0 C 26.390625 0 24.59375 -0.710938 23.3125 -2.140625 C 22.769531 -2.722656 22.347656 -3.457031 22.046875 -4.34375 C 21.503906 -3.382812 20.863281 -2.515625 20.125 -1.734375 C 18.382812 0.00390625 16.21875 0.875 13.625 0.875 Z M 15.953125 -1.15625 C 17.378906 -1.15625 18.675781 -1.929688 19.84375 -3.484375 C 20.257812 -4.054688 20.703125 -4.828125 21.171875 -5.796875 L 21.171875 -14.203125 C 19.390625 -14.203125 17.6875 -14.109375 16.0625 -13.921875 C 14.863281 -13.765625 14.050781 -13.664062 13.625 -13.625 C 13.4375 -13.195312 13.242188 -12.617188 13.046875 -11.890625 C 12.660156 -10.421875 12.46875 -8.972656 12.46875 -7.546875 C 12.46875 -5.378906 12.796875 -3.769531 13.453125 -2.71875 C 14.109375 -1.675781 14.941406 -1.15625 15.953125 -1.15625 Z M 15.953125 -1.15625 "/></g></g></g><g fill="#e06054" fill-opacity="1"><g transform="translate(255.983861, 48.262761)"><g><path d="M 2.3125 -0.875 L 5.796875 -1.734375 L 5.796875 -27.265625 L 2.3125 -28.125 L 2.3125 -29 L 7.546875 -29 C 9.828125 -29 11.625 -28.265625 12.9375 -26.796875 C 13.4375 -26.210938 13.859375 -25.5 14.203125 -24.65625 C 14.742188 -25.65625 15.382812 -26.523438 16.125 -27.265625 C 17.863281 -29.003906 20.03125 -29.875 22.625 -29.875 C 24.789062 -29.875 26.734375 -29.414062 28.453125 -28.5 C 30.171875 -27.59375 31.515625 -26.40625 32.484375 -24.9375 C 33.453125 -23.46875 33.9375 -21.921875 33.9375 -20.296875 L 33.9375 -1.734375 L 37.40625 -0.875 L 37.40625 0 L 29.875 0 C 26.394531 0 24.65625 -1.738281 24.65625 -5.21875 L 24.65625 -20.296875 C 24.65625 -22.734375 24.21875 -24.597656 23.34375 -25.890625 C 22.476562 -27.191406 21.460938 -27.84375 20.296875 -27.84375 C 18.828125 -27.84375 17.515625 -27.066406 16.359375 -25.515625 C 15.859375 -24.859375 15.429688 -24.085938 15.078125 -23.203125 L 15.078125 -1.734375 L 18.5625 -0.875 L 18.5625 0 L 2.3125 0 Z M 2.3125 -0.875 "/></g></g></g></svg>