<svg xmlns="http://www.w3.org/2000/svg" xmlns:xlink="http://www.w3.org/1999/xlink" width="400" zoomAndPan="magnify" viewBox="0 0 300 60" height="80" preserveAspectRatio="xMidYMid meet" version="1.0"><defs><g/></defs><g fill="#000000" fill-opacity="1"><g transform="translate(4.604883, 45.191195)"><g><path d="M 2.453125 -1.792969 L 5.695312 -2.601562 L 5.941406 -1.621094 L 4.925781 -1.621094 L 4.925781 -36.179688 L 5.941406 -36.179688 L 5.695312 -35.199219 L 1.6875 -36.199219 L 1.6875 -38.8125 L 17.011719 -38.8125 C 23.339844 -38.8125 27.941406 -37.828125 30.8125 -35.855469 C 33.804688 -33.796875 35.300781 -30.9375 35.300781 -27.269531 C 35.300781 -24.789062 34.628906 -22.757812 33.277344 -21.183594 C 31.972656 -19.664062 30.304688 -18.53125 28.265625 -17.785156 C 26.183594 -16.992188 23.96875 -16.574219 21.617188 -16.539062 L 21.601562 -17.550781 L 22.613281 -17.550781 L 22.613281 -17.28125 L 21.601562 -17.28125 L 21.65625 -18.292969 C 23.074219 -18.214844 24.328125 -18 25.417969 -17.648438 C 28.226562 -16.765625 30.144531 -15.160156 31.167969 -12.828125 L 36.023438 -2.035156 L 35.101562 -1.621094 L 35.390625 -2.589844 L 38.8125 -1.5625 L 38.8125 1.011719 L 30.238281 1.011719 C 28.550781 1.011719 27.074219 0.566406 25.820312 -0.320312 C 24.589844 -1.191406 23.59375 -2.476562 22.835938 -4.175781 L 17.433594 -16.328125 L 18.359375 -16.738281 L 18.359375 -15.726562 L 14.851562 -15.726562 L 14.851562 -16.738281 L 15.863281 -16.738281 L 15.863281 -1.621094 L 14.851562 -1.621094 L 15.0625 -2.609375 L 19.640625 -1.628906 L 19.640625 1.011719 L 1.6875 1.011719 L 1.6875 -1.601562 Z M 2.945312 0.171875 L 2.699219 -0.808594 L 3.710938 -0.808594 L 3.710938 0 L 2.699219 0 L 2.699219 -1.011719 L 18.628906 -1.011719 L 18.628906 0 L 17.617188 0 L 17.617188 -0.808594 L 18.628906 -0.808594 L 18.417969 0.179688 L 13.835938 -0.800781 L 13.835938 -17.753906 L 19.019531 -17.753906 L 24.683594 -5.003906 C 25.292969 -3.640625 26.0625 -2.632812 26.992188 -1.972656 C 27.894531 -1.332031 28.980469 -1.011719 30.238281 -1.011719 L 37.800781 -1.011719 L 37.800781 0 L 36.789062 0 L 36.789062 -0.808594 L 37.800781 -0.808594 L 37.507812 0.160156 L 34.367188 -0.78125 L 29.3125 -12.011719 C 28.535156 -13.785156 27.03125 -15.019531 24.800781 -15.722656 C 23.875 -16.019531 22.789062 -16.203125 21.546875 -16.269531 L 20.585938 -16.320312 L 20.585938 -18.546875 L 21.582031 -18.5625 C 23.695312 -18.597656 25.691406 -18.972656 27.570312 -19.6875 C 29.277344 -20.3125 30.667969 -21.25 31.738281 -22.5 C 32.765625 -23.699219 33.277344 -25.289062 33.277344 -27.269531 C 33.277344 -30.226562 32.074219 -32.53125 29.667969 -34.183594 C 27.140625 -35.917969 22.921875 -36.789062 17.011719 -36.789062 L 2.699219 -36.789062 L 2.699219 -37.800781 L 3.710938 -37.800781 L 3.710938 -36.988281 L 2.699219 -36.988281 L 2.945312 -37.972656 L 6.953125 -36.96875 L 6.953125 -0.828125 Z M 17.011719 -19.101562 C 19.230469 -19.101562 20.960938 -19.785156 22.199219 -21.148438 C 23.464844 -22.539062 24.097656 -24.578125 24.097656 -27.269531 C 24.097656 -29.960938 23.464844 -32.003906 22.199219 -33.394531 C 20.960938 -34.757812 19.230469 -35.4375 17.011719 -35.4375 L 14.851562 -35.4375 L 14.851562 -36.449219 L 15.863281 -36.449219 L 15.863281 -18.089844 L 14.851562 -18.089844 L 14.851562 -19.101562 Z M 17.011719 -17.078125 L 13.835938 -17.078125 L 13.835938 -37.460938 L 17.011719 -37.460938 C 19.828125 -37.460938 22.058594 -36.558594 23.699219 -34.753906 C 25.316406 -32.976562 26.121094 -30.484375 26.121094 -27.269531 C 26.121094 -24.058594 25.316406 -21.5625 23.699219 -19.785156 C 22.058594 -17.980469 19.828125 -17.078125 17.011719 -17.078125 Z M 17.011719 -17.078125 "/></g></g></g><g fill="#000000" fill-opacity="1"><g transform="translate(45.104892, 45.191195)"><g><path d="M 16.738281 1.824219 C 11.855469 1.824219 8.035156 0.457031 5.28125 -2.277344 C 2.523438 -5.015625 1.148438 -8.753906 1.148438 -13.5 C 1.148438 -16.578125 1.742188 -19.273438 2.933594 -21.578125 C 4.140625 -23.914062 5.828125 -25.707031 8 -26.960938 C 10.152344 -28.203125 12.617188 -28.824219 15.390625 -28.824219 C 18.140625 -28.824219 20.566406 -28.300781 22.671875 -27.257812 C 24.796875 -26.203125 26.445312 -24.78125 27.605469 -22.988281 C 28.777344 -21.183594 29.363281 -19.191406 29.363281 -17.011719 C 29.363281 -16.019531 29.261719 -15.152344 29.054688 -14.417969 L 28.609375 -12.902344 L 28.015625 -12.777344 C 26.441406 -12.449219 24.738281 -12.175781 22.910156 -11.953125 L 22.789062 -12.960938 L 22.929688 -11.957031 C 19.105469 -11.410156 15.238281 -11.136719 11.339844 -11.136719 L 11.339844 -12.148438 L 12.351562 -12.148438 C 12.351562 -8.171875 12.875 -5.378906 13.917969 -3.761719 C 14.871094 -2.289062 16.171875 -1.550781 17.820312 -1.550781 C 19.050781 -1.550781 20.191406 -1.84375 21.246094 -2.425781 C 22.300781 -3.007812 23.132812 -3.777344 23.742188 -4.730469 C 24.339844 -5.664062 24.636719 -6.605469 24.636719 -7.558594 L 24.636719 -8.574219 L 28.011719 -8.574219 L 28.011719 -7.558594 C 28.011719 -5.914062 27.523438 -4.359375 26.546875 -2.894531 C 25.582031 -1.449219 24.246094 -0.300781 22.539062 0.554688 C 20.847656 1.398438 18.914062 1.824219 16.738281 1.824219 Z M 16.738281 -0.203125 C 18.597656 -0.203125 20.226562 -0.554688 21.632812 -1.257812 C 23.019531 -1.949219 24.097656 -2.871094 24.863281 -4.019531 C 25.613281 -5.144531 25.988281 -6.324219 25.988281 -7.558594 L 27 -7.558594 L 27 -6.546875 L 25.648438 -6.546875 L 25.648438 -7.558594 L 26.664062 -7.558594 C 26.664062 -6.210938 26.257812 -4.902344 25.449219 -3.640625 C 24.65625 -2.398438 23.582031 -1.402344 22.222656 -0.652344 C 20.867188 0.0976562 19.398438 0.472656 17.820312 0.472656 C 15.4375 0.472656 13.570312 -0.574219 12.21875 -2.664062 C 10.957031 -4.613281 10.328125 -7.773438 10.328125 -12.148438 L 10.328125 -13.164062 L 11.339844 -13.164062 C 15.144531 -13.164062 18.914062 -13.429688 22.644531 -13.960938 L 22.65625 -13.964844 L 22.667969 -13.964844 C 24.4375 -14.179688 26.082031 -14.441406 27.601562 -14.761719 L 27.808594 -13.769531 L 26.839844 -14.054688 L 27.105469 -14.960938 C 27.261719 -15.519531 27.335938 -16.203125 27.335938 -17.011719 C 27.335938 -18.789062 26.859375 -20.414062 25.90625 -21.886719 C 24.945312 -23.367188 23.566406 -24.554688 21.773438 -25.445312 C 19.949219 -26.347656 17.824219 -26.796875 15.390625 -26.796875 C 12.980469 -26.796875 10.851562 -26.265625 9.011719 -25.203125 C 7.183594 -24.152344 5.757812 -22.632812 4.734375 -20.648438 C 3.691406 -18.636719 3.171875 -16.25 3.171875 -13.5 C 3.171875 -9.316406 4.351562 -6.054688 6.707031 -3.714844 C 9.066406 -1.375 12.410156 -0.203125 16.738281 -0.203125 Z M 11.339844 -14.511719 C 13.601562 -14.511719 15.433594 -14.601562 16.832031 -14.773438 L 16.863281 -14.777344 L 16.898438 -14.78125 C 17.457031 -14.8125 18.054688 -14.898438 18.691406 -15.03125 L 18.898438 -14.039062 L 17.90625 -14.238281 C 17.945312 -14.429688 18.039062 -14.835938 18.183594 -15.460938 L 19.171875 -15.226562 L 18.175781 -15.425781 C 18.34375 -16.261719 18.425781 -17.148438 18.425781 -18.089844 C 18.425781 -20.898438 18.074219 -22.917969 17.371094 -24.148438 C 16.773438 -25.195312 16.113281 -25.71875 15.390625 -25.71875 C 14.539062 -25.71875 13.847656 -24.855469 13.320312 -23.125 C 12.675781 -21.019531 12.351562 -17.808594 12.351562 -13.5 L 11.339844 -13.5 Z M 11.339844 -12.488281 L 10.328125 -12.488281 L 10.328125 -13.5 C 10.328125 -18.011719 10.679688 -21.417969 11.382812 -23.71875 C 12.207031 -26.402344 13.539062 -27.742188 15.390625 -27.742188 C 16.898438 -27.742188 18.144531 -26.878906 19.132812 -25.152344 C 20.011719 -23.613281 20.453125 -21.257812 20.453125 -18.089844 C 20.453125 -17.015625 20.355469 -15.996094 20.164062 -15.03125 L 20.160156 -15.011719 L 20.15625 -14.996094 C 20.015625 -14.394531 19.925781 -14.011719 19.894531 -13.839844 L 19.761719 -13.1875 L 19.109375 -13.050781 C 18.375 -12.894531 17.675781 -12.796875 17.015625 -12.757812 L 16.957031 -13.769531 L 17.082031 -12.765625 C 15.601562 -12.582031 13.6875 -12.488281 11.339844 -12.488281 Z M 11.339844 -12.488281 "/></g></g></g><g fill="#000000" fill-opacity="1"><g transform="translate(78.044901, 45.191195)"><g><path d="M 14.851562 1.824219 C 12.445312 1.824219 10.285156 1.292969 8.367188 0.238281 C 7.421875 -0.273438 6.644531 -0.835938 6.035156 -1.445312 L 6.75 -2.160156 L 7.570312 -1.566406 C 6.917969 -0.667969 6.195312 0.03125 5.402344 0.53125 L 4.859375 -0.324219 L 5.421875 0.519531 C 5.050781 0.765625 4.644531 0.988281 4.199219 1.191406 L 4 1.28125 L 1.417969 1.28125 L 1.417969 -9.921875 L 5.335938 -9.921875 L 5.558594 -9.210938 C 5.996094 -7.796875 6.632812 -6.484375 7.472656 -5.277344 C 9.183594 -2.792969 11.28125 -1.550781 13.769531 -1.550781 C 15.011719 -1.550781 15.921875 -1.828125 16.5 -2.378906 C 17.066406 -2.917969 17.347656 -3.746094 17.347656 -4.859375 C 17.347656 -5.714844 16.949219 -6.445312 16.152344 -7.050781 C 15.136719 -7.828125 13.519531 -8.796875 11.300781 -9.957031 C 9.335938 -10.9375 7.738281 -11.828125 6.5 -12.621094 C 5.1875 -13.464844 4.070312 -14.523438 3.148438 -15.796875 C 2.175781 -17.144531 1.6875 -18.71875 1.6875 -20.519531 C 1.6875 -23.023438 2.753906 -25.050781 4.886719 -26.601562 C 6.917969 -28.082031 9.96875 -28.824219 14.039062 -28.824219 C 16.140625 -28.824219 18.082031 -28.265625 19.867188 -27.15625 L 19.332031 -26.296875 L 19.847656 -27.167969 C 20.691406 -26.667969 21.425781 -26.148438 22.050781 -25.601562 L 21.382812 -24.839844 L 20.5625 -25.433594 C 21.09375 -26.167969 21.800781 -26.855469 22.679688 -27.496094 L 22.71875 -27.523438 L 22.761719 -27.546875 C 23.433594 -27.945312 23.859375 -28.171875 24.035156 -28.230469 L 24.191406 -28.28125 L 26.714844 -28.28125 L 26.714844 -17.078125 L 22.824219 -17.078125 L 22.589844 -17.757812 C 22.074219 -19.226562 21.445312 -20.542969 20.695312 -21.699219 C 19.09375 -24.199219 17.234375 -25.449219 15.121094 -25.449219 C 14.4375 -25.449219 13.855469 -25.191406 13.371094 -24.683594 C 12.871094 -24.15625 12.621094 -23.492188 12.621094 -22.679688 C 12.621094 -21.636719 13.070312 -20.757812 13.96875 -20.042969 C 15.066406 -19.167969 16.753906 -18.152344 19.035156 -16.996094 C 20.976562 -16.007812 22.527344 -15.132812 23.691406 -14.375 C 24.925781 -13.574219 25.984375 -12.582031 26.863281 -11.40625 C 27.808594 -10.148438 28.28125 -8.683594 28.28125 -7.019531 C 28.28125 -4.039062 27.089844 -1.792969 24.703125 -0.289062 C 22.46875 1.117188 19.183594 1.824219 14.851562 1.824219 Z M 14.851562 -0.203125 C 18.796875 -0.203125 21.71875 -0.804688 23.625 -2.003906 C 25.378906 -3.109375 26.257812 -4.78125 26.257812 -7.019531 C 26.257812 -8.234375 25.921875 -9.292969 25.246094 -10.191406 C 24.507812 -11.175781 23.621094 -12.003906 22.585938 -12.679688 C 21.484375 -13.398438 19.992188 -14.234375 18.117188 -15.1875 C 15.714844 -16.410156 13.914062 -17.5 12.707031 -18.460938 C 11.300781 -19.578125 10.597656 -20.988281 10.597656 -22.679688 C 10.597656 -24.03125 11.03125 -25.160156 11.902344 -26.078125 C 12.785156 -27.007812 13.859375 -27.472656 15.121094 -27.472656 C 17.972656 -27.472656 20.398438 -25.914062 22.394531 -22.796875 C 23.230469 -21.507812 23.933594 -20.046875 24.5 -18.421875 L 23.542969 -18.089844 L 23.542969 -19.101562 L 25.703125 -19.101562 L 25.703125 -18.089844 L 24.691406 -18.089844 L 24.691406 -27.269531 L 25.703125 -27.269531 L 25.703125 -26.257812 L 24.355469 -26.257812 L 24.355469 -27.269531 L 24.675781 -26.308594 C 24.632812 -26.296875 24.339844 -26.128906 23.789062 -25.804688 L 23.273438 -26.675781 L 23.871094 -25.855469 C 23.164062 -25.34375 22.609375 -24.808594 22.203125 -24.246094 L 21.554688 -23.347656 L 20.71875 -24.078125 C 20.1875 -24.539062 19.554688 -24.988281 18.816406 -25.425781 L 18.808594 -25.433594 L 18.796875 -25.4375 C 17.339844 -26.34375 15.753906 -26.796875 14.039062 -26.796875 C 10.40625 -26.796875 7.753906 -26.1875 6.078125 -24.964844 C 4.5 -23.820312 3.710938 -22.335938 3.710938 -20.519531 C 3.710938 -19.15625 4.070312 -17.976562 4.789062 -16.980469 C 5.5625 -15.914062 6.496094 -15.03125 7.59375 -14.324219 C 8.769531 -13.570312 10.320312 -12.710938 12.242188 -11.75 C 14.558594 -10.535156 16.273438 -9.507812 17.382812 -8.660156 C 18.707031 -7.648438 19.371094 -6.382812 19.371094 -4.859375 C 19.371094 -3.167969 18.882812 -1.851562 17.898438 -0.914062 C 16.929688 0.0117188 15.550781 0.472656 13.769531 0.472656 C 10.570312 0.472656 7.917969 -1.058594 5.808594 -4.121094 C 4.851562 -5.503906 4.121094 -7 3.621094 -8.609375 L 4.589844 -8.910156 L 4.589844 -7.898438 L 2.429688 -7.898438 L 2.429688 -8.910156 L 3.441406 -8.910156 L 3.441406 0.269531 L 2.429688 0.269531 L 2.429688 -0.742188 L 3.78125 -0.742188 L 3.78125 0.269531 L 3.359375 -0.652344 C 3.707031 -0.808594 4.019531 -0.980469 4.296875 -1.167969 L 4.308594 -1.171875 L 4.320312 -1.179688 C 4.894531 -1.542969 5.429688 -2.066406 5.929688 -2.753906 L 6.628906 -3.714844 L 7.464844 -2.875 C 7.9375 -2.40625 8.5625 -1.957031 9.34375 -1.535156 C 10.957031 -0.648438 12.792969 -0.203125 14.851562 -0.203125 Z M 14.851562 -0.203125 "/></g></g></g><g fill="#000000" fill-opacity="1"><g transform="translate(109.904908, 45.191195)"><g><path d="M 16.46875 1.824219 C 11.726562 1.824219 7.988281 0.453125 5.25 -2.28125 C 2.515625 -5.015625 1.148438 -8.757812 1.148438 -13.5 C 1.148438 -18.242188 2.515625 -21.984375 5.25 -24.71875 C 7.988281 -27.453125 11.726562 -28.824219 16.46875 -28.824219 C 21.214844 -28.824219 24.953125 -27.453125 27.6875 -24.71875 C 30.425781 -21.984375 31.792969 -18.242188 31.792969 -13.5 C 31.792969 -8.757812 30.425781 -5.015625 27.6875 -2.28125 C 24.953125 0.453125 21.214844 1.824219 16.46875 1.824219 Z M 16.46875 -0.203125 C 20.65625 -0.203125 23.917969 -1.371094 26.257812 -3.714844 C 28.597656 -6.054688 29.765625 -9.316406 29.765625 -13.5 C 29.765625 -17.683594 28.597656 -20.945312 26.257812 -23.285156 C 23.917969 -25.628906 20.65625 -26.796875 16.46875 -26.796875 C 12.285156 -26.796875 9.023438 -25.628906 6.683594 -23.285156 C 4.34375 -20.945312 3.171875 -17.683594 3.171875 -13.5 C 3.171875 -9.316406 4.34375 -6.054688 6.683594 -3.714844 C 9.023438 -1.371094 12.285156 -0.203125 16.46875 -0.203125 Z M 16.46875 -1.28125 C 17.488281 -1.28125 18.402344 -2.101562 19.207031 -3.742188 C 20.128906 -5.617188 20.585938 -8.867188 20.585938 -13.5 C 20.585938 -18.132812 20.128906 -21.382812 19.207031 -23.257812 C 18.402344 -24.898438 17.488281 -25.71875 16.46875 -25.71875 C 15.449219 -25.71875 14.539062 -24.898438 13.734375 -23.257812 C 12.8125 -21.382812 12.351562 -18.132812 12.351562 -13.5 C 12.351562 -8.867188 12.8125 -5.617188 13.734375 -3.742188 C 14.539062 -2.101562 15.449219 -1.28125 16.46875 -1.28125 Z M 16.46875 0.742188 C 14.609375 0.742188 13.089844 -0.453125 11.917969 -2.847656 C 10.855469 -5.003906 10.328125 -8.554688 10.328125 -13.5 C 10.328125 -18.445312 10.855469 -21.996094 11.917969 -24.152344 C 13.089844 -26.546875 14.609375 -27.742188 16.46875 -27.742188 C 18.332031 -27.742188 19.847656 -26.546875 21.023438 -24.152344 C 22.082031 -21.996094 22.613281 -18.445312 22.613281 -13.5 C 22.613281 -8.554688 22.082031 -5.003906 21.023438 -2.847656 C 19.847656 -0.453125 18.332031 0.742188 16.46875 0.742188 Z M 16.46875 0.742188 "/></g></g></g><g fill="#000000" fill-opacity="1"><g transform="translate(145.544909, 45.191195)"><g><path d="M 1.914062 -1.792969 L 5.15625 -2.601562 L 5.398438 -1.621094 L 4.386719 -1.621094 L 4.386719 -25.378906 L 5.398438 -25.378906 L 5.15625 -24.398438 L 1.148438 -25.398438 L 1.148438 -28.011719 L 7.019531 -28.011719 C 9.445312 -28.011719 11.371094 -27.214844 12.796875 -25.625 C 13.34375 -24.992188 13.800781 -24.226562 14.167969 -23.332031 L 13.230469 -22.949219 L 12.394531 -23.519531 C 12.988281 -24.394531 13.71875 -25.183594 14.585938 -25.894531 C 16.578125 -27.484375 18.808594 -28.28125 21.277344 -28.28125 C 23.449219 -28.28125 25.109375 -27.75 26.257812 -26.691406 C 27.425781 -25.609375 28.011719 -24.089844 28.011719 -22.140625 C 28.011719 -20.636719 27.542969 -19.417969 26.609375 -18.480469 C 25.671875 -17.546875 24.453125 -17.078125 22.949219 -17.078125 C 22.398438 -17.078125 21.847656 -17.117188 21.292969 -17.195312 L 21.242188 -17.203125 L 19.777344 -17.570312 L 19.777344 -25.921875 L 20.789062 -25.921875 L 20.789062 -24.90625 C 19.222656 -24.90625 17.78125 -24.28125 16.464844 -23.027344 L 15.769531 -23.761719 L 16.484375 -23.042969 C 15.824219 -22.382812 15.296875 -21.726562 14.910156 -21.078125 L 14.039062 -21.601562 L 15.050781 -21.601562 L 15.050781 -1.621094 L 14.039062 -1.621094 L 14.285156 -2.601562 L 18.292969 -1.601562 L 18.292969 1.011719 L 1.148438 1.011719 L 1.148438 -1.601562 Z M 2.40625 0.171875 L 2.160156 -0.808594 L 3.171875 -0.808594 L 3.171875 0 L 2.160156 0 L 2.160156 -1.011719 L 17.28125 -1.011719 L 17.28125 0 L 16.265625 0 L 16.265625 -0.808594 L 17.28125 -0.808594 L 17.035156 0.171875 L 13.027344 -0.828125 L 13.027344 -21.878906 L 13.171875 -22.121094 C 13.648438 -22.914062 14.273438 -23.695312 15.050781 -24.476562 L 15.0625 -24.484375 L 15.070312 -24.492188 C 16.777344 -26.121094 18.683594 -26.933594 20.789062 -26.933594 L 21.800781 -26.933594 L 21.800781 -18.359375 L 20.789062 -18.359375 L 21.035156 -19.34375 L 21.683594 -19.179688 L 21.4375 -18.199219 L 21.582031 -19.199219 C 22.039062 -19.136719 22.492188 -19.101562 22.949219 -19.101562 C 23.894531 -19.101562 24.636719 -19.371094 25.175781 -19.914062 C 25.71875 -20.453125 25.988281 -21.195312 25.988281 -22.140625 C 25.988281 -23.5 25.617188 -24.523438 24.882812 -25.203125 C 24.121094 -25.90625 22.917969 -26.257812 21.277344 -26.257812 C 19.28125 -26.257812 17.476562 -25.613281 15.871094 -24.328125 C 15.152344 -23.738281 14.550781 -23.089844 14.066406 -22.378906 L 13.003906 -20.824219 L 12.292969 -22.566406 C 12.011719 -23.257812 11.675781 -23.824219 11.289062 -24.273438 C 10.265625 -25.414062 8.84375 -25.988281 7.019531 -25.988281 L 2.160156 -25.988281 L 2.160156 -27 L 3.171875 -27 L 3.171875 -26.191406 L 2.160156 -26.191406 L 2.40625 -27.171875 L 6.414062 -26.171875 L 6.414062 -0.828125 Z M 2.40625 0.171875 "/></g></g></g><g fill="#000000" fill-opacity="1"><g transform="translate(176.054914, 45.191195)"><g><path d="M 16.199219 1.824219 C 13.667969 1.824219 11.457031 1.355469 9.566406 0.421875 C 7.648438 -0.527344 6.171875 -1.839844 5.132812 -3.515625 C 4.097656 -5.191406 3.578125 -7.078125 3.578125 -9.179688 L 3.578125 -25.648438 L 4.589844 -25.648438 L 4.589844 -24.636719 L -0.203125 -24.636719 L -0.203125 -28.011719 L 4.589844 -28.011719 L 4.589844 -27 L 3.578125 -27 L 3.578125 -29.699219 C 3.578125 -31.597656 4.082031 -33.054688 5.089844 -34.0625 C 6.097656 -35.070312 7.550781 -35.574219 9.449219 -35.574219 L 14.242188 -35.574219 L 14.242188 -27 L 13.230469 -27 L 13.230469 -28.011719 L 21.800781 -28.011719 L 21.800781 -24.636719 L 13.230469 -24.636719 L 13.230469 -25.648438 L 14.242188 -25.648438 L 14.242188 -9.179688 C 14.242188 -6.042969 14.542969 -3.941406 15.140625 -2.871094 C 15.628906 -1.992188 16.34375 -1.550781 17.28125 -1.550781 C 18.246094 -1.550781 19.109375 -2.050781 19.878906 -3.046875 C 20.710938 -4.125 21.128906 -5.628906 21.128906 -7.558594 L 21.128906 -8.574219 L 24.503906 -8.574219 L 24.503906 -7.558594 C 24.503906 -4.632812 23.75 -2.34375 22.238281 -0.695312 C 20.707031 0.984375 18.695312 1.824219 16.199219 1.824219 Z M 16.199219 -0.203125 C 18.097656 -0.203125 19.613281 -0.820312 20.746094 -2.058594 C 21.898438 -3.324219 22.476562 -5.15625 22.476562 -7.558594 L 23.488281 -7.558594 L 23.488281 -6.546875 L 22.140625 -6.546875 L 22.140625 -7.558594 L 23.152344 -7.558594 C 23.152344 -5.167969 22.597656 -3.253906 21.484375 -1.8125 C 20.308594 -0.289062 18.90625 0.472656 17.28125 0.472656 C 15.550781 0.472656 14.25 -0.3125 13.371094 -1.882812 C 12.601562 -3.257812 12.21875 -5.691406 12.21875 -9.179688 L 12.21875 -26.664062 L 20.789062 -26.664062 L 20.789062 -25.648438 L 19.777344 -25.648438 L 19.777344 -27 L 20.789062 -27 L 20.789062 -25.988281 L 12.21875 -25.988281 L 12.21875 -34.558594 L 13.230469 -34.558594 L 13.230469 -33.546875 L 9.449219 -33.546875 C 8.109375 -33.546875 7.132812 -33.242188 6.519531 -32.628906 C 5.910156 -32.015625 5.601562 -31.039062 5.601562 -29.699219 L 5.601562 -25.988281 L 0.808594 -25.988281 L 0.808594 -27 L 1.824219 -27 L 1.824219 -25.648438 L 0.808594 -25.648438 L 0.808594 -26.664062 L 5.601562 -26.664062 L 5.601562 -9.179688 C 5.601562 -7.464844 6.019531 -5.933594 6.855469 -4.582031 C 7.6875 -3.234375 8.894531 -2.171875 10.464844 -1.394531 C 12.070312 -0.597656 13.980469 -0.203125 16.199219 -0.203125 Z M 16.199219 -0.203125 "/></g></g></g><g fill="#000000" fill-opacity="1"><g transform="translate(203.054901, 45.191195)"><g><path d="M 1.914062 -1.792969 L 5.15625 -2.601562 L 5.398438 -1.621094 L 4.386719 -1.621094 L 4.386719 -25.378906 L 5.398438 -25.378906 L 5.15625 -24.398438 L 1.148438 -25.398438 L 1.148438 -28.011719 L 9.179688 -28.011719 C 11.078125 -28.011719 12.535156 -27.507812 13.539062 -26.5 C 14.546875 -25.492188 15.050781 -24.039062 15.050781 -22.140625 L 15.050781 -1.621094 L 14.039062 -1.621094 L 14.285156 -2.601562 L 18.292969 -1.601562 L 18.292969 1.011719 L 1.148438 1.011719 L 1.148438 -1.601562 Z M 2.40625 0.171875 L 2.160156 -0.808594 L 3.171875 -0.808594 L 3.171875 0 L 2.160156 0 L 2.160156 -1.011719 L 17.28125 -1.011719 L 17.28125 0 L 16.265625 0 L 16.265625 -0.808594 L 17.28125 -0.808594 L 17.035156 0.171875 L 13.027344 -0.828125 L 13.027344 -22.140625 C 13.027344 -23.480469 12.722656 -24.457031 12.109375 -25.070312 C 11.496094 -25.679688 10.519531 -25.988281 9.179688 -25.988281 L 2.160156 -25.988281 L 2.160156 -27 L 3.171875 -27 L 3.171875 -26.191406 L 2.160156 -26.191406 L 2.40625 -27.171875 L 6.414062 -26.171875 L 6.414062 -0.828125 Z M 9.179688 -29.226562 C 7.820312 -29.226562 6.683594 -29.6875 5.765625 -30.605469 C 4.847656 -31.523438 4.386719 -32.660156 4.386719 -34.019531 C 4.386719 -35.378906 4.847656 -36.519531 5.765625 -37.4375 C 6.683594 -38.355469 7.820312 -38.8125 9.179688 -38.8125 C 10.539062 -38.8125 11.679688 -38.355469 12.597656 -37.4375 C 13.511719 -36.519531 13.972656 -35.378906 13.972656 -34.019531 C 13.972656 -32.660156 13.511719 -31.523438 12.597656 -30.605469 C 11.679688 -29.6875 10.539062 -29.226562 9.179688 -29.226562 Z M 9.179688 -31.253906 C 9.980469 -31.253906 10.640625 -31.511719 11.164062 -32.035156 C 11.6875 -32.558594 11.949219 -33.21875 11.949219 -34.019531 C 11.949219 -34.820312 11.6875 -35.480469 11.164062 -36.003906 C 10.640625 -36.527344 9.980469 -36.789062 9.179688 -36.789062 C 8.378906 -36.789062 7.71875 -36.527344 7.195312 -36.003906 C 6.671875 -35.480469 6.414062 -34.820312 6.414062 -34.019531 C 6.414062 -33.21875 6.671875 -32.558594 7.195312 -32.035156 C 7.71875 -31.511719 8.378906 -31.253906 9.179688 -31.253906 Z M 9.179688 -31.253906 "/></g></g></g><g fill="#000000" fill-opacity="1"><g transform="translate(224.114913, 45.191195)"><g><path d="M 12.691406 1.824219 C 9.25 1.824219 6.574219 1.066406 4.664062 -0.449219 C 2.679688 -2.019531 1.6875 -4.03125 1.6875 -6.480469 C 1.6875 -8.027344 2.023438 -9.550781 2.695312 -11.050781 L 3.617188 -10.636719 L 2.675781 -11.003906 C 2.957031 -11.734375 3.324219 -12.40625 3.773438 -13.019531 L 3.992188 -13.316406 L 4.351562 -13.402344 C 5.851562 -13.769531 7.476562 -14.097656 9.230469 -14.390625 C 13.15625 -15.046875 16.632812 -15.445312 19.660156 -15.589844 L 19.710938 -14.578125 L 18.699219 -14.578125 L 18.699219 -16.199219 C 18.699219 -19.996094 18.265625 -22.570312 17.398438 -23.914062 C 16.628906 -25.117188 15.417969 -25.71875 13.769531 -25.71875 C 13.125 -25.71875 12.582031 -25.644531 12.144531 -25.5 L 11.410156 -25.238281 L 11.070312 -26.191406 L 12.082031 -26.191406 L 12.082031 -17.285156 L 10.546875 -16.929688 L 10.492188 -16.921875 C 9.875 -16.847656 9.347656 -16.808594 8.910156 -16.808594 C 7.40625 -16.808594 6.1875 -17.273438 5.25 -18.210938 C 4.316406 -19.148438 3.847656 -20.367188 3.847656 -21.871094 C 3.847656 -23.882812 4.832031 -25.5625 6.796875 -26.917969 C 8.644531 -28.1875 11.328125 -28.824219 14.851562 -28.824219 C 17.8125 -28.824219 20.382812 -28.292969 22.554688 -27.234375 C 24.769531 -26.160156 26.457031 -24.664062 27.621094 -22.746094 C 28.78125 -20.839844 29.363281 -18.65625 29.363281 -16.199219 L 29.363281 -1.621094 L 28.351562 -1.621094 L 28.59375 -2.601562 L 32.601562 -1.601562 L 32.601562 1.011719 L 26.730469 1.011719 C 24.265625 1.011719 22.339844 0.234375 20.953125 -1.324219 L 21.707031 -1.996094 L 20.96875 -1.308594 C 20.367188 -1.953125 19.898438 -2.753906 19.5625 -3.71875 L 20.519531 -4.050781 L 21.402344 -3.554688 C 20.859375 -2.582031 20.214844 -1.703125 19.472656 -0.921875 L 19.453125 -0.902344 C 17.636719 0.914062 15.382812 1.824219 12.691406 1.824219 Z M 12.691406 -0.203125 C 14.824219 -0.203125 16.601562 -0.914062 18.023438 -2.335938 L 18.738281 -1.621094 L 18.003906 -2.316406 C 18.628906 -2.976562 19.175781 -3.71875 19.636719 -4.542969 L 20.738281 -6.507812 L 21.476562 -4.382812 C 21.71875 -3.6875 22.042969 -3.125 22.449219 -2.6875 L 22.464844 -2.671875 C 23.449219 -1.566406 24.871094 -1.011719 26.730469 -1.011719 L 31.589844 -1.011719 L 31.589844 0 L 30.578125 0 L 30.578125 -0.808594 L 31.589844 -0.808594 L 31.34375 0.171875 L 27.335938 -0.828125 L 27.335938 -16.199219 C 27.335938 -18.277344 26.855469 -20.109375 25.890625 -21.695312 C 24.933594 -23.269531 23.527344 -24.511719 21.667969 -25.414062 C 19.777344 -26.335938 17.503906 -26.796875 14.851562 -26.796875 C 11.746094 -26.796875 9.445312 -26.28125 7.945312 -25.246094 C 6.5625 -24.296875 5.871094 -23.171875 5.871094 -21.871094 C 5.871094 -20.925781 6.144531 -20.183594 6.683594 -19.644531 C 7.222656 -19.101562 7.964844 -18.832031 8.910156 -18.832031 C 9.265625 -18.832031 9.707031 -18.867188 10.242188 -18.933594 L 10.367188 -17.929688 L 10.140625 -18.914062 L 10.84375 -19.078125 L 11.070312 -18.089844 L 10.058594 -18.089844 L 10.058594 -26.902344 L 11.503906 -27.421875 C 12.148438 -27.636719 12.90625 -27.742188 13.769531 -27.742188 C 16.15625 -27.742188 17.933594 -26.832031 19.105469 -25.007812 C 20.183594 -23.332031 20.722656 -20.394531 20.722656 -16.199219 L 20.722656 -13.613281 L 19.757812 -13.570312 C 16.808594 -13.425781 13.410156 -13.035156 9.5625 -12.394531 C 7.859375 -12.109375 6.28125 -11.789062 4.828125 -11.4375 L 4.589844 -12.421875 L 5.40625 -11.820312 C 5.0625 -11.351562 4.78125 -10.835938 4.5625 -10.269531 L 4.550781 -10.246094 L 4.542969 -10.222656 C 3.988281 -8.988281 3.710938 -7.738281 3.710938 -6.480469 C 3.710938 -4.683594 4.449219 -3.199219 5.921875 -2.035156 C 7.464844 -0.8125 9.722656 -0.203125 12.691406 -0.203125 Z M 14.851562 -2.09375 C 15.84375 -2.09375 16.78125 -2.675781 17.65625 -3.847656 C 18.011719 -4.332031 18.390625 -4.996094 18.796875 -5.839844 L 19.710938 -5.398438 L 18.699219 -5.398438 L 18.699219 -13.230469 L 19.710938 -13.230469 L 19.710938 -12.21875 C 18.09375 -12.21875 16.550781 -12.128906 15.078125 -11.953125 C 13.957031 -11.808594 13.191406 -11.71875 12.78125 -11.683594 L 12.691406 -12.691406 L 13.613281 -12.269531 C 13.457031 -11.925781 13.292969 -11.441406 13.128906 -10.8125 C 12.792969 -9.527344 12.621094 -8.265625 12.621094 -7.019531 C 12.621094 -5.199219 12.875 -3.882812 13.386719 -3.078125 C 13.796875 -2.421875 14.285156 -2.09375 14.851562 -2.09375 Z M 14.851562 -0.0664062 C 13.542969 -0.0664062 12.480469 -0.710938 11.671875 -2 C 10.957031 -3.136719 10.597656 -4.808594 10.597656 -7.019531 C 10.597656 -8.4375 10.789062 -9.875 11.171875 -11.328125 C 11.367188 -12.066406 11.566406 -12.660156 11.769531 -13.109375 L 12.011719 -13.644531 L 12.597656 -13.699219 C 12.980469 -13.734375 13.726562 -13.820312 14.839844 -13.964844 C 16.390625 -14.148438 18.015625 -14.242188 19.710938 -14.242188 L 20.722656 -14.242188 L 20.722656 -5.167969 L 20.621094 -4.960938 C 20.164062 -4.003906 19.714844 -3.230469 19.277344 -2.632812 C 17.996094 -0.921875 16.519531 -0.0664062 14.851562 -0.0664062 Z M 14.851562 -0.0664062 "/></g></g></g><g fill="#000000" fill-opacity="1"><g transform="translate(259.484915, 45.191195)"><g><path d="M 1.914062 -1.792969 L 5.15625 -2.601562 L 5.398438 -1.621094 L 4.386719 -1.621094 L 4.386719 -25.378906 L 5.398438 -25.378906 L 5.15625 -24.398438 L 1.148438 -25.398438 L 1.148438 -28.011719 L 7.019531 -28.011719 C 9.445312 -28.011719 11.371094 -27.214844 12.796875 -25.625 C 13.34375 -24.992188 13.800781 -24.226562 14.167969 -23.332031 L 13.230469 -22.949219 L 12.339844 -23.429688 C 12.890625 -24.453125 13.542969 -25.34375 14.296875 -26.097656 C 16.113281 -27.914062 18.367188 -28.824219 21.058594 -28.824219 C 23.242188 -28.824219 25.210938 -28.359375 26.960938 -27.4375 C 28.714844 -26.507812 30.089844 -25.289062 31.085938 -23.777344 C 32.097656 -22.238281 32.601562 -20.613281 32.601562 -18.898438 L 32.601562 -1.621094 L 31.589844 -1.621094 L 31.835938 -2.601562 L 35.84375 -1.601562 L 35.84375 1.011719 L 27.808594 1.011719 C 25.910156 1.011719 24.457031 0.507812 23.449219 -0.5 C 22.441406 -1.507812 21.9375 -2.960938 21.9375 -4.859375 L 21.9375 -18.898438 C 21.9375 -20.960938 21.589844 -22.511719 20.894531 -23.546875 C 20.285156 -24.453125 19.621094 -24.90625 18.898438 -24.90625 C 17.871094 -24.90625 16.914062 -24.324219 16.039062 -23.152344 C 15.625 -22.609375 15.273438 -21.96875 14.984375 -21.230469 L 14.039062 -21.601562 L 15.050781 -21.601562 L 15.050781 -1.621094 L 14.039062 -1.621094 L 14.285156 -2.601562 L 18.292969 -1.601562 L 18.292969 1.011719 L 1.148438 1.011719 L 1.148438 -1.601562 Z M 2.40625 0.171875 L 2.160156 -0.808594 L 3.171875 -0.808594 L 3.171875 0 L 2.160156 0 L 2.160156 -1.011719 L 17.28125 -1.011719 L 17.28125 0 L 16.265625 0 L 16.265625 -0.808594 L 17.28125 -0.808594 L 17.035156 0.171875 L 13.027344 -0.828125 L 13.027344 -21.792969 L 13.097656 -21.96875 C 13.457031 -22.886719 13.894531 -23.683594 14.417969 -24.367188 C 15.699219 -26.078125 17.195312 -26.933594 18.898438 -26.933594 C 20.339844 -26.933594 21.566406 -26.179688 22.574219 -24.675781 C 23.5 -23.296875 23.960938 -21.375 23.960938 -18.898438 L 23.960938 -4.859375 C 23.960938 -3.519531 24.269531 -2.542969 24.882812 -1.929688 C 25.492188 -1.320312 26.46875 -1.011719 27.808594 -1.011719 L 34.828125 -1.011719 L 34.828125 0 L 33.816406 0 L 33.816406 -0.808594 L 34.828125 -0.808594 L 34.585938 0.171875 L 30.578125 -0.828125 L 30.578125 -18.898438 C 30.578125 -20.210938 30.183594 -21.464844 29.394531 -22.664062 C 28.589844 -23.886719 27.460938 -24.878906 26.015625 -25.644531 C 24.558594 -26.414062 22.910156 -26.796875 21.058594 -26.796875 C 18.925781 -26.796875 17.148438 -26.085938 15.726562 -24.664062 C 15.113281 -24.050781 14.578125 -23.320312 14.121094 -22.46875 L 13.105469 -20.582031 L 12.292969 -22.566406 C 12.011719 -23.257812 11.675781 -23.824219 11.289062 -24.273438 C 10.265625 -25.414062 8.84375 -25.988281 7.019531 -25.988281 L 2.160156 -25.988281 L 2.160156 -27 L 3.171875 -27 L 3.171875 -26.191406 L 2.160156 -26.191406 L 2.40625 -27.171875 L 6.414062 -26.171875 L 6.414062 -0.828125 Z M 2.40625 0.171875 "/></g></g></g><g fill="#fff5e5" fill-opacity="1"><g transform="translate(4.604883, 45.191195)"><g><path d="M 2.703125 -0.8125 L 5.9375 -1.625 L 5.9375 -36.1875 L 2.703125 -36.984375 L 2.703125 -37.796875 L 17.015625 -37.796875 C 23.128906 -37.796875 27.535156 -36.867188 30.234375 -35.015625 C 32.941406 -33.160156 34.296875 -30.578125 34.296875 -27.265625 C 34.296875 -25.035156 33.695312 -23.226562 32.5 -21.84375 C 31.3125 -20.457031 29.785156 -19.421875 27.921875 -18.734375 C 25.941406 -17.984375 23.832031 -17.585938 21.59375 -17.546875 L 21.59375 -17.28125 C 22.925781 -17.207031 24.097656 -17.007812 25.109375 -16.6875 C 27.628906 -15.894531 29.335938 -14.472656 30.234375 -12.421875 L 35.09375 -1.625 L 37.796875 -0.8125 L 37.796875 0 L 30.234375 0 C 27.285156 0 25.128906 -1.53125 23.765625 -4.59375 L 18.359375 -16.734375 L 14.84375 -16.734375 L 14.84375 -1.625 L 18.625 -0.8125 L 18.625 0 L 2.703125 0 Z M 17.015625 -18.09375 C 19.535156 -18.09375 21.515625 -18.882812 22.953125 -20.46875 C 24.390625 -22.050781 25.109375 -24.316406 25.109375 -27.265625 C 25.109375 -30.222656 24.390625 -32.492188 22.953125 -34.078125 C 21.515625 -35.660156 19.535156 -36.453125 17.015625 -36.453125 L 14.84375 -36.453125 L 14.84375 -18.09375 Z M 17.015625 -18.09375 "/></g></g></g><g fill="#fff5e5" fill-opacity="1"><g transform="translate(45.104892, 45.191195)"><g><path d="M 16.734375 0.8125 C 12.128906 0.8125 8.546875 -0.453125 5.984375 -2.984375 C 3.429688 -5.523438 2.15625 -9.03125 2.15625 -13.5 C 2.15625 -16.414062 2.710938 -18.953125 3.828125 -21.109375 C 4.953125 -23.273438 6.507812 -24.929688 8.5 -26.078125 C 10.5 -27.234375 12.796875 -27.8125 15.390625 -27.8125 C 17.984375 -27.8125 20.257812 -27.320312 22.21875 -26.34375 C 24.175781 -25.375 25.6875 -24.070312 26.75 -22.4375 C 27.8125 -20.800781 28.34375 -18.992188 28.34375 -17.015625 C 28.34375 -16.109375 28.253906 -15.332031 28.078125 -14.6875 L 27.8125 -13.765625 C 26.257812 -13.441406 24.582031 -13.171875 22.78125 -12.953125 C 19.007812 -12.421875 15.195312 -12.15625 11.34375 -12.15625 C 11.34375 -7.976562 11.914062 -5 13.0625 -3.21875 C 14.21875 -1.4375 15.800781 -0.546875 17.8125 -0.546875 C 19.21875 -0.546875 20.523438 -0.875 21.734375 -1.53125 C 22.941406 -2.195312 23.894531 -3.078125 24.59375 -4.171875 C 25.300781 -5.273438 25.65625 -6.40625 25.65625 -7.5625 L 27 -7.5625 C 27 -6.125 26.566406 -4.753906 25.703125 -3.453125 C 24.835938 -2.160156 23.628906 -1.125 22.078125 -0.34375 C 20.535156 0.425781 18.753906 0.8125 16.734375 0.8125 Z M 11.34375 -13.5 C 13.644531 -13.5 15.515625 -13.585938 16.953125 -13.765625 C 17.566406 -13.804688 18.21875 -13.898438 18.90625 -14.046875 C 18.9375 -14.222656 19.023438 -14.617188 19.171875 -15.234375 C 19.347656 -16.128906 19.4375 -17.082031 19.4375 -18.09375 C 19.4375 -21.082031 19.039062 -23.269531 18.25 -24.65625 C 17.457031 -26.039062 16.503906 -26.734375 15.390625 -26.734375 C 12.691406 -26.734375 11.34375 -22.320312 11.34375 -13.5 Z M 11.34375 -13.5 "/></g></g></g><g fill="#fff5e5" fill-opacity="1"><g transform="translate(78.044901, 45.191195)"><g><path d="M 14.84375 0.8125 C 12.613281 0.8125 10.617188 0.328125 8.859375 -0.640625 C 7.992188 -1.109375 7.289062 -1.613281 6.75 -2.15625 C 6.175781 -1.363281 5.546875 -0.753906 4.859375 -0.328125 C 4.535156 -0.109375 4.175781 0.0859375 3.78125 0.265625 L 2.4375 0.265625 L 2.4375 -8.90625 L 4.59375 -8.90625 C 5.0625 -7.394531 5.742188 -5.992188 6.640625 -4.703125 C 8.546875 -1.929688 10.921875 -0.546875 13.765625 -0.546875 C 15.273438 -0.546875 16.414062 -0.910156 17.1875 -1.640625 C 17.96875 -2.378906 18.359375 -3.453125 18.359375 -4.859375 C 18.359375 -6.046875 17.828125 -7.046875 16.765625 -7.859375 C 15.703125 -8.671875 14.035156 -9.671875 11.765625 -10.859375 C 9.828125 -11.828125 8.253906 -12.695312 7.046875 -13.46875 C 5.835938 -14.25 4.8125 -15.222656 3.96875 -16.390625 C 3.125 -17.554688 2.703125 -18.929688 2.703125 -20.515625 C 2.703125 -22.679688 3.628906 -24.4375 5.484375 -25.78125 C 7.335938 -27.132812 10.191406 -27.8125 14.046875 -27.8125 C 15.953125 -27.8125 17.710938 -27.304688 19.328125 -26.296875 C 20.117188 -25.828125 20.804688 -25.34375 21.390625 -24.84375 C 21.859375 -25.488281 22.488281 -26.097656 23.28125 -26.671875 C 23.882812 -27.035156 24.242188 -27.234375 24.359375 -27.265625 L 25.703125 -27.265625 L 25.703125 -18.09375 L 23.546875 -18.09375 C 23.003906 -19.632812 22.335938 -21.019531 21.546875 -22.25 C 19.742188 -25.050781 17.601562 -26.453125 15.125 -26.453125 C 14.144531 -26.453125 13.3125 -26.09375 12.625 -25.375 C 11.945312 -24.65625 11.609375 -23.757812 11.609375 -22.6875 C 11.609375 -21.3125 12.179688 -20.164062 13.328125 -19.25 C 14.484375 -18.332031 16.234375 -17.28125 18.578125 -16.09375 C 20.484375 -15.125 22.003906 -14.269531 23.140625 -13.53125 C 24.273438 -12.789062 25.242188 -11.878906 26.046875 -10.796875 C 26.859375 -9.722656 27.265625 -8.460938 27.265625 -7.015625 C 27.265625 -1.796875 23.125 0.8125 14.84375 0.8125 Z M 14.84375 0.8125 "/></g></g></g><g fill="#fff5e5" fill-opacity="1"><g transform="translate(109.904908, 45.191195)"><g><path d="M 16.46875 0.8125 C 12.007812 0.8125 8.507812 -0.453125 5.96875 -2.984375 C 3.425781 -5.523438 2.15625 -9.03125 2.15625 -13.5 C 2.15625 -17.96875 3.425781 -21.46875 5.96875 -24 C 8.507812 -26.539062 12.007812 -27.8125 16.46875 -27.8125 C 20.9375 -27.8125 24.4375 -26.539062 26.96875 -24 C 29.507812 -21.46875 30.78125 -17.96875 30.78125 -13.5 C 30.78125 -9.03125 29.507812 -5.523438 26.96875 -2.984375 C 24.4375 -0.453125 20.9375 0.8125 16.46875 0.8125 Z M 16.46875 -0.265625 C 17.90625 -0.265625 19.117188 -1.269531 20.109375 -3.28125 C 21.097656 -5.300781 21.59375 -8.707031 21.59375 -13.5 C 21.59375 -18.289062 21.097656 -21.691406 20.109375 -23.703125 C 19.117188 -25.722656 17.90625 -26.734375 16.46875 -26.734375 C 15.03125 -26.734375 13.816406 -25.722656 12.828125 -23.703125 C 11.835938 -21.691406 11.34375 -18.289062 11.34375 -13.5 C 11.34375 -8.707031 11.835938 -5.300781 12.828125 -3.28125 C 13.816406 -1.269531 15.03125 -0.265625 16.46875 -0.265625 Z M 16.46875 -0.265625 "/></g></g></g><g fill="#fff5e5" fill-opacity="1"><g transform="translate(145.544909, 45.191195)"><g><path d="M 2.15625 -0.8125 L 5.40625 -1.625 L 5.40625 -25.375 L 2.15625 -26.1875 L 2.15625 -27 L 7.015625 -27 C 9.140625 -27 10.816406 -26.316406 12.046875 -24.953125 C 12.515625 -24.410156 12.910156 -23.742188 13.234375 -22.953125 C 13.773438 -23.742188 14.441406 -24.460938 15.234375 -25.109375 C 17.023438 -26.546875 19.039062 -27.265625 21.28125 -27.265625 C 23.1875 -27.265625 24.613281 -26.820312 25.5625 -25.9375 C 26.519531 -25.0625 27 -23.796875 27 -22.140625 C 27 -20.910156 26.628906 -19.925781 25.890625 -19.1875 C 25.148438 -18.457031 24.171875 -18.09375 22.953125 -18.09375 C 22.441406 -18.09375 21.9375 -18.128906 21.4375 -18.203125 L 20.796875 -18.359375 L 20.796875 -25.921875 C 18.953125 -25.921875 17.273438 -25.203125 15.765625 -23.765625 C 15.046875 -23.046875 14.472656 -22.320312 14.046875 -21.59375 L 14.046875 -1.625 L 17.28125 -0.8125 L 17.28125 0 L 2.15625 0 Z M 2.15625 -0.8125 "/></g></g></g><g fill="#fff5e5" fill-opacity="1"><g transform="translate(176.054914, 45.191195)"><g><path d="M 16.203125 0.8125 C 13.828125 0.8125 11.765625 0.378906 10.015625 -0.484375 C 8.265625 -1.347656 6.921875 -2.535156 5.984375 -4.046875 C 5.054688 -5.554688 4.59375 -7.269531 4.59375 -9.1875 L 4.59375 -25.65625 L 0.8125 -25.65625 L 0.8125 -27 L 4.59375 -27 L 4.59375 -29.703125 C 4.59375 -32.941406 6.210938 -34.5625 9.453125 -34.5625 L 13.234375 -34.5625 L 13.234375 -27 L 20.796875 -27 L 20.796875 -25.65625 L 13.234375 -25.65625 L 13.234375 -9.1875 C 13.234375 -5.875 13.570312 -3.601562 14.25 -2.375 C 14.9375 -1.15625 15.945312 -0.546875 17.28125 -0.546875 C 18.570312 -0.546875 19.703125 -1.171875 20.671875 -2.421875 C 21.648438 -3.679688 22.140625 -5.394531 22.140625 -7.5625 L 23.484375 -7.5625 C 23.484375 -4.894531 22.816406 -2.832031 21.484375 -1.375 C 20.160156 0.0820312 18.398438 0.8125 16.203125 0.8125 Z M 16.203125 0.8125 "/></g></g></g><g fill="#fff5e5" fill-opacity="1"><g transform="translate(203.054901, 45.191195)"><g><path d="M 2.15625 -0.8125 L 5.40625 -1.625 L 5.40625 -25.375 L 2.15625 -26.1875 L 2.15625 -27 L 9.1875 -27 C 12.425781 -27 14.046875 -25.378906 14.046875 -22.140625 L 14.046875 -1.625 L 17.28125 -0.8125 L 17.28125 0 L 2.15625 0 Z M 9.1875 -30.234375 C 8.101562 -30.234375 7.203125 -30.59375 6.484375 -31.3125 C 5.765625 -32.039062 5.40625 -32.941406 5.40625 -34.015625 C 5.40625 -35.097656 5.765625 -36 6.484375 -36.71875 C 7.203125 -37.4375 8.101562 -37.796875 9.1875 -37.796875 C 10.269531 -37.796875 11.171875 -37.4375 11.890625 -36.71875 C 12.609375 -36 12.96875 -35.097656 12.96875 -34.015625 C 12.96875 -32.941406 12.609375 -32.039062 11.890625 -31.3125 C 11.171875 -30.59375 10.269531 -30.234375 9.1875 -30.234375 Z M 9.1875 -30.234375 "/></g></g></g><g fill="#fff5e5" fill-opacity="1"><g transform="translate(224.114913, 45.191195)"><g><path d="M 12.6875 0.8125 C 9.488281 0.8125 7.023438 0.128906 5.296875 -1.234375 C 3.566406 -2.609375 2.703125 -4.359375 2.703125 -6.484375 C 2.703125 -7.890625 3.007812 -9.273438 3.625 -10.640625 C 3.875 -11.285156 4.195312 -11.878906 4.59375 -12.421875 C 6.0625 -12.773438 7.660156 -13.097656 9.390625 -13.390625 C 13.285156 -14.035156 16.722656 -14.429688 19.703125 -14.578125 L 19.703125 -16.203125 C 19.703125 -20.191406 19.21875 -22.941406 18.25 -24.453125 C 17.28125 -25.972656 15.785156 -26.734375 13.765625 -26.734375 C 13.015625 -26.734375 12.367188 -26.640625 11.828125 -26.453125 L 11.0625 -26.1875 L 11.0625 -18.09375 L 10.375 -17.921875 C 9.789062 -17.847656 9.300781 -17.8125 8.90625 -17.8125 C 7.6875 -17.8125 6.707031 -18.179688 5.96875 -18.921875 C 5.226562 -19.660156 4.859375 -20.644531 4.859375 -21.875 C 4.859375 -23.53125 5.691406 -24.929688 7.359375 -26.078125 C 9.035156 -27.234375 11.53125 -27.8125 14.84375 -27.8125 C 17.65625 -27.8125 20.078125 -27.316406 22.109375 -26.328125 C 24.140625 -25.335938 25.6875 -23.96875 26.75 -22.21875 C 27.8125 -20.476562 28.34375 -18.472656 28.34375 -16.203125 L 28.34375 -1.625 L 31.59375 -0.8125 L 31.59375 0 L 26.734375 0 C 24.566406 0 22.890625 -0.664062 21.703125 -2 C 21.203125 -2.539062 20.804688 -3.222656 20.515625 -4.046875 C 20.015625 -3.148438 19.421875 -2.34375 18.734375 -1.625 C 17.117188 0 15.101562 0.8125 12.6875 0.8125 Z M 14.84375 -1.078125 C 16.175781 -1.078125 17.382812 -1.796875 18.46875 -3.234375 C 18.863281 -3.773438 19.273438 -4.5 19.703125 -5.40625 L 19.703125 -13.234375 C 18.046875 -13.234375 16.460938 -13.140625 14.953125 -12.953125 C 13.835938 -12.816406 13.082031 -12.726562 12.6875 -12.6875 C 12.507812 -12.289062 12.332031 -11.75 12.15625 -11.0625 C 11.789062 -9.695312 11.609375 -8.347656 11.609375 -7.015625 C 11.609375 -5.003906 11.914062 -3.507812 12.53125 -2.53125 C 13.144531 -1.5625 13.914062 -1.078125 14.84375 -1.078125 Z M 14.84375 -1.078125 "/></g></g></g><g fill="#fff5e5" fill-opacity="1"><g transform="translate(259.484915, 45.191195)"><g><path d="M 2.15625 -0.8125 L 5.40625 -1.625 L 5.40625 -25.375 L 2.15625 -26.1875 L 2.15625 -27 L 7.015625 -27 C 9.140625 -27 10.816406 -26.316406 12.046875 -24.953125 C 12.515625 -24.410156 12.910156 -23.742188 13.234375 -22.953125 C 13.734375 -23.890625 14.328125 -24.695312 15.015625 -25.375 C 16.628906 -27 18.644531 -27.8125 21.0625 -27.8125 C 23.070312 -27.8125 24.878906 -27.382812 26.484375 -26.53125 C 28.085938 -25.6875 29.335938 -24.582031 30.234375 -23.21875 C 31.140625 -21.851562 31.59375 -20.414062 31.59375 -18.90625 L 31.59375 -1.625 L 34.828125 -0.8125 L 34.828125 0 L 27.8125 0 C 24.570312 0 22.953125 -1.617188 22.953125 -4.859375 L 22.953125 -18.90625 C 22.953125 -21.164062 22.546875 -22.898438 21.734375 -24.109375 C 20.921875 -25.316406 19.976562 -25.921875 18.90625 -25.921875 C 17.53125 -25.921875 16.304688 -25.203125 15.234375 -23.765625 C 14.765625 -23.148438 14.367188 -22.425781 14.046875 -21.59375 L 14.046875 -1.625 L 17.28125 -0.8125 L 17.28125 0 L 2.15625 0 Z M 2.15625 -0.8125 "/></g></g></g></svg>