<svg xmlns="http://www.w3.org/2000/svg" xmlns:xlink="http://www.w3.org/1999/xlink" width="400" zoomAndPan="magnify" viewBox="0 0 300 60" height="80" preserveAspectRatio="xMidYMid meet" version="1.0"><defs><g/></defs><g fill="#e06054" fill-opacity="1"><g transform="translate(2.541202, 48)"><g><path d="M 2.488281 -1.816406 L 5.777344 -2.640625 L 6.023438 -1.644531 L 4.996094 -1.644531 L 4.996094 -36.699219 L 6.023438 -36.699219 L 5.777344 -35.703125 L 1.710938 -36.71875 L 1.710938 -39.367188 L 17.253906 -39.367188 C 23.671875 -39.367188 28.339844 -38.367188 31.253906 -36.367188 C 34.289062 -34.28125 35.808594 -31.378906 35.808594 -27.660156 C 35.808594 -25.144531 35.121094 -23.085938 33.753906 -21.488281 C 32.429688 -19.945312 30.738281 -18.796875 28.667969 -18.042969 C 26.558594 -17.234375 24.308594 -16.8125 21.925781 -16.773438 L 21.910156 -17.800781 L 22.9375 -17.800781 L 22.9375 -17.527344 L 21.910156 -17.527344 L 21.964844 -18.550781 C 23.402344 -18.476562 24.675781 -18.257812 25.785156 -17.902344 C 28.632812 -17.007812 30.574219 -15.375 31.613281 -13.011719 L 36.539062 -2.066406 L 35.601562 -1.644531 L 35.898438 -2.625 L 39.367188 -1.585938 L 39.367188 1.027344 L 30.671875 1.027344 C 28.957031 1.027344 27.464844 0.574219 26.191406 -0.324219 C 24.941406 -1.210938 23.933594 -2.511719 23.164062 -4.238281 L 17.683594 -16.5625 L 18.621094 -16.980469 L 18.621094 -15.953125 L 15.0625 -15.953125 L 15.0625 -16.980469 L 16.089844 -16.980469 L 16.089844 -1.644531 L 15.0625 -1.644531 L 15.277344 -2.648438 L 19.921875 -1.652344 L 19.921875 1.027344 L 1.710938 1.027344 L 1.710938 -1.625 Z M 2.988281 0.175781 L 2.738281 -0.820312 L 3.765625 -0.820312 L 3.765625 0 L 2.738281 0 L 2.738281 -1.027344 L 18.898438 -1.027344 L 18.898438 0 L 17.871094 0 L 17.871094 -0.820312 L 18.898438 -0.820312 L 18.679688 0.183594 L 14.035156 -0.8125 L 14.035156 -18.007812 L 19.289062 -18.007812 L 25.039062 -5.074219 C 25.65625 -3.695312 26.433594 -2.667969 27.378906 -2.003906 C 28.296875 -1.351562 29.394531 -1.027344 30.671875 -1.027344 L 38.339844 -1.027344 L 38.339844 0 L 37.3125 0 L 37.3125 -0.820312 L 38.339844 -0.820312 L 38.046875 0.160156 L 34.859375 -0.792969 L 29.730469 -12.183594 C 28.945312 -13.980469 27.417969 -15.234375 25.15625 -15.945312 C 24.214844 -16.25 23.117188 -16.433594 21.855469 -16.5 L 20.882812 -16.554688 L 20.882812 -18.8125 L 21.890625 -18.828125 C 24.035156 -18.863281 26.058594 -19.242188 27.964844 -19.96875 C 29.695312 -20.601562 31.105469 -21.554688 32.191406 -22.824219 C 33.234375 -24.039062 33.753906 -25.648438 33.753906 -27.660156 C 33.753906 -30.660156 32.53125 -32.996094 30.089844 -34.671875 C 27.527344 -36.433594 23.25 -37.3125 17.253906 -37.3125 L 2.738281 -37.3125 L 2.738281 -38.339844 L 3.765625 -38.339844 L 3.765625 -37.519531 L 2.738281 -37.519531 L 2.988281 -38.515625 L 7.050781 -37.5 L 7.050781 -0.839844 Z M 17.253906 -19.375 C 19.507812 -19.375 21.261719 -20.066406 22.519531 -21.449219 C 23.800781 -22.859375 24.441406 -24.929688 24.441406 -27.660156 C 24.441406 -30.390625 23.800781 -32.460938 22.519531 -33.871094 C 21.261719 -35.253906 19.507812 -35.945312 17.253906 -35.945312 L 15.0625 -35.945312 L 15.0625 -36.972656 L 16.089844 -36.972656 L 16.089844 -18.347656 L 15.0625 -18.347656 L 15.0625 -19.375 Z M 17.253906 -17.320312 L 14.035156 -17.320312 L 14.035156 -38 L 17.253906 -38 C 20.113281 -38 22.375 -37.082031 24.039062 -35.253906 C 25.675781 -33.449219 26.496094 -30.917969 26.496094 -27.660156 C 26.496094 -24.402344 25.675781 -21.871094 24.039062 -20.066406 C 22.375 -18.238281 20.113281 -17.320312 17.253906 -17.320312 Z M 17.253906 -17.320312 "/></g></g></g><g fill="#e06054" fill-opacity="1"><g transform="translate(43.613085, 48)"><g><path d="M 16.980469 1.847656 C 12.023438 1.847656 8.148438 0.460938 5.355469 -2.3125 C 2.5625 -5.085938 1.164062 -8.878906 1.164062 -13.691406 C 1.164062 -16.816406 1.769531 -19.546875 2.976562 -21.886719 C 4.199219 -24.257812 5.914062 -26.074219 8.113281 -27.34375 C 10.300781 -28.605469 12.796875 -29.234375 15.609375 -29.234375 C 18.398438 -29.234375 20.859375 -28.707031 22.996094 -27.648438 C 25.152344 -26.578125 26.820312 -25.136719 28 -23.316406 C 29.1875 -21.484375 29.78125 -19.464844 29.78125 -17.253906 C 29.78125 -16.246094 29.679688 -15.371094 29.472656 -14.625 L 29.019531 -13.085938 L 28.417969 -12.960938 C 26.820312 -12.628906 25.089844 -12.347656 23.238281 -12.125 L 23.113281 -13.144531 L 23.257812 -12.128906 C 19.378906 -11.574219 15.457031 -11.296875 11.503906 -11.296875 L 11.503906 -12.324219 L 12.527344 -12.324219 C 12.527344 -8.289062 13.058594 -5.453125 14.117188 -3.816406 C 15.082031 -2.320312 16.402344 -1.574219 18.074219 -1.574219 C 19.324219 -1.574219 20.480469 -1.871094 21.550781 -2.460938 C 22.621094 -3.050781 23.464844 -3.832031 24.082031 -4.796875 C 24.6875 -5.742188 24.988281 -6.699219 24.988281 -7.667969 L 24.988281 -8.695312 L 28.414062 -8.695312 L 28.414062 -7.667969 C 28.414062 -6 27.917969 -4.421875 26.925781 -2.9375 C 25.949219 -1.46875 24.59375 -0.304688 22.859375 0.5625 C 21.148438 1.417969 19.1875 1.847656 16.980469 1.847656 Z M 16.980469 -0.207031 C 18.863281 -0.207031 20.515625 -0.5625 21.941406 -1.273438 C 23.351562 -1.976562 24.441406 -2.910156 25.21875 -4.074219 C 25.980469 -5.21875 26.359375 -6.414062 26.359375 -7.667969 L 27.386719 -7.667969 L 27.386719 -6.640625 L 26.015625 -6.640625 L 26.015625 -7.667969 L 27.042969 -7.667969 C 27.042969 -6.300781 26.632812 -4.972656 25.8125 -3.691406 C 25.007812 -2.429688 23.917969 -1.421875 22.542969 -0.660156 C 21.164062 0.0976562 19.675781 0.480469 18.074219 0.480469 C 15.65625 0.480469 13.761719 -0.582031 12.390625 -2.703125 C 11.113281 -4.679688 10.476562 -7.886719 10.476562 -12.324219 L 10.476562 -13.351562 L 11.503906 -13.351562 C 15.359375 -13.351562 19.183594 -13.621094 22.96875 -14.160156 L 22.980469 -14.164062 L 22.992188 -14.164062 C 24.789062 -14.378906 26.457031 -14.648438 27.996094 -14.972656 L 28.207031 -13.96875 L 27.222656 -14.257812 L 27.492188 -15.171875 C 27.648438 -15.742188 27.730469 -16.433594 27.730469 -17.253906 C 27.730469 -19.058594 27.246094 -20.707031 26.277344 -22.199219 C 25.304688 -23.703125 23.90625 -24.90625 22.082031 -25.808594 C 20.238281 -26.722656 18.078125 -27.179688 15.609375 -27.179688 C 13.164062 -27.179688 11.007812 -26.640625 9.140625 -25.566406 C 7.289062 -24.496094 5.839844 -22.957031 4.800781 -20.945312 C 3.746094 -18.902344 3.21875 -16.484375 3.21875 -13.691406 C 3.21875 -9.449219 4.414062 -6.140625 6.804688 -3.769531 C 9.195312 -1.394531 12.585938 -0.207031 16.980469 -0.207031 Z M 11.503906 -14.71875 C 13.796875 -14.71875 15.652344 -14.808594 17.070312 -14.984375 L 17.105469 -14.988281 L 17.136719 -14.992188 C 17.707031 -15.027344 18.316406 -15.109375 18.957031 -15.246094 L 19.171875 -14.242188 L 18.164062 -14.441406 C 18.203125 -14.636719 18.296875 -15.050781 18.445312 -15.679688 L 19.445312 -15.445312 L 18.4375 -15.648438 C 18.605469 -16.492188 18.691406 -17.394531 18.691406 -18.347656 C 18.691406 -21.199219 18.335938 -23.246094 17.621094 -24.492188 C 17.015625 -25.554688 16.34375 -26.085938 15.609375 -26.085938 C 14.746094 -26.085938 14.046875 -25.210938 13.511719 -23.457031 C 12.855469 -21.320312 12.527344 -18.0625 12.527344 -13.691406 L 11.503906 -13.691406 Z M 11.503906 -12.667969 L 10.476562 -12.667969 L 10.476562 -13.691406 C 10.476562 -18.269531 10.832031 -21.722656 11.546875 -24.058594 C 12.378906 -26.777344 13.734375 -28.140625 15.609375 -28.140625 C 17.140625 -28.140625 18.40625 -27.265625 19.40625 -25.511719 C 20.296875 -23.949219 20.746094 -21.5625 20.746094 -18.347656 C 20.746094 -17.257812 20.648438 -16.222656 20.453125 -15.246094 L 20.449219 -15.226562 L 20.445312 -15.210938 C 20.300781 -14.601562 20.210938 -14.210938 20.175781 -14.039062 L 20.042969 -13.375 L 19.382812 -13.234375 C 18.636719 -13.078125 17.929688 -12.980469 17.257812 -12.941406 L 17.199219 -13.96875 L 17.324219 -12.949219 C 15.824219 -12.761719 13.882812 -12.667969 11.503906 -12.667969 Z M 11.503906 -12.667969 "/></g></g></g><g fill="#e06054" fill-opacity="1"><g transform="translate(77.01833, 48)"><g><path d="M 15.0625 1.847656 C 12.621094 1.847656 10.429688 1.3125 8.488281 0.242188 C 7.527344 -0.277344 6.738281 -0.847656 6.121094 -1.464844 L 6.847656 -2.191406 L 7.675781 -1.585938 C 7.015625 -0.675781 6.28125 0.03125 5.476562 0.539062 L 4.929688 -0.328125 L 5.5 0.527344 C 5.125 0.777344 4.710938 1.003906 4.257812 1.207031 L 4.054688 1.300781 L 1.4375 1.300781 L 1.4375 -10.066406 L 5.414062 -10.066406 L 5.636719 -9.339844 C 6.082031 -7.910156 6.726562 -6.578125 7.582031 -5.351562 C 9.3125 -2.832031 11.441406 -1.574219 13.96875 -1.574219 C 15.226562 -1.574219 16.148438 -1.855469 16.738281 -2.414062 C 17.308594 -2.960938 17.59375 -3.796875 17.59375 -4.929688 C 17.59375 -5.796875 17.191406 -6.535156 16.382812 -7.152344 C 15.351562 -7.9375 13.714844 -8.921875 11.464844 -10.097656 C 9.472656 -11.097656 7.847656 -11.996094 6.59375 -12.800781 C 5.261719 -13.65625 4.128906 -14.730469 3.195312 -16.023438 C 2.207031 -17.386719 1.710938 -18.984375 1.710938 -20.8125 C 1.710938 -23.351562 2.792969 -25.410156 4.953125 -26.984375 C 7.015625 -28.484375 10.109375 -29.234375 14.242188 -29.234375 C 16.371094 -29.234375 18.34375 -28.671875 20.152344 -27.546875 L 19.609375 -26.675781 L 20.132812 -27.558594 C 20.988281 -27.050781 21.734375 -26.519531 22.367188 -25.96875 L 21.691406 -25.195312 L 20.855469 -25.796875 C 21.394531 -26.542969 22.109375 -27.238281 23.003906 -27.886719 L 23.042969 -27.917969 L 23.085938 -27.941406 C 23.769531 -28.34375 24.199219 -28.574219 24.378906 -28.632812 L 24.535156 -28.6875 L 27.097656 -28.6875 L 27.097656 -17.320312 L 23.152344 -17.320312 L 22.910156 -18.011719 C 22.390625 -19.503906 21.75 -20.835938 20.992188 -22.007812 C 19.367188 -24.542969 17.480469 -25.8125 15.335938 -25.8125 C 14.644531 -25.8125 14.050781 -25.554688 13.5625 -25.035156 C 13.054688 -24.503906 12.804688 -23.828125 12.804688 -23.003906 C 12.804688 -21.945312 13.257812 -21.054688 14.167969 -20.328125 C 15.28125 -19.441406 16.996094 -18.410156 19.308594 -17.238281 C 21.273438 -16.234375 22.847656 -15.347656 24.03125 -14.582031 C 25.28125 -13.765625 26.355469 -12.761719 27.25 -11.570312 C 28.207031 -10.292969 28.6875 -8.808594 28.6875 -7.121094 C 28.6875 -4.09375 27.476562 -1.820312 25.058594 -0.296875 C 22.792969 1.132812 19.460938 1.847656 15.0625 1.847656 Z M 15.0625 -0.207031 C 19.0625 -0.207031 22.03125 -0.816406 23.964844 -2.03125 C 25.742188 -3.15625 26.632812 -4.851562 26.632812 -7.121094 C 26.632812 -8.351562 26.289062 -9.425781 25.605469 -10.339844 C 24.855469 -11.335938 23.957031 -12.175781 22.910156 -12.859375 C 21.789062 -13.589844 20.277344 -14.4375 18.375 -15.40625 C 15.941406 -16.644531 14.113281 -17.75 12.890625 -18.722656 C 11.460938 -19.859375 10.75 -21.285156 10.75 -23.003906 C 10.75 -24.375 11.191406 -25.523438 12.070312 -26.449219 C 12.96875 -27.394531 14.054688 -27.867188 15.335938 -27.867188 C 18.230469 -27.867188 20.691406 -26.285156 22.714844 -23.125 C 23.5625 -21.8125 24.277344 -20.335938 24.851562 -18.6875 L 23.878906 -18.347656 L 23.878906 -19.375 L 26.070312 -19.375 L 26.070312 -18.347656 L 25.042969 -18.347656 L 25.042969 -27.660156 L 26.070312 -27.660156 L 26.070312 -26.632812 L 24.703125 -26.632812 L 24.703125 -27.660156 L 25.027344 -26.6875 C 24.984375 -26.671875 24.6875 -26.5 24.128906 -26.171875 L 23.605469 -27.058594 L 24.210938 -26.226562 C 23.496094 -25.707031 22.933594 -25.164062 22.523438 -24.59375 L 21.863281 -23.679688 L 21.011719 -24.421875 C 20.476562 -24.890625 19.835938 -25.347656 19.085938 -25.789062 L 19.074219 -25.796875 L 19.066406 -25.800781 C 17.589844 -26.722656 15.980469 -27.179688 14.242188 -27.179688 C 10.554688 -27.179688 7.863281 -26.5625 6.164062 -25.324219 C 4.566406 -24.160156 3.765625 -22.65625 3.765625 -20.8125 C 3.765625 -19.429688 4.128906 -18.230469 4.859375 -17.226562 C 5.640625 -16.144531 6.589844 -15.246094 7.703125 -14.53125 C 8.894531 -13.765625 10.464844 -12.894531 12.417969 -11.917969 C 14.769531 -10.6875 16.507812 -9.644531 17.628906 -8.785156 C 18.976562 -7.757812 19.648438 -6.472656 19.648438 -4.929688 C 19.648438 -3.210938 19.152344 -1.878906 18.152344 -0.925781 C 17.171875 0.0117188 15.773438 0.480469 13.96875 0.480469 C 10.722656 0.480469 8.03125 -1.074219 5.894531 -4.179688 C 4.921875 -5.582031 4.179688 -7.097656 3.675781 -8.734375 L 4.65625 -9.039062 L 4.65625 -8.011719 L 2.464844 -8.011719 L 2.464844 -9.039062 L 3.492188 -9.039062 L 3.492188 0.273438 L 2.464844 0.273438 L 2.464844 -0.753906 L 3.835938 -0.753906 L 3.835938 0.273438 L 3.410156 -0.660156 C 3.761719 -0.820312 4.078125 -0.996094 4.359375 -1.183594 L 4.371094 -1.191406 L 4.382812 -1.195312 C 4.964844 -1.566406 5.507812 -2.097656 6.015625 -2.796875 L 6.722656 -3.765625 L 7.574219 -2.917969 C 8.050781 -2.441406 8.683594 -1.988281 9.476562 -1.558594 C 11.113281 -0.65625 12.976562 -0.207031 15.0625 -0.207031 Z M 15.0625 -0.207031 "/></g></g></g><g fill="#e06054" fill-opacity="1"><g transform="translate(109.32833, 48)"><g><path d="M 16.707031 1.847656 C 11.894531 1.847656 8.101562 0.460938 5.324219 -2.3125 C 2.550781 -5.089844 1.164062 -8.882812 1.164062 -13.691406 C 1.164062 -18.503906 2.550781 -22.296875 5.324219 -25.074219 C 8.101562 -27.847656 11.894531 -29.234375 16.707031 -29.234375 C 21.515625 -29.234375 25.308594 -27.847656 28.085938 -25.074219 C 30.859375 -22.296875 32.246094 -18.503906 32.246094 -13.691406 C 32.246094 -8.882812 30.859375 -5.089844 28.085938 -2.3125 C 25.308594 0.460938 21.515625 1.847656 16.707031 1.847656 Z M 16.707031 -0.207031 C 20.949219 -0.207031 24.257812 -1.390625 26.632812 -3.765625 C 29.007812 -6.140625 30.191406 -9.449219 30.191406 -13.691406 C 30.191406 -17.9375 29.007812 -21.246094 26.632812 -23.621094 C 24.257812 -25.992188 20.949219 -27.179688 16.707031 -27.179688 C 12.460938 -27.179688 9.152344 -25.992188 6.777344 -23.621094 C 4.40625 -21.246094 3.21875 -17.9375 3.21875 -13.691406 C 3.21875 -9.449219 4.40625 -6.140625 6.777344 -3.765625 C 9.152344 -1.390625 12.460938 -0.207031 16.707031 -0.207031 Z M 16.707031 -1.300781 C 17.738281 -1.300781 18.664062 -2.132812 19.480469 -3.792969 C 20.414062 -5.695312 20.882812 -8.996094 20.882812 -13.691406 C 20.882812 -18.390625 20.414062 -21.691406 19.480469 -23.59375 C 18.664062 -25.253906 17.738281 -26.085938 16.707031 -26.085938 C 15.671875 -26.085938 14.746094 -25.253906 13.929688 -23.59375 C 12.996094 -21.691406 12.527344 -18.390625 12.527344 -13.691406 C 12.527344 -8.996094 12.996094 -5.695312 13.929688 -3.792969 C 14.746094 -2.132812 15.671875 -1.300781 16.707031 -1.300781 Z M 16.707031 0.753906 C 14.820312 0.753906 13.277344 -0.460938 12.085938 -2.886719 C 11.011719 -5.074219 10.476562 -8.675781 10.476562 -13.691406 C 10.476562 -18.707031 11.011719 -22.308594 12.085938 -24.496094 C 13.277344 -26.925781 14.820312 -28.140625 16.707031 -28.140625 C 18.59375 -28.140625 20.132812 -26.925781 21.324219 -24.496094 C 22.398438 -22.308594 22.9375 -18.707031 22.9375 -13.691406 C 22.9375 -8.675781 22.398438 -5.074219 21.324219 -2.886719 C 20.132812 -0.460938 18.59375 0.753906 16.707031 0.753906 Z M 16.707031 0.753906 "/></g></g></g><g fill="#e06054" fill-opacity="1"><g transform="translate(145.471654, 48)"><g><path d="M 1.941406 -1.816406 L 5.226562 -2.640625 L 5.476562 -1.644531 L 4.449219 -1.644531 L 4.449219 -25.742188 L 5.476562 -25.742188 L 5.226562 -24.746094 L 1.164062 -25.761719 L 1.164062 -28.414062 L 7.121094 -28.414062 C 9.582031 -28.414062 11.535156 -27.605469 12.980469 -25.988281 C 13.535156 -25.347656 14 -24.574219 14.371094 -23.667969 L 13.417969 -23.277344 L 12.570312 -23.855469 C 13.175781 -24.742188 13.914062 -25.542969 14.796875 -26.265625 C 16.816406 -27.878906 19.078125 -28.6875 21.582031 -28.6875 C 23.785156 -28.6875 25.46875 -28.148438 26.632812 -27.074219 C 27.820312 -25.972656 28.414062 -24.4375 28.414062 -22.457031 C 28.414062 -20.929688 27.9375 -19.695312 26.988281 -18.746094 C 26.039062 -17.796875 24.804688 -17.320312 23.277344 -17.320312 C 22.71875 -17.320312 22.160156 -17.363281 21.597656 -17.441406 L 21.546875 -17.449219 L 20.058594 -17.820312 L 20.058594 -26.289062 L 21.085938 -26.289062 L 21.085938 -25.265625 C 19.5 -25.265625 18.039062 -24.628906 16.703125 -23.355469 L 15.992188 -24.101562 L 16.71875 -23.375 C 16.050781 -22.703125 15.515625 -22.039062 15.121094 -21.378906 L 14.242188 -21.910156 L 15.269531 -21.910156 L 15.269531 -1.644531 L 14.242188 -1.644531 L 14.488281 -2.640625 L 18.554688 -1.625 L 18.554688 1.027344 L 1.164062 1.027344 L 1.164062 -1.625 Z M 2.441406 0.175781 L 2.191406 -0.820312 L 3.21875 -0.820312 L 3.21875 0 L 2.191406 0 L 2.191406 -1.027344 L 17.527344 -1.027344 L 17.527344 0 L 16.5 0 L 16.5 -0.820312 L 17.527344 -0.820312 L 17.277344 0.175781 L 13.214844 -0.839844 L 13.214844 -22.195312 L 13.359375 -22.4375 C 13.839844 -23.238281 14.476562 -24.035156 15.265625 -24.824219 L 15.285156 -24.84375 C 17.015625 -26.492188 18.953125 -27.316406 21.085938 -27.316406 L 22.113281 -27.316406 L 22.113281 -18.621094 L 21.085938 -18.621094 L 21.335938 -19.617188 L 21.992188 -19.453125 L 21.746094 -18.457031 L 21.890625 -19.476562 C 22.351562 -19.410156 22.816406 -19.375 23.277344 -19.375 C 24.234375 -19.375 24.988281 -19.648438 25.539062 -20.199219 C 26.085938 -20.746094 26.359375 -21.5 26.359375 -22.457031 C 26.359375 -23.835938 25.984375 -24.871094 25.238281 -25.5625 C 24.464844 -26.277344 23.246094 -26.632812 21.582031 -26.632812 C 19.554688 -26.632812 17.730469 -25.980469 16.097656 -24.675781 C 15.371094 -24.078125 14.761719 -23.421875 14.269531 -22.699219 L 13.191406 -21.121094 L 12.46875 -22.890625 C 12.183594 -23.589844 11.84375 -24.164062 11.449219 -24.621094 C 10.410156 -25.78125 8.96875 -26.359375 7.121094 -26.359375 L 2.191406 -26.359375 L 2.191406 -27.386719 L 3.21875 -27.386719 L 3.21875 -26.566406 L 2.191406 -26.566406 L 2.441406 -27.5625 L 6.503906 -26.546875 L 6.503906 -0.839844 Z M 2.441406 0.175781 "/></g></g></g><g fill="#e06054" fill-opacity="1"><g transform="translate(176.412724, 48)"><g><path d="M 16.433594 1.847656 C 13.863281 1.847656 11.621094 1.375 9.703125 0.425781 C 7.757812 -0.535156 6.257812 -1.867188 5.207031 -3.566406 C 4.15625 -5.265625 3.628906 -7.179688 3.628906 -9.3125 L 3.628906 -26.015625 L 4.65625 -26.015625 L 4.65625 -24.988281 L -0.207031 -24.988281 L -0.207031 -28.414062 L 4.65625 -28.414062 L 4.65625 -27.386719 L 3.628906 -27.386719 L 3.628906 -30.125 C 3.628906 -32.050781 4.140625 -33.527344 5.160156 -34.546875 C 6.183594 -35.570312 7.660156 -36.082031 9.585938 -36.082031 L 14.445312 -36.082031 L 14.445312 -27.386719 L 13.417969 -27.386719 L 13.417969 -28.414062 L 22.113281 -28.414062 L 22.113281 -24.988281 L 13.417969 -24.988281 L 13.417969 -26.015625 L 14.445312 -26.015625 L 14.445312 -9.3125 C 14.445312 -6.128906 14.75 -3.996094 15.355469 -2.910156 C 15.855469 -2.019531 16.578125 -1.574219 17.527344 -1.574219 C 18.503906 -1.574219 19.382812 -2.082031 20.164062 -3.09375 C 21.007812 -4.183594 21.429688 -5.710938 21.429688 -7.667969 L 21.429688 -8.695312 L 24.851562 -8.695312 L 24.851562 -7.667969 C 24.851562 -4.699219 24.089844 -2.378906 22.558594 -0.703125 C 21.003906 0.996094 18.960938 1.847656 16.433594 1.847656 Z M 16.433594 -0.207031 C 18.355469 -0.207031 19.894531 -0.832031 21.042969 -2.089844 C 22.214844 -3.371094 22.800781 -5.230469 22.800781 -7.667969 L 23.824219 -7.667969 L 23.824219 -6.640625 L 22.457031 -6.640625 L 22.457031 -7.667969 L 23.484375 -7.667969 C 23.484375 -5.242188 22.917969 -3.300781 21.792969 -1.835938 C 20.597656 -0.292969 19.179688 0.480469 17.527344 0.480469 C 15.773438 0.480469 14.453125 -0.316406 13.5625 -1.910156 C 12.78125 -3.304688 12.390625 -5.773438 12.390625 -9.3125 L 12.390625 -27.042969 L 21.085938 -27.042969 L 21.085938 -26.015625 L 20.058594 -26.015625 L 20.058594 -27.386719 L 21.085938 -27.386719 L 21.085938 -26.359375 L 12.390625 -26.359375 L 12.390625 -35.054688 L 13.417969 -35.054688 L 13.417969 -34.027344 L 9.585938 -34.027344 C 8.226562 -34.027344 7.234375 -33.71875 6.613281 -33.097656 C 5.992188 -32.476562 5.683594 -31.484375 5.683594 -30.125 L 5.683594 -26.359375 L 0.820312 -26.359375 L 0.820312 -27.386719 L 1.847656 -27.386719 L 1.847656 -26.015625 L 0.820312 -26.015625 L 0.820312 -27.042969 L 5.683594 -27.042969 L 5.683594 -9.3125 C 5.683594 -7.570312 6.105469 -6.015625 6.953125 -4.648438 C 7.800781 -3.28125 9.019531 -2.203125 10.617188 -1.414062 C 12.242188 -0.609375 14.183594 -0.207031 16.433594 -0.207031 Z M 16.433594 -0.207031 "/></g></g></g><g fill="#e06054" fill-opacity="1"><g transform="translate(203.794154, 48)"><g><path d="M 1.941406 -1.816406 L 5.226562 -2.640625 L 5.476562 -1.644531 L 4.449219 -1.644531 L 4.449219 -25.742188 L 5.476562 -25.742188 L 5.226562 -24.746094 L 1.164062 -25.761719 L 1.164062 -28.414062 L 9.3125 -28.414062 C 11.238281 -28.414062 12.710938 -27.902344 13.734375 -26.878906 C 14.757812 -25.859375 15.269531 -24.382812 15.269531 -22.457031 L 15.269531 -1.644531 L 14.242188 -1.644531 L 14.488281 -2.640625 L 18.554688 -1.625 L 18.554688 1.027344 L 1.164062 1.027344 L 1.164062 -1.625 Z M 2.441406 0.175781 L 2.191406 -0.820312 L 3.21875 -0.820312 L 3.21875 0 L 2.191406 0 L 2.191406 -1.027344 L 17.527344 -1.027344 L 17.527344 0 L 16.5 0 L 16.5 -0.820312 L 17.527344 -0.820312 L 17.277344 0.175781 L 13.214844 -0.839844 L 13.214844 -22.457031 C 13.214844 -23.816406 12.902344 -24.804688 12.28125 -25.425781 C 11.660156 -26.046875 10.671875 -26.359375 9.3125 -26.359375 L 2.191406 -26.359375 L 2.191406 -27.386719 L 3.21875 -27.386719 L 3.21875 -26.566406 L 2.191406 -26.566406 L 2.441406 -27.5625 L 6.503906 -26.546875 L 6.503906 -0.839844 Z M 9.3125 -29.644531 C 7.933594 -29.644531 6.777344 -30.109375 5.847656 -31.042969 C 4.914062 -31.972656 4.449219 -33.128906 4.449219 -34.507812 C 4.449219 -35.886719 4.914062 -37.039062 5.847656 -37.972656 C 6.777344 -38.902344 7.933594 -39.367188 9.3125 -39.367188 C 10.691406 -39.367188 11.84375 -38.902344 12.777344 -37.972656 C 13.707031 -37.039062 14.171875 -35.886719 14.171875 -34.507812 C 14.171875 -33.128906 13.707031 -31.972656 12.777344 -31.042969 C 11.84375 -30.109375 10.691406 -29.644531 9.3125 -29.644531 Z M 9.3125 -31.699219 C 10.125 -31.699219 10.792969 -31.964844 11.324219 -32.496094 C 11.855469 -33.023438 12.117188 -33.695312 12.117188 -34.507812 C 12.117188 -35.320312 11.855469 -35.988281 11.324219 -36.519531 C 10.792969 -37.050781 10.125 -37.3125 9.3125 -37.3125 C 8.5 -37.3125 7.828125 -37.050781 7.300781 -36.519531 C 6.769531 -35.988281 6.503906 -35.320312 6.503906 -34.507812 C 6.503906 -33.695312 6.769531 -33.023438 7.300781 -32.496094 C 7.828125 -31.964844 8.5 -31.699219 9.3125 -31.699219 Z M 9.3125 -31.699219 "/></g></g></g><g fill="#e06054" fill-opacity="1"><g transform="translate(225.151804, 48)"><g><path d="M 12.871094 1.847656 C 9.382812 1.847656 6.667969 1.082031 4.730469 -0.453125 C 2.71875 -2.046875 1.710938 -4.085938 1.710938 -6.574219 C 1.710938 -8.144531 2.050781 -9.6875 2.730469 -11.210938 L 3.667969 -10.789062 L 2.710938 -11.164062 C 3 -11.902344 3.371094 -12.585938 3.828125 -13.203125 L 4.046875 -13.507812 L 4.414062 -13.59375 C 5.933594 -13.964844 7.582031 -14.300781 9.363281 -14.597656 C 13.34375 -15.261719 16.871094 -15.667969 19.941406 -15.8125 L 19.992188 -14.789062 L 18.964844 -14.789062 L 18.964844 -16.433594 C 18.964844 -20.285156 18.527344 -22.890625 17.648438 -24.257812 C 16.867188 -25.476562 15.636719 -26.085938 13.96875 -26.085938 C 13.3125 -26.085938 12.761719 -26.011719 12.320312 -25.863281 L 11.574219 -25.597656 L 11.226562 -26.566406 L 12.253906 -26.566406 L 12.253906 -17.53125 L 10.695312 -17.171875 L 10.644531 -17.164062 C 10.015625 -17.085938 9.480469 -17.046875 9.039062 -17.046875 C 7.511719 -17.046875 6.273438 -17.523438 5.324219 -18.472656 C 4.378906 -19.421875 3.902344 -20.65625 3.902344 -22.183594 C 3.902344 -24.222656 4.898438 -25.929688 6.894531 -27.300781 C 8.765625 -28.589844 11.492188 -29.234375 15.0625 -29.234375 C 18.070312 -29.234375 20.675781 -28.699219 22.878906 -27.625 C 25.121094 -26.53125 26.835938 -25.015625 28.015625 -23.074219 C 29.195312 -21.136719 29.78125 -18.925781 29.78125 -16.433594 L 29.78125 -1.644531 L 28.753906 -1.644531 L 29.003906 -2.640625 L 33.070312 -1.625 L 33.070312 1.027344 L 27.113281 1.027344 C 24.613281 1.027344 22.660156 0.238281 21.253906 -1.34375 L 22.019531 -2.027344 L 21.269531 -1.324219 C 20.65625 -1.980469 20.183594 -2.792969 19.84375 -3.769531 L 20.8125 -4.109375 L 21.710938 -3.605469 C 21.15625 -2.617188 20.503906 -1.726562 19.75 -0.9375 L 19.742188 -0.925781 L 19.730469 -0.917969 C 17.886719 0.925781 15.601562 1.847656 12.871094 1.847656 Z M 12.871094 -0.207031 C 15.035156 -0.207031 16.835938 -0.925781 18.28125 -2.371094 L 19.007812 -1.644531 L 18.261719 -2.351562 C 18.894531 -3.019531 19.449219 -3.773438 19.917969 -4.609375 L 21.035156 -6.601562 L 21.785156 -4.445312 C 22.027344 -3.742188 22.355469 -3.167969 22.769531 -2.726562 L 22.785156 -2.710938 C 23.785156 -1.589844 25.226562 -1.027344 27.113281 -1.027344 L 32.042969 -1.027344 L 32.042969 0 L 31.015625 0 L 31.015625 -0.820312 L 32.042969 -0.820312 L 31.792969 0.175781 L 27.730469 -0.839844 L 27.730469 -16.433594 C 27.730469 -18.539062 27.238281 -20.398438 26.261719 -22.003906 C 25.289062 -23.605469 23.863281 -24.863281 21.980469 -25.777344 C 20.058594 -26.714844 17.753906 -27.179688 15.0625 -27.179688 C 11.914062 -27.179688 9.582031 -26.65625 8.058594 -25.609375 C 6.65625 -24.644531 5.957031 -23.503906 5.957031 -22.183594 C 5.957031 -21.226562 6.230469 -20.472656 6.777344 -19.925781 C 7.328125 -19.375 8.078125 -19.101562 9.039062 -19.101562 C 9.398438 -19.101562 9.847656 -19.136719 10.390625 -19.203125 L 10.515625 -18.183594 L 10.285156 -19.183594 L 10.996094 -19.347656 L 11.226562 -18.347656 L 10.203125 -18.347656 L 10.203125 -27.289062 L 11.671875 -27.8125 C 12.324219 -28.03125 13.089844 -28.140625 13.96875 -28.140625 C 16.386719 -28.140625 18.1875 -27.214844 19.378906 -25.367188 C 20.472656 -23.664062 21.019531 -20.6875 21.019531 -16.433594 L 21.019531 -13.808594 L 20.042969 -13.761719 C 17.050781 -13.617188 13.601562 -13.222656 9.699219 -12.570312 C 7.972656 -12.28125 6.371094 -11.960938 4.898438 -11.601562 L 4.65625 -12.597656 L 5.484375 -11.992188 C 5.136719 -11.515625 4.851562 -10.992188 4.625 -10.417969 L 4.617188 -10.394531 L 4.605469 -10.371094 C 4.046875 -9.117188 3.765625 -7.851562 3.765625 -6.574219 C 3.765625 -4.75 4.511719 -3.246094 6.003906 -2.066406 C 7.570312 -0.824219 9.859375 -0.207031 12.871094 -0.207031 Z M 15.0625 -2.121094 C 16.070312 -2.121094 17.019531 -2.714844 17.910156 -3.902344 C 18.269531 -4.394531 18.65625 -5.066406 19.066406 -5.921875 L 19.992188 -5.476562 L 18.964844 -5.476562 L 18.964844 -13.417969 L 19.992188 -13.417969 L 19.992188 -12.390625 C 18.351562 -12.390625 16.785156 -12.304688 15.292969 -12.125 C 14.15625 -11.980469 13.378906 -11.886719 12.964844 -11.847656 L 12.871094 -12.871094 L 13.804688 -12.445312 C 13.648438 -12.097656 13.484375 -11.605469 13.316406 -10.96875 C 12.972656 -9.664062 12.804688 -8.382812 12.804688 -7.121094 C 12.804688 -5.273438 13.0625 -3.941406 13.578125 -3.121094 C 13.996094 -2.457031 14.492188 -2.121094 15.0625 -2.121094 Z M 15.0625 -0.0703125 C 13.734375 -0.0703125 12.660156 -0.722656 11.839844 -2.027344 C 11.113281 -3.179688 10.75 -4.878906 10.75 -7.121094 C 10.75 -8.558594 10.941406 -10.015625 11.332031 -11.488281 C 11.527344 -12.238281 11.730469 -12.84375 11.9375 -13.296875 L 12.183594 -13.839844 L 12.777344 -13.894531 C 13.167969 -13.929688 13.925781 -14.019531 15.050781 -14.164062 C 16.625 -14.351562 18.273438 -14.445312 19.992188 -14.445312 L 21.019531 -14.445312 L 21.019531 -5.242188 L 20.917969 -5.03125 C 20.453125 -4.0625 19.996094 -3.273438 19.554688 -2.671875 C 18.253906 -0.9375 16.753906 -0.0703125 15.0625 -0.0703125 Z M 15.0625 -0.0703125 "/></g></g></g><g fill="#e06054" fill-opacity="1"><g transform="translate(261.02134, 48)"><g><path d="M 1.941406 -1.816406 L 5.226562 -2.640625 L 5.476562 -1.644531 L 4.449219 -1.644531 L 4.449219 -25.742188 L 5.476562 -25.742188 L 5.226562 -24.746094 L 1.164062 -25.761719 L 1.164062 -28.414062 L 7.121094 -28.414062 C 9.582031 -28.414062 11.535156 -27.605469 12.980469 -25.988281 C 13.535156 -25.347656 14 -24.574219 14.371094 -23.667969 L 13.417969 -23.277344 L 12.515625 -23.765625 C 13.074219 -24.804688 13.734375 -25.703125 14.5 -26.46875 C 16.34375 -28.3125 18.632812 -29.234375 21.359375 -29.234375 C 23.574219 -29.234375 25.570312 -28.765625 27.34375 -27.828125 C 29.125 -26.886719 30.519531 -25.652344 31.53125 -24.117188 C 32.554688 -22.558594 33.070312 -20.910156 33.070312 -19.171875 L 33.070312 -1.644531 L 32.042969 -1.644531 L 32.289062 -2.640625 L 36.355469 -1.625 L 36.355469 1.027344 L 28.207031 1.027344 C 26.28125 1.027344 24.804688 0.515625 23.785156 -0.507812 C 22.761719 -1.527344 22.25 -3.003906 22.25 -4.929688 L 22.25 -19.171875 C 22.25 -21.261719 21.898438 -22.832031 21.195312 -23.882812 C 20.574219 -24.804688 19.902344 -25.265625 19.171875 -25.265625 C 18.125 -25.265625 17.15625 -24.671875 16.265625 -23.484375 C 15.847656 -22.933594 15.492188 -22.285156 15.195312 -21.535156 L 14.242188 -21.910156 L 15.269531 -21.910156 L 15.269531 -1.644531 L 14.242188 -1.644531 L 14.488281 -2.640625 L 18.554688 -1.625 L 18.554688 1.027344 L 1.164062 1.027344 L 1.164062 -1.625 Z M 2.441406 0.175781 L 2.191406 -0.820312 L 3.21875 -0.820312 L 3.21875 0 L 2.191406 0 L 2.191406 -1.027344 L 17.527344 -1.027344 L 17.527344 0 L 16.5 0 L 16.5 -0.820312 L 17.527344 -0.820312 L 17.277344 0.175781 L 13.214844 -0.839844 L 13.214844 -22.101562 L 13.285156 -22.285156 C 13.648438 -23.210938 14.09375 -24.023438 14.625 -24.714844 C 15.925781 -26.449219 17.441406 -27.316406 19.171875 -27.316406 C 20.628906 -27.316406 21.875 -26.554688 22.898438 -25.027344 C 23.835938 -23.632812 24.304688 -21.679688 24.304688 -19.171875 L 24.304688 -4.929688 C 24.304688 -3.570312 24.617188 -2.578125 25.238281 -1.957031 C 25.859375 -1.335938 26.847656 -1.027344 28.207031 -1.027344 L 35.328125 -1.027344 L 35.328125 0 L 34.300781 0 L 34.300781 -0.820312 L 35.328125 -0.820312 L 35.078125 0.175781 L 31.015625 -0.839844 L 31.015625 -19.171875 C 31.015625 -20.5 30.613281 -21.769531 29.816406 -22.988281 C 29 -24.226562 27.855469 -25.238281 26.386719 -26.011719 C 24.910156 -26.792969 23.238281 -27.179688 21.359375 -27.179688 C 19.199219 -27.179688 17.394531 -26.460938 15.953125 -25.015625 C 15.332031 -24.394531 14.785156 -23.652344 14.324219 -22.792969 L 13.292969 -20.875 L 12.46875 -22.890625 C 12.183594 -23.589844 11.84375 -24.164062 11.449219 -24.621094 C 10.410156 -25.78125 8.96875 -26.359375 7.121094 -26.359375 L 2.191406 -26.359375 L 2.191406 -27.386719 L 3.21875 -27.386719 L 3.21875 -26.566406 L 2.191406 -26.566406 L 2.441406 -27.5625 L 6.503906 -26.546875 L 6.503906 -0.839844 Z M 2.441406 0.175781 "/></g></g></g></svg>