<svg xmlns="http://www.w3.org/2000/svg" xmlns:xlink="http://www.w3.org/1999/xlink" width="400" zoomAndPan="magnify" viewBox="0 0 300 60" height="80" preserveAspectRatio="xMidYMid meet" version="1.0"><defs><g/></defs><g fill="#03b57b" fill-opacity="1"><g transform="translate(5.440429, 48.262761)"><g><path d="M 2.90625 -0.875 L 6.375 -1.734375 L 6.375 -38.859375 L 2.90625 -39.734375 L 2.90625 -40.59375 L 18.265625 -40.59375 C 24.835938 -40.59375 29.570312 -39.597656 32.46875 -37.609375 C 35.375 -35.617188 36.828125 -32.847656 36.828125 -29.296875 C 36.828125 -26.890625 36.1875 -24.941406 34.90625 -23.453125 C 33.632812 -21.972656 31.992188 -20.863281 29.984375 -20.125 C 27.859375 -19.3125 25.597656 -18.882812 23.203125 -18.84375 L 23.203125 -18.5625 C 24.628906 -18.476562 25.882812 -18.265625 26.96875 -17.921875 C 29.675781 -17.066406 31.515625 -15.539062 32.484375 -13.34375 L 37.703125 -1.734375 L 40.59375 -0.875 L 40.59375 0 L 32.484375 0 C 29.304688 0 26.984375 -1.644531 25.515625 -4.9375 L 19.71875 -17.984375 L 15.953125 -17.984375 L 15.953125 -1.734375 L 20.015625 -0.875 L 20.015625 0 L 2.90625 0 Z M 18.265625 -19.4375 C 20.972656 -19.4375 23.097656 -20.285156 24.640625 -21.984375 C 26.191406 -23.679688 26.96875 -26.117188 26.96875 -29.296875 C 26.96875 -32.460938 26.191406 -34.894531 24.640625 -36.59375 C 23.097656 -38.300781 20.972656 -39.15625 18.265625 -39.15625 L 15.953125 -39.15625 L 15.953125 -19.4375 Z M 18.265625 -19.4375 "/></g></g></g><g fill="#03b57b" fill-opacity="1"><g transform="translate(46.037737, 48.262761)"><g><path d="M 17.984375 0.875 C 13.035156 0.875 9.1875 -0.488281 6.4375 -3.21875 C 3.6875 -5.945312 2.3125 -9.707031 2.3125 -14.5 C 2.3125 -17.632812 2.910156 -20.359375 4.109375 -22.671875 C 5.316406 -24.992188 6.992188 -26.773438 9.140625 -28.015625 C 11.285156 -29.253906 13.75 -29.875 16.53125 -29.875 C 19.3125 -29.875 21.753906 -29.347656 23.859375 -28.296875 C 25.972656 -27.253906 27.597656 -25.851562 28.734375 -24.09375 C 29.878906 -22.332031 30.453125 -20.390625 30.453125 -18.265625 C 30.453125 -17.296875 30.351562 -16.46875 30.15625 -15.78125 L 29.875 -14.796875 C 28.207031 -14.441406 26.40625 -14.148438 24.46875 -13.921875 C 20.414062 -13.335938 16.320312 -13.046875 12.1875 -13.046875 C 12.1875 -8.566406 12.800781 -5.367188 14.03125 -3.453125 C 15.269531 -1.535156 16.972656 -0.578125 19.140625 -0.578125 C 20.648438 -0.578125 22.050781 -0.929688 23.34375 -1.640625 C 24.632812 -2.359375 25.65625 -3.304688 26.40625 -4.484375 C 27.164062 -5.671875 27.546875 -6.882812 27.546875 -8.125 L 29 -8.125 C 29 -6.570312 28.535156 -5.097656 27.609375 -3.703125 C 26.679688 -2.316406 25.382812 -1.207031 23.71875 -0.375 C 22.0625 0.457031 20.148438 0.875 17.984375 0.875 Z M 12.1875 -14.5 C 14.65625 -14.5 16.664062 -14.597656 18.21875 -14.796875 C 18.875 -14.828125 19.566406 -14.921875 20.296875 -15.078125 C 20.335938 -15.273438 20.4375 -15.703125 20.59375 -16.359375 C 20.78125 -17.328125 20.875 -18.351562 20.875 -19.4375 C 20.875 -22.644531 20.445312 -24.988281 19.59375 -26.46875 C 18.75 -27.957031 17.726562 -28.703125 16.53125 -28.703125 C 13.632812 -28.703125 12.1875 -23.96875 12.1875 -14.5 Z M 12.1875 -14.5 "/></g></g></g><g fill="#03b57b" fill-opacity="1"><g transform="translate(78.515587, 48.262761)"><g><path d="M 15.953125 0.875 C 13.554688 0.875 11.410156 0.347656 9.515625 -0.703125 C 8.585938 -1.203125 7.832031 -1.738281 7.25 -2.3125 C 6.632812 -1.46875 5.957031 -0.8125 5.21875 -0.34375 C 4.875 -0.113281 4.488281 0.0976562 4.0625 0.296875 L 2.609375 0.296875 L 2.609375 -9.5625 L 4.9375 -9.5625 C 5.4375 -7.945312 6.171875 -6.441406 7.140625 -5.046875 C 9.179688 -2.066406 11.734375 -0.578125 14.796875 -0.578125 C 16.410156 -0.578125 17.632812 -0.972656 18.46875 -1.765625 C 19.300781 -2.554688 19.71875 -3.707031 19.71875 -5.21875 C 19.71875 -6.5 19.144531 -7.570312 18 -8.4375 C 16.863281 -9.3125 15.078125 -10.382812 12.640625 -11.65625 C 10.554688 -12.695312 8.863281 -13.632812 7.5625 -14.46875 C 6.269531 -15.300781 5.171875 -16.34375 4.265625 -17.59375 C 3.359375 -18.851562 2.90625 -20.335938 2.90625 -22.046875 C 2.90625 -24.359375 3.898438 -26.238281 5.890625 -27.6875 C 7.878906 -29.144531 10.941406 -29.875 15.078125 -29.875 C 17.128906 -29.875 19.023438 -29.332031 20.765625 -28.25 C 21.617188 -27.738281 22.351562 -27.21875 22.96875 -26.6875 C 23.46875 -27.375 24.144531 -28.03125 25 -28.65625 C 25.65625 -29.039062 26.039062 -29.253906 26.15625 -29.296875 L 27.609375 -29.296875 L 27.609375 -19.4375 L 25.28125 -19.4375 C 24.707031 -21.09375 23.992188 -22.578125 23.140625 -23.890625 C 21.203125 -26.910156 18.898438 -28.421875 16.234375 -28.421875 C 15.191406 -28.421875 14.300781 -28.03125 13.5625 -27.25 C 12.832031 -26.476562 12.46875 -25.515625 12.46875 -24.359375 C 12.46875 -22.890625 13.085938 -21.660156 14.328125 -20.671875 C 15.566406 -19.691406 17.441406 -18.5625 19.953125 -17.28125 C 22.003906 -16.238281 23.640625 -15.320312 24.859375 -14.53125 C 26.078125 -13.738281 27.117188 -12.757812 27.984375 -11.59375 C 28.859375 -10.4375 29.296875 -9.085938 29.296875 -7.546875 C 29.296875 -1.929688 24.847656 0.875 15.953125 0.875 Z M 15.953125 0.875 "/></g></g></g><g fill="#03b57b" fill-opacity="1"><g transform="translate(109.83351, 48.262761)"><g><path d="M 17.6875 0.875 C 12.894531 0.875 9.132812 -0.488281 6.40625 -3.21875 C 3.675781 -5.945312 2.3125 -9.707031 2.3125 -14.5 C 2.3125 -19.289062 3.675781 -23.050781 6.40625 -25.78125 C 9.132812 -28.507812 12.894531 -29.875 17.6875 -29.875 C 22.476562 -29.875 26.238281 -28.507812 28.96875 -25.78125 C 31.695312 -23.050781 33.0625 -19.289062 33.0625 -14.5 C 33.0625 -9.707031 31.695312 -5.945312 28.96875 -3.21875 C 26.238281 -0.488281 22.476562 0.875 17.6875 0.875 Z M 17.6875 -0.296875 C 19.238281 -0.296875 20.546875 -1.375 21.609375 -3.53125 C 22.671875 -5.695312 23.203125 -9.351562 23.203125 -14.5 C 23.203125 -19.644531 22.671875 -23.296875 21.609375 -25.453125 C 20.546875 -27.617188 19.238281 -28.703125 17.6875 -28.703125 C 16.144531 -28.703125 14.84375 -27.617188 13.78125 -25.453125 C 12.71875 -23.296875 12.1875 -19.644531 12.1875 -14.5 C 12.1875 -9.351562 12.71875 -5.695312 13.78125 -3.53125 C 14.84375 -1.375 16.144531 -0.296875 17.6875 -0.296875 Z M 17.6875 -0.296875 "/></g></g></g><g fill="#03b57b" fill-opacity="1"><g transform="translate(145.211168, 48.262761)"><g><path d="M 2.3125 -0.875 L 5.796875 -1.734375 L 5.796875 -27.265625 L 2.3125 -28.125 L 2.3125 -29 L 7.546875 -29 C 9.828125 -29 11.625 -28.265625 12.9375 -26.796875 C 13.4375 -26.210938 13.859375 -25.5 14.203125 -24.65625 C 14.785156 -25.5 15.503906 -26.269531 16.359375 -26.96875 C 18.285156 -28.519531 20.453125 -29.296875 22.859375 -29.296875 C 24.898438 -29.296875 26.429688 -28.820312 27.453125 -27.875 C 28.484375 -26.925781 29 -25.5625 29 -23.78125 C 29 -22.46875 28.601562 -21.414062 27.8125 -20.625 C 27.019531 -19.832031 25.96875 -19.4375 24.65625 -19.4375 C 24.113281 -19.4375 23.570312 -19.472656 23.03125 -19.546875 L 22.328125 -19.71875 L 22.328125 -27.84375 C 20.359375 -27.84375 18.5625 -27.066406 16.9375 -25.515625 C 16.164062 -24.742188 15.546875 -23.972656 15.078125 -23.203125 L 15.078125 -1.734375 L 18.5625 -0.875 L 18.5625 0 L 2.3125 0 Z M 2.3125 -0.875 "/></g></g></g><g fill="#03b57b" fill-opacity="1"><g transform="translate(175.079205, 48.262761)"><g><path d="M 17.40625 0.875 C 14.851562 0.875 12.640625 0.410156 10.765625 -0.515625 C 8.890625 -1.441406 7.445312 -2.71875 6.4375 -4.34375 C 5.4375 -5.96875 4.9375 -7.804688 4.9375 -9.859375 L 4.9375 -27.546875 L 0.875 -27.546875 L 0.875 -29 L 4.9375 -29 L 4.9375 -31.90625 C 4.9375 -35.382812 6.675781 -37.125 10.15625 -37.125 L 14.203125 -37.125 L 14.203125 -29 L 22.328125 -29 L 22.328125 -27.546875 L 14.203125 -27.546875 L 14.203125 -9.859375 C 14.203125 -6.304688 14.566406 -3.867188 15.296875 -2.546875 C 16.035156 -1.234375 17.125 -0.578125 18.5625 -0.578125 C 19.945312 -0.578125 21.160156 -1.253906 22.203125 -2.609375 C 23.253906 -3.960938 23.78125 -5.800781 23.78125 -8.125 L 25.234375 -8.125 C 25.234375 -5.257812 24.515625 -3.039062 23.078125 -1.46875 C 21.648438 0.09375 19.757812 0.875 17.40625 0.875 Z M 17.40625 0.875 "/></g></g></g><g fill="#03b57b" fill-opacity="1"><g transform="translate(201.177467, 48.262761)"><g><path d="M 2.3125 -0.875 L 5.796875 -1.734375 L 5.796875 -27.265625 L 2.3125 -28.125 L 2.3125 -29 L 9.859375 -29 C 13.335938 -29 15.078125 -27.257812 15.078125 -23.78125 L 15.078125 -1.734375 L 18.5625 -0.875 L 18.5625 0 L 2.3125 0 Z M 9.859375 -32.484375 C 8.703125 -32.484375 7.734375 -32.867188 6.953125 -33.640625 C 6.179688 -34.410156 5.796875 -35.378906 5.796875 -36.546875 C 5.796875 -37.703125 6.179688 -38.664062 6.953125 -39.4375 C 7.734375 -40.207031 8.703125 -40.59375 9.859375 -40.59375 C 11.015625 -40.59375 11.976562 -40.207031 12.75 -39.4375 C 13.53125 -38.664062 13.921875 -37.703125 13.921875 -36.546875 C 13.921875 -35.378906 13.53125 -34.410156 12.75 -33.640625 C 11.976562 -32.867188 11.015625 -32.484375 9.859375 -32.484375 Z M 9.859375 -32.484375 "/></g></g></g><g fill="#03b57b" fill-opacity="1"><g transform="translate(220.896185, 48.262761)"><g><path d="M 13.625 0.875 C 10.1875 0.875 7.539062 0.140625 5.6875 -1.328125 C 3.832031 -2.796875 2.90625 -4.671875 2.90625 -6.953125 C 2.90625 -8.460938 3.234375 -9.953125 3.890625 -11.421875 C 4.160156 -12.117188 4.507812 -12.757812 4.9375 -13.34375 C 6.519531 -13.726562 8.238281 -14.078125 10.09375 -14.390625 C 14.269531 -15.078125 17.960938 -15.5 21.171875 -15.65625 L 21.171875 -17.40625 C 21.171875 -21.695312 20.644531 -24.648438 19.59375 -26.265625 C 18.550781 -27.890625 16.953125 -28.703125 14.796875 -28.703125 C 13.984375 -28.703125 13.285156 -28.609375 12.703125 -28.421875 L 11.890625 -28.125 L 11.890625 -19.4375 L 11.140625 -19.25 C 10.515625 -19.175781 9.988281 -19.140625 9.5625 -19.140625 C 8.25 -19.140625 7.195312 -19.535156 6.40625 -20.328125 C 5.613281 -21.117188 5.21875 -22.171875 5.21875 -23.484375 C 5.21875 -25.265625 6.113281 -26.773438 7.90625 -28.015625 C 9.707031 -29.253906 12.390625 -29.875 15.953125 -29.875 C 18.960938 -29.875 21.5625 -29.34375 23.75 -28.28125 C 25.9375 -27.21875 27.597656 -25.742188 28.734375 -23.859375 C 29.878906 -21.984375 30.453125 -19.832031 30.453125 -17.40625 L 30.453125 -1.734375 L 33.9375 -0.875 L 33.9375 0 L 28.703125 0 C 26.390625 0 24.59375 -0.710938 23.3125 -2.140625 C 22.769531 -2.722656 22.347656 -3.457031 22.046875 -4.34375 C 21.503906 -3.382812 20.863281 -2.515625 20.125 -1.734375 C 18.382812 0.00390625 16.21875 0.875 13.625 0.875 Z M 15.953125 -1.15625 C 17.378906 -1.15625 18.675781 -1.929688 19.84375 -3.484375 C 20.257812 -4.054688 20.703125 -4.828125 21.171875 -5.796875 L 21.171875 -14.203125 C 19.390625 -14.203125 17.6875 -14.109375 16.0625 -13.921875 C 14.863281 -13.765625 14.050781 -13.664062 13.625 -13.625 C 13.4375 -13.195312 13.242188 -12.617188 13.046875 -11.890625 C 12.660156 -10.421875 12.46875 -8.972656 12.46875 -7.546875 C 12.46875 -5.378906 12.796875 -3.769531 13.453125 -2.71875 C 14.109375 -1.675781 14.941406 -1.15625 15.953125 -1.15625 Z M 15.953125 -1.15625 "/></g></g></g><g fill="#03b57b" fill-opacity="1"><g transform="translate(255.983861, 48.262761)"><g><path d="M 2.3125 -0.875 L 5.796875 -1.734375 L 5.796875 -27.265625 L 2.3125 -28.125 L 2.3125 -29 L 7.546875 -29 C 9.828125 -29 11.625 -28.265625 12.9375 -26.796875 C 13.4375 -26.210938 13.859375 -25.5 14.203125 -24.65625 C 14.742188 -25.65625 15.382812 -26.523438 16.125 -27.265625 C 17.863281 -29.003906 20.03125 -29.875 22.625 -29.875 C 24.789062 -29.875 26.734375 -29.414062 28.453125 -28.5 C 30.171875 -27.59375 31.515625 -26.40625 32.484375 -24.9375 C 33.453125 -23.46875 33.9375 -21.921875 33.9375 -20.296875 L 33.9375 -1.734375 L 37.40625 -0.875 L 37.40625 0 L 29.875 0 C 26.394531 0 24.65625 -1.738281 24.65625 -5.21875 L 24.65625 -20.296875 C 24.65625 -22.734375 24.21875 -24.597656 23.34375 -25.890625 C 22.476562 -27.191406 21.460938 -27.84375 20.296875 -27.84375 C 18.828125 -27.84375 17.515625 -27.066406 16.359375 -25.515625 C 15.859375 -24.859375 15.429688 -24.085938 15.078125 -23.203125 L 15.078125 -1.734375 L 18.5625 -0.875 L 18.5625 0 L 2.3125 0 Z M 2.3125 -0.875 "/></g></g></g></svg>