<svg xmlns="http://www.w3.org/2000/svg" xmlns:xlink="http://www.w3.org/1999/xlink" width="300" zoomAndPan="magnify" viewBox="0 0 224.87999 44.999999" height="60" preserveAspectRatio="xMidYMid meet" version="1.0"><defs><filter x="0%" y="0%" width="100%" height="100%" id="1c7307d6a3"><feColorMatrix values="0 0 0 0 1 0 0 0 0 1 0 0 0 0 1 0 0 0 1 0" color-interpolation-filters="sRGB"/></filter><g/><clipPath id="3d470de1e1"><path d="M 0 0.0117188 L 224.761719 0.0117188 L 224.761719 44.988281 L 0 44.988281 Z M 0 0.0117188 " clip-rule="nonzero"/></clipPath><clipPath id="9ab8f324c3"><path d="M 0 0.0117188 L 224.761719 0.0117188 L 224.761719 44.988281 L 0 44.988281 Z M 0 0.0117188 " clip-rule="nonzero"/></clipPath><clipPath id="713dc66dd3"><path d="M 0 0.0117188 L 224.761719 0.0117188 L 224.761719 44.988281 L 0 44.988281 Z M 0 0.0117188 " clip-rule="nonzero"/></clipPath><clipPath id="70699aad8e"><path d="M 0 0.0117188 L 224.761719 0.0117188 L 224.761719 44.988281 L 0 44.988281 Z M 0 0.0117188 " clip-rule="nonzero"/></clipPath><linearGradient x1="32.539001" gradientTransform="matrix(3.758394, 0, 0, 3.751869, -8.169732, -7.514949)" y1="2.006187" x2="32.539001" gradientUnits="userSpaceOnUse" y2="13.99381" id="7bf2f0fc98"><stop stop-opacity="1" stop-color="rgb(1.464844%, 38.583374%, 31.454468%)" offset="0"/><stop stop-opacity="1" stop-color="rgb(1.531982%, 38.68103%, 31.45752%)" offset="0.0078125"/><stop stop-opacity="1" stop-color="rgb(1.669312%, 38.877869%, 31.465149%)" offset="0.015625"/><stop stop-opacity="1" stop-color="rgb(1.805115%, 39.074707%, 31.472778%)" offset="0.0234375"/><stop stop-opacity="1" stop-color="rgb(1.940918%, 39.271545%, 31.480408%)" offset="0.03125"/><stop stop-opacity="1" stop-color="rgb(2.078247%, 39.466858%, 31.489563%)" offset="0.0390625"/><stop stop-opacity="1" stop-color="rgb(2.21405%, 39.663696%, 31.497192%)" offset="0.046875"/><stop stop-opacity="1" stop-color="rgb(2.351379%, 39.860535%, 31.504822%)" offset="0.0546875"/><stop stop-opacity="1" stop-color="rgb(2.487183%, 40.057373%, 31.512451%)" offset="0.0625"/><stop stop-opacity="1" stop-color="rgb(2.622986%, 40.254211%, 31.520081%)" offset="0.0703125"/><stop stop-opacity="1" stop-color="rgb(2.760315%, 40.45105%, 31.52771%)" offset="0.078125"/><stop stop-opacity="1" stop-color="rgb(2.896118%, 40.647888%, 31.536865%)" offset="0.0859375"/><stop stop-opacity="1" stop-color="rgb(3.033447%, 40.844727%, 31.544495%)" offset="0.09375"/><stop stop-opacity="1" stop-color="rgb(3.16925%, 41.041565%, 31.552124%)" offset="0.101562"/><stop stop-opacity="1" stop-color="rgb(3.305054%, 41.238403%, 31.559753%)" offset="0.109375"/><stop stop-opacity="1" stop-color="rgb(3.442383%, 41.435242%, 31.567383%)" offset="0.117188"/><stop stop-opacity="1" stop-color="rgb(3.578186%, 41.63208%, 31.575012%)" offset="0.125"/><stop stop-opacity="1" stop-color="rgb(3.715515%, 41.828918%, 31.584167%)" offset="0.132813"/><stop stop-opacity="1" stop-color="rgb(3.851318%, 42.025757%, 31.591797%)" offset="0.140625"/><stop stop-opacity="1" stop-color="rgb(3.987122%, 42.222595%, 31.599426%)" offset="0.148438"/><stop stop-opacity="1" stop-color="rgb(4.124451%, 42.417908%, 31.607056%)" offset="0.15625"/><stop stop-opacity="1" stop-color="rgb(4.260254%, 42.614746%, 31.614685%)" offset="0.164063"/><stop stop-opacity="1" stop-color="rgb(4.396057%, 42.811584%, 31.62384%)" offset="0.171875"/><stop stop-opacity="1" stop-color="rgb(4.533386%, 43.008423%, 31.63147%)" offset="0.179688"/><stop stop-opacity="1" stop-color="rgb(4.669189%, 43.205261%, 31.639099%)" offset="0.1875"/><stop stop-opacity="1" stop-color="rgb(4.806519%, 43.4021%, 31.646729%)" offset="0.195313"/><stop stop-opacity="1" stop-color="rgb(4.942322%, 43.598938%, 31.654358%)" offset="0.203125"/><stop stop-opacity="1" stop-color="rgb(5.078125%, 43.795776%, 31.661987%)" offset="0.210938"/><stop stop-opacity="1" stop-color="rgb(5.215454%, 43.992615%, 31.671143%)" offset="0.21875"/><stop stop-opacity="1" stop-color="rgb(5.351257%, 44.189453%, 31.678772%)" offset="0.226563"/><stop stop-opacity="1" stop-color="rgb(5.488586%, 44.386292%, 31.686401%)" offset="0.234375"/><stop stop-opacity="1" stop-color="rgb(5.62439%, 44.58313%, 31.694031%)" offset="0.242188"/><stop stop-opacity="1" stop-color="rgb(5.760193%, 44.779968%, 31.70166%)" offset="0.25"/><stop stop-opacity="1" stop-color="rgb(5.897522%, 44.976807%, 31.70929%)" offset="0.257813"/><stop stop-opacity="1" stop-color="rgb(6.033325%, 45.173645%, 31.718445%)" offset="0.265625"/><stop stop-opacity="1" stop-color="rgb(6.170654%, 45.370483%, 31.726074%)" offset="0.273438"/><stop stop-opacity="1" stop-color="rgb(6.306458%, 45.565796%, 31.733704%)" offset="0.28125"/><stop stop-opacity="1" stop-color="rgb(6.442261%, 45.762634%, 31.741333%)" offset="0.289063"/><stop stop-opacity="1" stop-color="rgb(6.57959%, 45.959473%, 31.748962%)" offset="0.296875"/><stop stop-opacity="1" stop-color="rgb(6.715393%, 46.156311%, 31.756592%)" offset="0.304688"/><stop stop-opacity="1" stop-color="rgb(6.852722%, 46.353149%, 31.765747%)" offset="0.3125"/><stop stop-opacity="1" stop-color="rgb(6.988525%, 46.549988%, 31.773376%)" offset="0.320313"/><stop stop-opacity="1" stop-color="rgb(7.124329%, 46.746826%, 31.781006%)" offset="0.328125"/><stop stop-opacity="1" stop-color="rgb(7.261658%, 46.943665%, 31.788635%)" offset="0.335938"/><stop stop-opacity="1" stop-color="rgb(7.397461%, 47.140503%, 31.796265%)" offset="0.34375"/><stop stop-opacity="1" stop-color="rgb(7.533264%, 47.337341%, 31.80542%)" offset="0.351563"/><stop stop-opacity="1" stop-color="rgb(7.670593%, 47.53418%, 31.813049%)" offset="0.359375"/><stop stop-opacity="1" stop-color="rgb(7.806396%, 47.731018%, 31.820679%)" offset="0.367188"/><stop stop-opacity="1" stop-color="rgb(7.943726%, 47.927856%, 31.828308%)" offset="0.375"/><stop stop-opacity="1" stop-color="rgb(8.079529%, 48.124695%, 31.835938%)" offset="0.382813"/><stop stop-opacity="1" stop-color="rgb(8.215332%, 48.321533%, 31.843567%)" offset="0.390625"/><stop stop-opacity="1" stop-color="rgb(8.352661%, 48.516846%, 31.852722%)" offset="0.398438"/><stop stop-opacity="1" stop-color="rgb(8.488464%, 48.713684%, 31.860352%)" offset="0.40625"/><stop stop-opacity="1" stop-color="rgb(8.625793%, 48.910522%, 31.867981%)" offset="0.414063"/><stop stop-opacity="1" stop-color="rgb(8.761597%, 49.107361%, 31.87561%)" offset="0.421875"/><stop stop-opacity="1" stop-color="rgb(8.8974%, 49.304199%, 31.88324%)" offset="0.429688"/><stop stop-opacity="1" stop-color="rgb(9.034729%, 49.501038%, 31.890869%)" offset="0.4375"/><stop stop-opacity="1" stop-color="rgb(9.170532%, 49.697876%, 31.900024%)" offset="0.445313"/><stop stop-opacity="1" stop-color="rgb(9.307861%, 49.894714%, 31.907654%)" offset="0.453125"/><stop stop-opacity="1" stop-color="rgb(9.443665%, 50.091553%, 31.915283%)" offset="0.460938"/><stop stop-opacity="1" stop-color="rgb(9.579468%, 50.288391%, 31.922913%)" offset="0.46875"/><stop stop-opacity="1" stop-color="rgb(9.716797%, 50.485229%, 31.930542%)" offset="0.476563"/><stop stop-opacity="1" stop-color="rgb(9.8526%, 50.682068%, 31.938171%)" offset="0.484375"/><stop stop-opacity="1" stop-color="rgb(9.989929%, 50.878906%, 31.947327%)" offset="0.492188"/><stop stop-opacity="1" stop-color="rgb(10.125732%, 51.075745%, 31.954956%)" offset="0.5"/><stop stop-opacity="1" stop-color="rgb(10.261536%, 51.272583%, 31.962585%)" offset="0.507812"/><stop stop-opacity="1" stop-color="rgb(10.398865%, 51.467896%, 31.970215%)" offset="0.515625"/><stop stop-opacity="1" stop-color="rgb(10.534668%, 51.664734%, 31.977844%)" offset="0.523438"/><stop stop-opacity="1" stop-color="rgb(10.670471%, 51.861572%, 31.985474%)" offset="0.53125"/><stop stop-opacity="1" stop-color="rgb(10.8078%, 52.058411%, 31.994629%)" offset="0.539062"/><stop stop-opacity="1" stop-color="rgb(10.943604%, 52.255249%, 32.002258%)" offset="0.546875"/><stop stop-opacity="1" stop-color="rgb(11.080933%, 52.452087%, 32.009888%)" offset="0.554688"/><stop stop-opacity="1" stop-color="rgb(11.216736%, 52.648926%, 32.017517%)" offset="0.5625"/><stop stop-opacity="1" stop-color="rgb(11.352539%, 52.845764%, 32.025146%)" offset="0.570312"/><stop stop-opacity="1" stop-color="rgb(11.489868%, 53.042603%, 32.034302%)" offset="0.578125"/><stop stop-opacity="1" stop-color="rgb(11.625671%, 53.239441%, 32.041931%)" offset="0.585938"/><stop stop-opacity="1" stop-color="rgb(11.763%, 53.436279%, 32.049561%)" offset="0.59375"/><stop stop-opacity="1" stop-color="rgb(11.898804%, 53.633118%, 32.05719%)" offset="0.601562"/><stop stop-opacity="1" stop-color="rgb(12.034607%, 53.829956%, 32.064819%)" offset="0.609375"/><stop stop-opacity="1" stop-color="rgb(12.171936%, 54.026794%, 32.072449%)" offset="0.617188"/><stop stop-opacity="1" stop-color="rgb(12.307739%, 54.223633%, 32.081604%)" offset="0.625"/><stop stop-opacity="1" stop-color="rgb(12.445068%, 54.420471%, 32.089233%)" offset="0.632813"/><stop stop-opacity="1" stop-color="rgb(12.580872%, 54.615784%, 32.096863%)" offset="0.640625"/><stop stop-opacity="1" stop-color="rgb(12.716675%, 54.812622%, 32.104492%)" offset="0.648438"/><stop stop-opacity="1" stop-color="rgb(12.854004%, 55.00946%, 32.112122%)" offset="0.65625"/><stop stop-opacity="1" stop-color="rgb(12.989807%, 55.206299%, 32.119751%)" offset="0.664062"/><stop stop-opacity="1" stop-color="rgb(13.12561%, 55.403137%, 32.128906%)" offset="0.671875"/><stop stop-opacity="1" stop-color="rgb(13.262939%, 55.599976%, 32.136536%)" offset="0.679688"/><stop stop-opacity="1" stop-color="rgb(13.398743%, 55.796814%, 32.144165%)" offset="0.6875"/><stop stop-opacity="1" stop-color="rgb(13.536072%, 55.993652%, 32.151794%)" offset="0.695313"/><stop stop-opacity="1" stop-color="rgb(13.671875%, 56.190491%, 32.159424%)" offset="0.703125"/><stop stop-opacity="1" stop-color="rgb(13.807678%, 56.387329%, 32.167053%)" offset="0.710938"/><stop stop-opacity="1" stop-color="rgb(13.945007%, 56.584167%, 32.176208%)" offset="0.71875"/><stop stop-opacity="1" stop-color="rgb(14.080811%, 56.781006%, 32.183838%)" offset="0.726562"/><stop stop-opacity="1" stop-color="rgb(14.21814%, 56.977844%, 32.191467%)" offset="0.734375"/><stop stop-opacity="1" stop-color="rgb(14.353943%, 57.174683%, 32.199097%)" offset="0.742188"/><stop stop-opacity="1" stop-color="rgb(14.489746%, 57.371521%, 32.206726%)" offset="0.75"/><stop stop-opacity="1" stop-color="rgb(14.627075%, 57.566833%, 32.215881%)" offset="0.757813"/><stop stop-opacity="1" stop-color="rgb(14.762878%, 57.763672%, 32.223511%)" offset="0.765625"/><stop stop-opacity="1" stop-color="rgb(14.900208%, 57.96051%, 32.23114%)" offset="0.773438"/><stop stop-opacity="1" stop-color="rgb(15.036011%, 58.157349%, 32.23877%)" offset="0.78125"/><stop stop-opacity="1" stop-color="rgb(15.171814%, 58.354187%, 32.246399%)" offset="0.789062"/><stop stop-opacity="1" stop-color="rgb(15.309143%, 58.551025%, 32.254028%)" offset="0.796875"/><stop stop-opacity="1" stop-color="rgb(15.444946%, 58.747864%, 32.263184%)" offset="0.804688"/><stop stop-opacity="1" stop-color="rgb(15.582275%, 58.944702%, 32.270813%)" offset="0.8125"/><stop stop-opacity="1" stop-color="rgb(15.718079%, 59.141541%, 32.278442%)" offset="0.820313"/><stop stop-opacity="1" stop-color="rgb(15.853882%, 59.338379%, 32.286072%)" offset="0.828125"/><stop stop-opacity="1" stop-color="rgb(15.991211%, 59.535217%, 32.293701%)" offset="0.835938"/><stop stop-opacity="1" stop-color="rgb(16.127014%, 59.732056%, 32.301331%)" offset="0.84375"/><stop stop-opacity="1" stop-color="rgb(16.262817%, 59.928894%, 32.310486%)" offset="0.851562"/><stop stop-opacity="1" stop-color="rgb(16.400146%, 60.125732%, 32.318115%)" offset="0.859375"/><stop stop-opacity="1" stop-color="rgb(16.53595%, 60.322571%, 32.325745%)" offset="0.867188"/><stop stop-opacity="1" stop-color="rgb(16.673279%, 60.517883%, 32.333374%)" offset="0.875"/><stop stop-opacity="1" stop-color="rgb(16.809082%, 60.714722%, 32.341003%)" offset="0.882813"/><stop stop-opacity="1" stop-color="rgb(16.944885%, 60.91156%, 32.348633%)" offset="0.890625"/><stop stop-opacity="1" stop-color="rgb(17.082214%, 61.108398%, 32.357788%)" offset="0.898438"/><stop stop-opacity="1" stop-color="rgb(17.218018%, 61.305237%, 32.365417%)" offset="0.90625"/><stop stop-opacity="1" stop-color="rgb(17.355347%, 61.502075%, 32.373047%)" offset="0.914062"/><stop stop-opacity="1" stop-color="rgb(17.49115%, 61.698914%, 32.380676%)" offset="0.921875"/><stop stop-opacity="1" stop-color="rgb(17.626953%, 61.895752%, 32.388306%)" offset="0.929688"/><stop stop-opacity="1" stop-color="rgb(17.764282%, 62.09259%, 32.397461%)" offset="0.9375"/><stop stop-opacity="1" stop-color="rgb(17.900085%, 62.289429%, 32.40509%)" offset="0.945313"/><stop stop-opacity="1" stop-color="rgb(18.037415%, 62.486267%, 32.41272%)" offset="0.953125"/><stop stop-opacity="1" stop-color="rgb(18.173218%, 62.683105%, 32.420349%)" offset="0.960938"/><stop stop-opacity="1" stop-color="rgb(18.309021%, 62.879944%, 32.427979%)" offset="0.96875"/><stop stop-opacity="1" stop-color="rgb(18.44635%, 63.076782%, 32.435608%)" offset="0.976562"/><stop stop-opacity="1" stop-color="rgb(18.582153%, 63.273621%, 32.444763%)" offset="0.984375"/><stop stop-opacity="1" stop-color="rgb(18.719482%, 63.470459%, 32.452393%)" offset="0.992188"/><stop stop-opacity="1" stop-color="rgb(18.855286%, 63.665771%, 32.460022%)" offset="1"/></linearGradient><clipPath id="c6b8a9d05b"><rect x="0" width="225" y="0" height="45"/></clipPath><clipPath id="38c8be08bd"><path d="M 0 0.0117188 L 224.761719 0.0117188 L 224.761719 44.988281 L 0 44.988281 Z M 0 0.0117188 " clip-rule="nonzero"/></clipPath><clipPath id="500ff36369"><rect x="0" width="225" y="0" height="45"/></clipPath><clipPath id="a107fa644b"><rect x="0" width="225" y="0" height="45"/></clipPath><mask id="f6704e6fe3"><g filter="url(#1c7307d6a3)"><g transform="matrix(1, 0, 0, 1, 0, 0.000000000000008174)"><g clip-path="url(#a107fa644b)"><g clip-path="url(#38c8be08bd)"><g transform="matrix(1, 0, 0, 1, 0, 0.000000000000008174)"><g clip-path="url(#500ff36369)"><g fill="#000000" fill-opacity="1"><g transform="translate(0.145252, 37.509631)"><g><path d="M 2.25 -0.671875 L 4.953125 -1.34375 L 4.953125 -30.171875 L 2.25 -30.84375 L 2.25 -31.515625 L 14.1875 -31.515625 C 19.289062 -31.515625 22.96875 -30.742188 25.21875 -29.203125 C 27.46875 -27.660156 28.59375 -25.503906 28.59375 -22.734375 C 28.59375 -20.878906 28.097656 -19.375 27.109375 -18.21875 C 26.117188 -17.0625 24.84375 -16.195312 23.28125 -15.625 C 21.625 -15 19.867188 -14.671875 18.015625 -14.640625 L 18.015625 -14.40625 C 19.117188 -14.34375 20.09375 -14.179688 20.9375 -13.921875 C 23.039062 -13.253906 24.46875 -12.066406 25.21875 -10.359375 L 29.265625 -1.34375 L 31.515625 -0.671875 L 31.515625 0 L 25.21875 0 C 22.757812 0 20.957031 -1.273438 19.8125 -3.828125 L 15.3125 -13.953125 L 12.390625 -13.953125 L 12.390625 -1.34375 L 15.53125 -0.671875 L 15.53125 0 L 2.25 0 Z M 14.1875 -15.078125 C 16.289062 -15.078125 17.941406 -15.738281 19.140625 -17.0625 C 20.335938 -18.382812 20.9375 -20.273438 20.9375 -22.734375 C 20.9375 -25.203125 20.335938 -27.09375 19.140625 -28.40625 C 17.941406 -29.726562 16.289062 -30.390625 14.1875 -30.390625 L 12.390625 -30.390625 L 12.390625 -15.078125 Z M 14.1875 -15.078125 "/></g></g></g><g fill="#000000" fill-opacity="1"><g transform="translate(31.66569, 37.509631)"><g><path d="M 13.953125 0.671875 C 10.117188 0.671875 7.132812 -0.382812 5 -2.5 C 2.863281 -4.613281 1.796875 -7.535156 1.796875 -11.265625 C 1.796875 -13.691406 2.257812 -15.804688 3.1875 -17.609375 C 4.125 -19.410156 5.425781 -20.789062 7.09375 -21.75 C 8.757812 -22.707031 10.671875 -23.1875 12.828125 -23.1875 C 14.992188 -23.1875 16.894531 -22.78125 18.53125 -21.96875 C 20.164062 -21.164062 21.425781 -20.078125 22.3125 -18.703125 C 23.195312 -17.335938 23.640625 -15.832031 23.640625 -14.1875 C 23.640625 -13.4375 23.566406 -12.789062 23.421875 -12.25 L 23.1875 -11.484375 C 21.894531 -11.210938 20.5 -10.988281 19 -10.8125 C 15.851562 -10.351562 12.671875 -10.125 9.453125 -10.125 C 9.453125 -6.644531 9.929688 -4.160156 10.890625 -2.671875 C 11.859375 -1.191406 13.179688 -0.453125 14.859375 -0.453125 C 16.023438 -0.453125 17.113281 -0.726562 18.125 -1.28125 C 19.132812 -1.832031 19.929688 -2.566406 20.515625 -3.484375 C 21.097656 -4.398438 21.390625 -5.335938 21.390625 -6.296875 L 22.515625 -6.296875 C 22.515625 -5.097656 22.15625 -3.957031 21.4375 -2.875 C 20.71875 -1.800781 19.710938 -0.941406 18.421875 -0.296875 C 17.128906 0.347656 15.640625 0.671875 13.953125 0.671875 Z M 9.453125 -11.265625 C 11.378906 -11.265625 12.941406 -11.335938 14.140625 -11.484375 C 14.648438 -11.515625 15.191406 -11.585938 15.765625 -11.703125 C 15.796875 -11.859375 15.867188 -12.191406 15.984375 -12.703125 C 16.140625 -13.453125 16.21875 -14.242188 16.21875 -15.078125 C 16.21875 -17.578125 15.882812 -19.40625 15.21875 -20.5625 C 14.5625 -21.71875 13.765625 -22.296875 12.828125 -22.296875 C 10.578125 -22.296875 9.453125 -18.617188 9.453125 -11.265625 Z M 9.453125 -11.265625 "/></g></g></g><g fill="#000000" fill-opacity="1"><g transform="translate(56.882052, 37.509631)"><g><path d="M 12.390625 0.671875 C 10.523438 0.671875 8.859375 0.265625 7.390625 -0.546875 C 6.660156 -0.929688 6.070312 -1.347656 5.625 -1.796875 C 5.144531 -1.140625 4.617188 -0.628906 4.046875 -0.265625 C 3.773438 -0.0859375 3.476562 0.0703125 3.15625 0.21875 L 2.03125 0.21875 L 2.03125 -7.4375 L 3.828125 -7.4375 C 4.210938 -6.164062 4.78125 -4.992188 5.53125 -3.921875 C 7.125 -1.609375 9.109375 -0.453125 11.484375 -0.453125 C 12.742188 -0.453125 13.695312 -0.757812 14.34375 -1.375 C 14.988281 -1.988281 15.3125 -2.878906 15.3125 -4.046875 C 15.3125 -5.035156 14.867188 -5.867188 13.984375 -6.546875 C 13.097656 -7.222656 11.707031 -8.054688 9.8125 -9.046875 C 8.195312 -9.859375 6.882812 -10.585938 5.875 -11.234375 C 4.875 -11.878906 4.019531 -12.6875 3.3125 -13.65625 C 2.601562 -14.632812 2.25 -15.785156 2.25 -17.109375 C 2.25 -18.910156 3.019531 -20.375 4.5625 -21.5 C 6.113281 -22.625 8.492188 -23.1875 11.703125 -23.1875 C 13.296875 -23.1875 14.769531 -22.769531 16.125 -21.9375 C 16.78125 -21.539062 17.347656 -21.132812 17.828125 -20.71875 C 18.222656 -21.257812 18.75 -21.769531 19.40625 -22.25 C 19.914062 -22.550781 20.21875 -22.710938 20.3125 -22.734375 L 21.4375 -22.734375 L 21.4375 -15.078125 L 19.640625 -15.078125 C 19.179688 -16.367188 18.625 -17.523438 17.96875 -18.546875 C 16.46875 -20.890625 14.679688 -22.0625 12.609375 -22.0625 C 11.796875 -22.0625 11.101562 -21.757812 10.53125 -21.15625 C 9.96875 -20.5625 9.6875 -19.8125 9.6875 -18.90625 C 9.6875 -17.769531 10.164062 -16.816406 11.125 -16.046875 C 12.082031 -15.285156 13.535156 -14.410156 15.484375 -13.421875 C 17.078125 -12.609375 18.347656 -11.894531 19.296875 -11.28125 C 20.242188 -10.664062 21.050781 -9.90625 21.71875 -9 C 22.394531 -8.101562 22.734375 -7.054688 22.734375 -5.859375 C 22.734375 -1.503906 19.285156 0.671875 12.390625 0.671875 Z M 12.390625 0.671875 "/></g></g></g><g fill="#000000" fill-opacity="1"><g transform="translate(81.197816, 37.509631)"><g><path d="M 13.734375 0.671875 C 10.015625 0.671875 7.09375 -0.382812 4.96875 -2.5 C 2.851562 -4.613281 1.796875 -7.535156 1.796875 -11.265625 C 1.796875 -14.984375 2.851562 -17.898438 4.96875 -20.015625 C 7.09375 -22.128906 10.015625 -23.1875 13.734375 -23.1875 C 17.453125 -23.1875 20.367188 -22.128906 22.484375 -20.015625 C 24.609375 -17.898438 25.671875 -14.984375 25.671875 -11.265625 C 25.671875 -7.535156 24.609375 -4.613281 22.484375 -2.5 C 20.367188 -0.382812 17.453125 0.671875 13.734375 0.671875 Z M 13.734375 -0.21875 C 14.929688 -0.21875 15.941406 -1.054688 16.765625 -2.734375 C 17.597656 -4.421875 18.015625 -7.265625 18.015625 -11.265625 C 18.015625 -15.253906 17.597656 -18.085938 16.765625 -19.765625 C 15.941406 -21.453125 14.929688 -22.296875 13.734375 -22.296875 C 12.535156 -22.296875 11.519531 -21.453125 10.6875 -19.765625 C 9.863281 -18.085938 9.453125 -15.253906 9.453125 -11.265625 C 9.453125 -7.265625 9.863281 -4.421875 10.6875 -2.734375 C 11.519531 -1.054688 12.535156 -0.21875 13.734375 -0.21875 Z M 13.734375 -0.21875 "/></g></g></g><g fill="#000000" fill-opacity="1"><g transform="translate(108.665646, 37.509631)"><g><path d="M 1.796875 -0.671875 L 4.5 -1.34375 L 4.5 -21.171875 L 1.796875 -21.84375 L 1.796875 -22.515625 L 5.859375 -22.515625 C 7.628906 -22.515625 9.023438 -21.941406 10.046875 -20.796875 C 10.429688 -20.347656 10.757812 -19.796875 11.03125 -19.140625 C 11.476562 -19.796875 12.035156 -20.394531 12.703125 -20.9375 C 14.203125 -22.132812 15.882812 -22.734375 17.75 -22.734375 C 19.332031 -22.734375 20.519531 -22.363281 21.3125 -21.625 C 22.113281 -20.894531 22.515625 -19.84375 22.515625 -18.46875 C 22.515625 -17.445312 22.207031 -16.625 21.59375 -16 C 20.976562 -15.382812 20.160156 -15.078125 19.140625 -15.078125 C 18.722656 -15.078125 18.300781 -15.109375 17.875 -15.171875 L 17.34375 -15.3125 L 17.34375 -21.609375 C 15.8125 -21.609375 14.414062 -21.007812 13.15625 -19.8125 C 12.550781 -19.207031 12.066406 -18.609375 11.703125 -18.015625 L 11.703125 -1.34375 L 14.40625 -0.671875 L 14.40625 0 L 1.796875 0 Z M 1.796875 -0.671875 "/></g></g></g><g fill="#000000" fill-opacity="1"><g transform="translate(131.855675, 37.509631)"><g><path d="M 13.515625 0.671875 C 11.523438 0.671875 9.800781 0.3125 8.34375 -0.40625 C 6.894531 -1.125 5.78125 -2.113281 5 -3.375 C 4.21875 -4.632812 3.828125 -6.0625 3.828125 -7.65625 L 3.828125 -21.390625 L 0.671875 -21.390625 L 0.671875 -22.515625 L 3.828125 -22.515625 L 3.828125 -24.765625 C 3.828125 -27.460938 5.175781 -28.8125 7.875 -28.8125 L 11.03125 -28.8125 L 11.03125 -22.515625 L 17.34375 -22.515625 L 17.34375 -21.390625 L 11.03125 -21.390625 L 11.03125 -7.65625 C 11.03125 -4.894531 11.316406 -3.003906 11.890625 -1.984375 C 12.460938 -0.960938 13.300781 -0.453125 14.40625 -0.453125 C 15.488281 -0.453125 16.4375 -0.976562 17.25 -2.03125 C 18.0625 -3.082031 18.46875 -4.503906 18.46875 -6.296875 L 19.59375 -6.296875 C 19.59375 -4.078125 19.035156 -2.359375 17.921875 -1.140625 C 16.804688 0.0664062 15.335938 0.671875 13.515625 0.671875 Z M 13.515625 0.671875 "/></g></g></g><g fill="#000000" fill-opacity="1"><g transform="translate(152.11883, 37.509631)"><g><path d="M 1.796875 -0.671875 L 4.5 -1.34375 L 4.5 -21.171875 L 1.796875 -21.84375 L 1.796875 -22.515625 L 7.65625 -22.515625 C 10.351562 -22.515625 11.703125 -21.164062 11.703125 -18.46875 L 11.703125 -1.34375 L 14.40625 -0.671875 L 14.40625 0 L 1.796875 0 Z M 7.65625 -25.21875 C 6.75 -25.21875 5.992188 -25.515625 5.390625 -26.109375 C 4.796875 -26.710938 4.5 -27.46875 4.5 -28.375 C 4.5 -29.269531 4.796875 -30.015625 5.390625 -30.609375 C 5.992188 -31.210938 6.75 -31.515625 7.65625 -31.515625 C 8.550781 -31.515625 9.296875 -31.210938 9.890625 -30.609375 C 10.492188 -30.015625 10.796875 -29.269531 10.796875 -28.375 C 10.796875 -27.46875 10.492188 -26.710938 9.890625 -26.109375 C 9.296875 -25.515625 8.550781 -25.21875 7.65625 -25.21875 Z M 7.65625 -25.21875 "/></g></g></g><g fill="#000000" fill-opacity="1"><g transform="translate(167.428778, 37.509631)"><g><path d="M 10.578125 0.671875 C 7.910156 0.671875 5.851562 0.101562 4.40625 -1.03125 C 2.96875 -2.175781 2.25 -3.632812 2.25 -5.40625 C 2.25 -6.570312 2.503906 -7.726562 3.015625 -8.875 C 3.222656 -9.414062 3.492188 -9.910156 3.828125 -10.359375 C 5.054688 -10.660156 6.390625 -10.929688 7.828125 -11.171875 C 11.078125 -11.710938 13.945312 -12.039062 16.4375 -12.15625 L 16.4375 -13.515625 C 16.4375 -16.847656 16.03125 -19.144531 15.21875 -20.40625 C 14.40625 -21.664062 13.160156 -22.296875 11.484375 -22.296875 C 10.847656 -22.296875 10.304688 -22.21875 9.859375 -22.0625 L 9.234375 -21.84375 L 9.234375 -15.078125 L 8.640625 -14.953125 C 8.160156 -14.890625 7.757812 -14.859375 7.4375 -14.859375 C 6.414062 -14.859375 5.59375 -15.164062 4.96875 -15.78125 C 4.351562 -16.394531 4.046875 -17.210938 4.046875 -18.234375 C 4.046875 -19.617188 4.742188 -20.789062 6.140625 -21.75 C 7.535156 -22.707031 9.617188 -23.1875 12.390625 -23.1875 C 14.722656 -23.1875 16.738281 -22.773438 18.4375 -21.953125 C 20.132812 -21.128906 21.425781 -19.988281 22.3125 -18.53125 C 23.195312 -17.070312 23.640625 -15.398438 23.640625 -13.515625 L 23.640625 -1.34375 L 26.34375 -0.671875 L 26.34375 0 L 22.296875 0 C 20.492188 0 19.097656 -0.554688 18.109375 -1.671875 C 17.679688 -2.117188 17.347656 -2.6875 17.109375 -3.375 C 16.691406 -2.625 16.195312 -1.945312 15.625 -1.34375 C 14.269531 0 12.585938 0.671875 10.578125 0.671875 Z M 12.390625 -0.90625 C 13.492188 -0.90625 14.5 -1.503906 15.40625 -2.703125 C 15.726562 -3.148438 16.070312 -3.75 16.4375 -4.5 L 16.4375 -11.03125 C 15.050781 -11.03125 13.726562 -10.957031 12.46875 -10.8125 C 11.539062 -10.6875 10.910156 -10.609375 10.578125 -10.578125 C 10.429688 -10.253906 10.28125 -9.804688 10.125 -9.234375 C 9.832031 -8.085938 9.6875 -6.960938 9.6875 -5.859375 C 9.6875 -4.171875 9.941406 -2.921875 10.453125 -2.109375 C 10.960938 -1.304688 11.609375 -0.90625 12.390625 -0.90625 Z M 12.390625 -0.90625 "/></g></g></g><g fill="#000000" fill-opacity="1"><g transform="translate(194.671473, 37.509631)"><g><path d="M 1.796875 -0.671875 L 4.5 -1.34375 L 4.5 -21.171875 L 1.796875 -21.84375 L 1.796875 -22.515625 L 5.859375 -22.515625 C 7.628906 -22.515625 9.023438 -21.941406 10.046875 -20.796875 C 10.429688 -20.347656 10.757812 -19.796875 11.03125 -19.140625 C 11.445312 -19.921875 11.941406 -20.597656 12.515625 -21.171875 C 13.867188 -22.515625 15.550781 -23.1875 17.5625 -23.1875 C 19.238281 -23.1875 20.742188 -22.832031 22.078125 -22.125 C 23.421875 -21.425781 24.46875 -20.503906 25.21875 -19.359375 C 25.96875 -18.222656 26.34375 -17.023438 26.34375 -15.765625 L 26.34375 -1.34375 L 29.046875 -0.671875 L 29.046875 0 L 23.1875 0 C 20.488281 0 19.140625 -1.347656 19.140625 -4.046875 L 19.140625 -15.765625 C 19.140625 -17.648438 18.800781 -19.09375 18.125 -20.09375 C 17.445312 -21.101562 16.660156 -21.609375 15.765625 -21.609375 C 14.617188 -21.609375 13.597656 -21.007812 12.703125 -19.8125 C 12.304688 -19.300781 11.972656 -18.703125 11.703125 -18.015625 L 11.703125 -1.34375 L 14.40625 -0.671875 L 14.40625 0 L 1.796875 0 Z M 1.796875 -0.671875 "/></g></g></g></g></g></g></g></g></g></mask><clipPath id="6341c4d270"><path d="M 0 0.0117188 L 224.761719 0.0117188 L 224.761719 44.988281 L 0 44.988281 Z M 0 0.0117188 " clip-rule="nonzero"/></clipPath><clipPath id="33a5dd8bd7"><rect x="0" width="225" y="0" height="45"/></clipPath><clipPath id="0d6ec619bc"><rect x="0" width="225" y="0" height="45"/></clipPath><clipPath id="94dcd32cb3"><rect x="0" width="225" y="0" height="45"/></clipPath></defs><g clip-path="url(#3d470de1e1)"><g transform="matrix(1, 0, 0, 1, 0, 0.000000000000008174)"><g clip-path="url(#94dcd32cb3)"><g clip-path="url(#9ab8f324c3)"><g transform="matrix(1, 0, 0, 1, 0, 0.000000000000008174)"><g clip-path="url(#0d6ec619bc)"><g clip-path="url(#713dc66dd3)"><g mask="url(#f6704e6fe3)"><g transform="matrix(1, 0, 0, 1, 0, 0.000000000000008174)"><g clip-path="url(#33a5dd8bd7)"><g clip-path="url(#6341c4d270)"><path fill="url(#7bf2f0fc98)" d="M 0 0.0117188 L 0 44.988281 L 224.761719 44.988281 L 224.761719 0.0117188 Z M 0 0.0117188 " fill-rule="nonzero"/></g></g></g></g></g></g></g></g></g></g></g></svg>