<svg xmlns="http://www.w3.org/2000/svg" xmlns:xlink="http://www.w3.org/1999/xlink" width="300" zoomAndPan="magnify" viewBox="0 0 224.87999 44.999999" height="60" preserveAspectRatio="xMidYMid meet" version="1.0"><defs><g/><clipPath id="89b28993eb"><path d="M 0 0.0117188 L 224.761719 0.0117188 L 224.761719 44.988281 L 0 44.988281 Z M 0 0.0117188 " clip-rule="nonzero"/></clipPath><clipPath id="e4d48d3493"><rect x="0" width="225" y="0" height="45"/></clipPath></defs><g clip-path="url(#89b28993eb)"><g transform="matrix(1, 0, 0, 1, 0, 0.000000000000008174)"><g clip-path="url(#e4d48d3493)"><g fill="#000000" fill-opacity="1"><g transform="translate(0.119536, 37.403824)"><g><path d="M 2.25 -0.671875 L 4.9375 -1.34375 L 4.9375 -30.09375 L 2.25 -30.765625 L 2.25 -31.4375 L 14.140625 -31.4375 C 19.234375 -31.4375 22.898438 -30.664062 25.140625 -29.125 C 27.390625 -27.582031 28.515625 -25.429688 28.515625 -22.671875 C 28.515625 -20.816406 28.019531 -19.3125 27.03125 -18.15625 C 26.039062 -17.007812 24.769531 -16.148438 23.21875 -15.578125 C 21.570312 -14.953125 19.820312 -14.625 17.96875 -14.59375 L 17.96875 -14.375 C 19.070312 -14.3125 20.039062 -14.144531 20.875 -13.875 C 22.976562 -13.21875 24.398438 -12.035156 25.140625 -10.328125 L 29.1875 -1.34375 L 31.4375 -0.671875 L 31.4375 0 L 25.140625 0 C 22.691406 0 20.898438 -1.269531 19.765625 -3.8125 L 15.265625 -13.921875 L 12.34375 -13.921875 L 12.34375 -1.34375 L 15.5 -0.671875 L 15.5 0 L 2.25 0 Z M 14.140625 -15.046875 C 16.234375 -15.046875 17.878906 -15.703125 19.078125 -17.015625 C 20.273438 -18.335938 20.875 -20.222656 20.875 -22.671875 C 20.875 -25.128906 20.273438 -27.015625 19.078125 -28.328125 C 17.878906 -29.648438 16.234375 -30.3125 14.140625 -30.3125 L 12.34375 -30.3125 L 12.34375 -15.046875 Z M 14.140625 -15.046875 "/></g></g></g><g fill="#000000" fill-opacity="1"><g transform="translate(31.557679, 37.403824)"><g><path d="M 13.921875 0.671875 C 10.085938 0.671875 7.109375 -0.378906 4.984375 -2.484375 C 2.859375 -4.597656 1.796875 -7.507812 1.796875 -11.21875 C 1.796875 -13.644531 2.257812 -15.753906 3.1875 -17.546875 C 4.113281 -19.347656 5.40625 -20.726562 7.0625 -21.6875 C 8.726562 -22.644531 10.640625 -23.125 12.796875 -23.125 C 14.953125 -23.125 16.84375 -22.71875 18.46875 -21.90625 C 20.101562 -21.101562 21.363281 -20.019531 22.25 -18.65625 C 23.132812 -17.289062 23.578125 -15.785156 23.578125 -14.140625 C 23.578125 -13.390625 23.5 -12.75 23.34375 -12.21875 L 23.125 -11.453125 C 21.84375 -11.179688 20.453125 -10.957031 18.953125 -10.78125 C 15.804688 -10.332031 12.632812 -10.109375 9.4375 -10.109375 C 9.4375 -6.628906 9.910156 -4.148438 10.859375 -2.671875 C 11.816406 -1.191406 13.132812 -0.453125 14.8125 -0.453125 C 15.988281 -0.453125 17.078125 -0.726562 18.078125 -1.28125 C 19.078125 -1.832031 19.867188 -2.5625 20.453125 -3.46875 C 21.035156 -4.382812 21.328125 -5.320312 21.328125 -6.28125 L 22.453125 -6.28125 C 22.453125 -5.082031 22.09375 -3.941406 21.375 -2.859375 C 20.65625 -1.785156 19.648438 -0.925781 18.359375 -0.28125 C 17.078125 0.351562 15.597656 0.671875 13.921875 0.671875 Z M 9.4375 -11.21875 C 11.34375 -11.21875 12.894531 -11.296875 14.09375 -11.453125 C 14.601562 -11.484375 15.144531 -11.554688 15.71875 -11.671875 C 15.75 -11.828125 15.820312 -12.15625 15.9375 -12.65625 C 16.09375 -13.40625 16.171875 -14.203125 16.171875 -15.046875 C 16.171875 -17.523438 15.835938 -19.34375 15.171875 -20.5 C 14.515625 -21.65625 13.722656 -22.234375 12.796875 -22.234375 C 10.554688 -22.234375 9.4375 -18.5625 9.4375 -11.21875 Z M 9.4375 -11.21875 "/></g></g></g><g fill="#000000" fill-opacity="1"><g transform="translate(56.708206, 37.403824)"><g><path d="M 12.34375 0.671875 C 10.488281 0.671875 8.828125 0.269531 7.359375 -0.53125 C 6.640625 -0.925781 6.054688 -1.347656 5.609375 -1.796875 C 5.128906 -1.140625 4.609375 -0.628906 4.046875 -0.265625 C 3.773438 -0.0859375 3.472656 0.0703125 3.140625 0.21875 L 2.015625 0.21875 L 2.015625 -7.40625 L 3.8125 -7.40625 C 4.207031 -6.15625 4.78125 -4.988281 5.53125 -3.90625 C 7.113281 -1.601562 9.085938 -0.453125 11.453125 -0.453125 C 12.710938 -0.453125 13.660156 -0.757812 14.296875 -1.375 C 14.941406 -1.988281 15.265625 -2.878906 15.265625 -4.046875 C 15.265625 -5.035156 14.820312 -5.863281 13.9375 -6.53125 C 13.0625 -7.207031 11.679688 -8.039062 9.796875 -9.03125 C 8.171875 -9.832031 6.859375 -10.554688 5.859375 -11.203125 C 4.859375 -11.847656 4.003906 -12.65625 3.296875 -13.625 C 2.597656 -14.601562 2.25 -15.75 2.25 -17.0625 C 2.25 -18.863281 3.019531 -20.320312 4.5625 -21.4375 C 6.101562 -22.5625 8.472656 -23.125 11.671875 -23.125 C 13.265625 -23.125 14.734375 -22.707031 16.078125 -21.875 C 16.734375 -21.476562 17.300781 -21.070312 17.78125 -20.65625 C 18.164062 -21.195312 18.691406 -21.707031 19.359375 -22.1875 C 19.867188 -22.476562 20.164062 -22.640625 20.25 -22.671875 L 21.375 -22.671875 L 21.375 -15.046875 L 19.578125 -15.046875 C 19.128906 -16.328125 18.578125 -17.476562 17.921875 -18.5 C 16.421875 -20.832031 14.640625 -22 12.578125 -22 C 11.765625 -22 11.070312 -21.695312 10.5 -21.09375 C 9.9375 -20.5 9.65625 -19.753906 9.65625 -18.859375 C 9.65625 -17.722656 10.132812 -16.769531 11.09375 -16 C 12.050781 -15.238281 13.503906 -14.363281 15.453125 -13.375 C 17.035156 -12.570312 18.296875 -11.863281 19.234375 -11.25 C 20.179688 -10.632812 20.988281 -9.878906 21.65625 -8.984375 C 22.332031 -8.085938 22.671875 -7.039062 22.671875 -5.84375 C 22.671875 -1.5 19.226562 0.671875 12.34375 0.671875 Z M 12.34375 0.671875 "/></g></g></g><g fill="#000000" fill-opacity="1"><g transform="translate(80.960485, 37.403824)"><g><path d="M 13.703125 0.671875 C 9.984375 0.671875 7.066406 -0.378906 4.953125 -2.484375 C 2.847656 -4.597656 1.796875 -7.507812 1.796875 -11.21875 C 1.796875 -14.9375 2.847656 -17.847656 4.953125 -19.953125 C 7.066406 -22.066406 9.984375 -23.125 13.703125 -23.125 C 17.410156 -23.125 20.316406 -22.066406 22.421875 -19.953125 C 24.535156 -17.847656 25.59375 -14.9375 25.59375 -11.21875 C 25.59375 -7.507812 24.535156 -4.597656 22.421875 -2.484375 C 20.316406 -0.378906 17.410156 0.671875 13.703125 0.671875 Z M 13.703125 -0.21875 C 14.898438 -0.21875 15.910156 -1.054688 16.734375 -2.734375 C 17.554688 -4.410156 17.96875 -7.238281 17.96875 -11.21875 C 17.96875 -15.207031 17.554688 -18.039062 16.734375 -19.71875 C 15.910156 -21.394531 14.898438 -22.234375 13.703125 -22.234375 C 12.503906 -22.234375 11.492188 -21.394531 10.671875 -19.71875 C 9.847656 -18.039062 9.4375 -15.207031 9.4375 -11.21875 C 9.4375 -7.238281 9.847656 -4.410156 10.671875 -2.734375 C 11.492188 -1.054688 12.503906 -0.21875 13.703125 -0.21875 Z M 13.703125 -0.21875 "/></g></g></g><g fill="#000000" fill-opacity="1"><g transform="translate(108.356601, 37.403824)"><g><path d="M 1.796875 -0.671875 L 4.484375 -1.34375 L 4.484375 -21.109375 L 1.796875 -21.78125 L 1.796875 -22.453125 L 5.84375 -22.453125 C 7.601562 -22.453125 8.992188 -21.882812 10.015625 -20.75 C 10.398438 -20.300781 10.726562 -19.742188 11 -19.078125 C 11.445312 -19.742188 12 -20.34375 12.65625 -20.875 C 14.15625 -22.070312 15.832031 -22.671875 17.6875 -22.671875 C 19.28125 -22.671875 20.472656 -22.304688 21.265625 -21.578125 C 22.054688 -20.847656 22.453125 -19.789062 22.453125 -18.40625 C 22.453125 -17.394531 22.144531 -16.582031 21.53125 -15.96875 C 20.914062 -15.351562 20.097656 -15.046875 19.078125 -15.046875 C 18.660156 -15.046875 18.242188 -15.078125 17.828125 -15.140625 L 17.28125 -15.265625 L 17.28125 -21.5625 C 15.757812 -21.5625 14.367188 -20.960938 13.109375 -19.765625 C 12.515625 -19.160156 12.035156 -18.5625 11.671875 -17.96875 L 11.671875 -1.34375 L 14.375 -0.671875 L 14.375 0 L 1.796875 0 Z M 1.796875 -0.671875 "/></g></g></g><g fill="#000000" fill-opacity="1"><g transform="translate(131.486086, 37.403824)"><g><path d="M 13.46875 0.671875 C 11.5 0.671875 9.785156 0.3125 8.328125 -0.40625 C 6.878906 -1.125 5.765625 -2.109375 4.984375 -3.359375 C 4.203125 -4.617188 3.8125 -6.046875 3.8125 -7.640625 L 3.8125 -21.328125 L 0.671875 -21.328125 L 0.671875 -22.453125 L 3.8125 -22.453125 L 3.8125 -24.703125 C 3.8125 -27.390625 5.160156 -28.734375 7.859375 -28.734375 L 11 -28.734375 L 11 -22.453125 L 17.28125 -22.453125 L 17.28125 -21.328125 L 11 -21.328125 L 11 -7.640625 C 11 -4.878906 11.28125 -2.988281 11.84375 -1.96875 C 12.414062 -0.957031 13.257812 -0.453125 14.375 -0.453125 C 15.445312 -0.453125 16.382812 -0.972656 17.1875 -2.015625 C 18 -3.066406 18.40625 -4.488281 18.40625 -6.28125 L 19.53125 -6.28125 C 19.53125 -4.070312 18.976562 -2.359375 17.875 -1.140625 C 16.769531 0.0664062 15.300781 0.671875 13.46875 0.671875 Z M 13.46875 0.671875 "/></g></g></g><g fill="#000000" fill-opacity="1"><g transform="translate(151.696337, 37.403824)"><g><path d="M 1.796875 -0.671875 L 4.484375 -1.34375 L 4.484375 -21.109375 L 1.796875 -21.78125 L 1.796875 -22.453125 L 7.640625 -22.453125 C 10.328125 -22.453125 11.671875 -21.101562 11.671875 -18.40625 L 11.671875 -1.34375 L 14.375 -0.671875 L 14.375 0 L 1.796875 0 Z M 7.625 -25.140625 C 6.726562 -25.140625 5.976562 -25.4375 5.375 -26.03125 C 4.78125 -26.632812 4.484375 -27.390625 4.484375 -28.296875 C 4.484375 -29.191406 4.78125 -29.9375 5.375 -30.53125 C 5.976562 -31.132812 6.726562 -31.4375 7.625 -31.4375 C 8.53125 -31.4375 9.28125 -31.132812 9.875 -30.53125 C 10.476562 -29.9375 10.78125 -29.191406 10.78125 -28.296875 C 10.78125 -27.390625 10.476562 -26.632812 9.875 -26.03125 C 9.28125 -25.4375 8.53125 -25.140625 7.625 -25.140625 Z M 7.625 -25.140625 "/></g></g></g><g fill="#000000" fill-opacity="1"><g transform="translate(166.966314, 37.403824)"><g><path d="M 10.546875 0.671875 C 7.890625 0.671875 5.84375 0.101562 4.40625 -1.03125 C 2.96875 -2.164062 2.25 -3.617188 2.25 -5.390625 C 2.25 -6.554688 2.503906 -7.707031 3.015625 -8.84375 C 3.222656 -9.382812 3.488281 -9.878906 3.8125 -10.328125 C 5.039062 -10.628906 6.375 -10.898438 7.8125 -11.140625 C 11.039062 -11.671875 13.898438 -12 16.390625 -12.125 L 16.390625 -13.46875 C 16.390625 -16.789062 15.984375 -19.082031 15.171875 -20.34375 C 14.367188 -21.601562 13.128906 -22.234375 11.453125 -22.234375 C 10.828125 -22.234375 10.285156 -22.15625 9.828125 -22 L 9.203125 -21.78125 L 9.203125 -15.046875 L 8.625 -14.90625 C 8.144531 -14.84375 7.738281 -14.8125 7.40625 -14.8125 C 6.382812 -14.8125 5.566406 -15.117188 4.953125 -15.734375 C 4.347656 -16.347656 4.046875 -17.164062 4.046875 -18.1875 C 4.046875 -19.5625 4.738281 -20.726562 6.125 -21.6875 C 7.519531 -22.644531 9.59375 -23.125 12.34375 -23.125 C 14.6875 -23.125 16.703125 -22.710938 18.390625 -21.890625 C 20.078125 -21.066406 21.363281 -19.925781 22.25 -18.46875 C 23.132812 -17.019531 23.578125 -15.351562 23.578125 -13.46875 L 23.578125 -1.34375 L 26.265625 -0.671875 L 26.265625 0 L 22.234375 0 C 20.429688 0 19.035156 -0.550781 18.046875 -1.65625 C 17.628906 -2.101562 17.300781 -2.675781 17.0625 -3.375 C 16.644531 -2.625 16.148438 -1.945312 15.578125 -1.34375 C 14.234375 0 12.554688 0.671875 10.546875 0.671875 Z M 12.34375 -0.890625 C 13.457031 -0.890625 14.460938 -1.488281 15.359375 -2.6875 C 15.691406 -3.144531 16.035156 -3.742188 16.390625 -4.484375 L 16.390625 -11 C 15.015625 -11 13.695312 -10.925781 12.4375 -10.78125 C 11.507812 -10.65625 10.878906 -10.578125 10.546875 -10.546875 C 10.398438 -10.222656 10.253906 -9.773438 10.109375 -9.203125 C 9.804688 -8.066406 9.65625 -6.945312 9.65625 -5.84375 C 9.65625 -4.164062 9.910156 -2.921875 10.421875 -2.109375 C 10.929688 -1.296875 11.570312 -0.890625 12.34375 -0.890625 Z M 12.34375 -0.890625 "/></g></g></g><g fill="#000000" fill-opacity="1"><g transform="translate(194.137883, 37.403824)"><g><path d="M 1.796875 -0.671875 L 4.484375 -1.34375 L 4.484375 -21.109375 L 1.796875 -21.78125 L 1.796875 -22.453125 L 5.84375 -22.453125 C 7.601562 -22.453125 8.992188 -21.882812 10.015625 -20.75 C 10.398438 -20.300781 10.726562 -19.742188 11 -19.078125 C 11.414062 -19.859375 11.910156 -20.535156 12.484375 -21.109375 C 13.828125 -22.453125 15.503906 -23.125 17.515625 -23.125 C 19.191406 -23.125 20.695312 -22.769531 22.03125 -22.0625 C 23.363281 -21.363281 24.398438 -20.445312 25.140625 -19.3125 C 25.890625 -18.175781 26.265625 -16.976562 26.265625 -15.71875 L 26.265625 -1.34375 L 28.96875 -0.671875 L 28.96875 0 L 23.125 0 C 20.425781 0 19.078125 -1.347656 19.078125 -4.046875 L 19.078125 -15.71875 C 19.078125 -17.601562 18.738281 -19.046875 18.0625 -20.046875 C 17.394531 -21.054688 16.613281 -21.5625 15.71875 -21.5625 C 14.582031 -21.5625 13.5625 -20.960938 12.65625 -19.765625 C 12.269531 -19.253906 11.941406 -18.65625 11.671875 -17.96875 L 11.671875 -1.34375 L 14.375 -0.671875 L 14.375 0 L 1.796875 0 Z M 1.796875 -0.671875 "/></g></g></g></g></g></g></svg>