<svg width="30" height="31" viewBox="0 0 30 31" fill="none" xmlns="http://www.w3.org/2000/svg">
<path d="M0.999919 18.5459H2.4998C3.03019 18.5459 3.53885 18.7566 3.9139 19.1317C4.28894 19.5067 4.49964 20.0154 4.49964 20.5458V22.5456H8.72579L9.69922 20.4663C9.23502 19.828 8.98491 19.0592 8.98477 18.27C8.98565 17.9714 9.02276 17.6741 9.09526 17.3845L3.24574 15.0177C2.75688 14.8198 2.36652 14.436 2.16032 13.9505C1.95411 13.4651 1.9489 12.9177 2.14583 12.4284L2.55079 11.4285C2.31888 11.2262 2.15619 10.9564 2.08561 10.6568C2.01504 10.3573 2.04011 10.0432 2.15732 9.75866L5.50705 1.47583C5.6582 1.11147 5.94681 0.821317 6.31036 0.668223C6.67391 0.51513 7.08313 0.511419 7.4494 0.657895L29.0646 9.40369C29.3465 9.51694 29.5871 9.71356 29.7542 9.96726C29.9212 10.221 30.0069 10.5196 29.9996 10.8233C29.9923 11.127 29.8924 11.4212 29.7134 11.6666C29.5343 11.912 29.2846 12.0969 28.9977 12.1965L25.27 13.5029L24.8095 14.6398L25.8094 15.0432C26.0128 14.8137 26.282 14.6524 26.5804 14.5814C26.8788 14.5104 27.1918 14.533 27.4768 14.6463L28.3977 15.0192C28.5794 15.0923 28.7449 15.2006 28.8846 15.3378C29.0243 15.475 29.1356 15.6385 29.212 15.8189C29.2883 15.9992 29.3283 16.1929 29.3297 16.3887C29.331 16.5845 29.2936 16.7787 29.2196 16.9601L27.3603 21.5562C27.2098 21.9212 26.9222 22.2126 26.5592 22.3678C26.1962 22.523 25.7868 22.5296 25.4189 22.3861L24.4925 22.0127C24.2097 21.8947 23.9697 21.693 23.805 21.4346C23.6403 21.1762 23.5586 20.8735 23.5711 20.5673L22.5712 20.1633L22.3862 20.6193C22.2885 20.8616 22.1441 21.0824 21.9611 21.2688C21.778 21.4553 21.5601 21.6039 21.3196 21.706C21.0791 21.8082 20.8208 21.8619 20.5595 21.8642C20.2983 21.8664 20.0391 21.8172 19.7969 21.7192L15.9762 20.1733C15.7038 20.6395 15.3334 21.041 14.8907 21.3501C14.448 21.6592 13.9434 21.8686 13.4119 21.9637L12.212 24.5295C11.9286 25.1306 11.4806 25.639 10.9199 25.9958C10.3592 26.3526 9.70885 26.5431 9.04427 26.5453H4.49964V28.5451C4.49964 29.0755 4.28894 29.5842 3.9139 29.9592C3.53885 30.3343 3.03019 30.545 2.4998 30.545H0.999919C0.734724 30.545 0.48039 30.4396 0.292869 30.2521C0.105348 30.0646 3.16043e-07 29.8102 3.16043e-07 29.5451V19.5459C3.16043e-07 19.2807 0.105348 19.0263 0.292869 18.8388C0.48039 18.6513 0.734724 18.5459 0.999919 18.5459ZM28.9977 10.7966C29.0015 10.6965 28.9739 10.5976 28.9188 10.514C28.8636 10.4303 28.7837 10.366 28.6902 10.3301L7.07543 1.58432C6.95421 1.53672 6.81919 1.53829 6.69912 1.58871C6.57904 1.63913 6.48338 1.73442 6.43248 1.8543L3.08275 10.1371C3.05827 10.1961 3.04588 10.2593 3.04631 10.3231C3.04674 10.3869 3.05998 10.45 3.08525 10.5086C3.11011 10.5684 3.14667 10.6225 3.19278 10.668C3.23888 10.7134 3.29361 10.7491 3.35373 10.7731L15.5622 15.7132C15.6742 15.7581 15.7986 15.7605 15.9122 15.7202L28.6677 11.251C28.7633 11.2193 28.8465 11.1583 28.9057 11.0768C28.9649 10.9953 28.997 10.8973 28.9977 10.7966V10.7966ZM24.874 21.0867L25.7944 21.4577C25.9158 21.5055 26.0511 21.5035 26.171 21.4521C26.2909 21.4007 26.3857 21.3041 26.4349 21.1832L28.2977 16.5821C28.3451 16.4619 28.3434 16.328 28.2929 16.2091C28.2424 16.0902 28.1471 15.9959 28.0277 15.9467L27.1048 15.5747C26.9841 15.5269 26.8495 15.5284 26.7298 15.5788C26.6102 15.6291 26.515 15.7244 26.4649 15.8442L24.6035 20.4438C24.5548 20.5651 24.556 20.7006 24.6066 20.8211C24.6572 20.9415 24.7533 21.0372 24.874 21.0872V21.0867ZM23.8626 19.6054L25.3479 15.9342L24.4355 15.5647L22.9481 19.2364L23.8626 19.6054ZM20.1754 20.7893C20.2956 20.8382 20.4243 20.863 20.5541 20.8622C20.684 20.8613 20.8123 20.8349 20.932 20.7845C21.0516 20.734 21.1601 20.6604 21.2512 20.568C21.3424 20.4756 21.4144 20.3661 21.4633 20.2458L24.0131 13.9423L16.2397 16.6656C15.8984 16.7848 15.5254 16.7765 15.1898 16.6421L3.44322 11.889L3.07275 12.8054C2.97487 13.0484 2.97731 13.3203 3.07956 13.5616C3.1818 13.8028 3.3755 13.9936 3.61821 14.0923L20.1754 20.7893ZM15.0378 19.7893L10.0292 17.763C9.99767 17.9301 9.98193 18.0999 9.98219 18.27C9.98149 18.8628 10.172 19.4401 10.5255 19.916C10.8789 20.3919 11.3765 20.7412 11.9442 20.9119C12.5119 21.0825 13.1196 21.0655 13.6769 20.8634C14.2342 20.6613 14.7115 20.2848 15.0378 19.7898V19.7893ZM9.04427 25.5454C9.51985 25.5446 9.98542 25.4087 10.3867 25.1535C10.7881 24.8983 11.1086 24.5343 11.3111 24.104L12.294 21.9997C11.6182 21.9189 10.9773 21.6549 10.4407 21.2362L9.49923 23.2571C9.45885 23.3436 9.39455 23.4167 9.31393 23.4678C9.2333 23.5189 9.13973 23.5459 9.04427 23.5455H4.49964V25.5454H9.04427ZM0.999919 29.5451H2.4998C2.76499 29.5451 3.01933 29.4397 3.20685 29.2522C3.39437 29.0647 3.49972 28.8103 3.49972 28.5451V20.5458C3.49972 20.2806 3.39437 20.0263 3.20685 19.8387C3.01933 19.6512 2.76499 19.5459 2.4998 19.5459H0.999919V29.5451Z" fill="black"/>
</svg>
