<svg width="30" height="27" viewBox="0 0 30 27" fill="none" xmlns="http://www.w3.org/2000/svg">
<path d="M17.5246 20.9396H5.12695C4.88426 20.9396 4.6875 21.1363 4.6875 21.379C4.6875 21.6217 4.88426 21.8185 5.12695 21.8185H17.5246C17.9216 21.8185 18.257 22.2344 18.257 22.7267C18.257 22.9858 18.1881 23.2833 17.6507 23.2833H14.3516C14.1089 23.2833 13.9121 23.4801 13.9121 23.7228C13.9121 23.9655 14.1089 24.1622 14.3516 24.1622H17.6507C18.5529 24.1622 19.1359 23.5987 19.1359 22.7267C19.1359 21.7413 18.4131 20.9396 17.5246 20.9396Z" fill="black"/>
<path d="M28.4867 7.12127C28.2807 6.89035 28.0742 6.69599 27.8822 6.53486C27.9244 6.46742 27.9492 6.38791 27.9492 6.30248V1.90796C27.9492 1.18099 27.3578 0.5896 26.6308 0.5896H23.1152C22.3882 0.5896 21.7968 1.18099 21.7968 1.90796V6.30248C21.7968 6.38791 21.8216 6.46736 21.8638 6.53486C21.6718 6.69599 21.4653 6.89035 21.2593 7.12127C21.0012 7.41054 20.7246 7.78044 20.4794 8.23671C20.0632 7.46298 19.5394 6.90799 19.0937 6.5341C19.1356 6.46678 19.1602 6.38762 19.1602 6.30254V1.90801C19.1602 1.18104 18.5688 0.589658 17.8418 0.589658H14.3262C13.5992 0.589658 13.0078 1.18104 13.0078 1.90801V6.30254C13.0078 6.38697 13.0321 6.46554 13.0733 6.53252C12.2782 7.19767 11.2346 8.43558 11.003 10.4614C10.9755 10.7025 11.1485 10.9204 11.3897 10.948C11.4067 10.9499 11.4235 10.9508 11.4402 10.9508C11.6605 10.9508 11.8506 10.7854 11.8762 10.5613C12.1643 8.04142 13.9032 6.96037 14.3058 6.74205H17.8614C18.185 6.91965 19.4287 7.69308 20.0176 9.35878C19.8513 9.91607 19.7461 10.5555 19.7461 11.2831V12.532C19.7461 12.7747 19.9429 12.9715 20.1856 12.9715C20.4283 12.9715 20.625 12.7747 20.625 12.532V11.2831C20.625 8.24503 22.6535 6.98093 23.0947 6.74205H26.6503C27.0786 6.97789 29.1211 8.26191 29.1211 11.2831V18.3891C29.1211 18.6318 29.3178 18.8285 29.5605 18.8285C29.8032 18.8285 30 18.6318 30 18.3891V11.2829C29.9999 9.24499 29.177 7.89494 28.4867 7.12127V7.12127ZM13.8867 5.86303V3.3994C14.0466 3.43157 14.2307 3.45413 14.4365 3.45413C14.7703 3.45413 15.1592 3.39559 15.585 3.22631H18.2812V5.86303H13.8867ZM14.3261 1.4685H17.8418C18.0841 1.4685 18.2812 1.66561 18.2812 1.90796V2.34741H15.498C15.4385 2.34741 15.3797 2.35948 15.3251 2.38286C14.6738 2.66153 14.1589 2.58172 13.8867 2.497V1.90796C13.8867 1.66561 14.0838 1.4685 14.3261 1.4685ZM22.6757 5.86303V3.3994C22.8356 3.43157 23.0197 3.45413 23.2255 3.45413C23.5593 3.45413 23.9482 3.39559 24.3741 3.22631H27.0703V5.86303H22.6757ZM23.1152 1.4685H26.6308C26.8731 1.4685 27.0703 1.66561 27.0703 1.90796V2.34741H24.2871C24.2276 2.34741 24.1688 2.35948 24.1141 2.38286C23.4629 2.66153 22.9479 2.58172 22.6757 2.497V1.90796C22.6757 1.66561 22.8728 1.4685 23.1152 1.4685Z" fill="black"/>
<path d="M29.5605 19.7073C29.3178 19.7073 29.121 19.9041 29.121 20.1468V23.4297C29.121 23.6721 28.9239 23.8692 28.6816 23.8692H21.3835C21.4468 23.5829 21.4797 23.2796 21.4797 22.961C21.4797 22.0314 21.1717 21.0918 20.625 20.323V14.2897C20.625 14.047 20.4282 13.8503 20.1855 13.8503C19.9428 13.8503 19.7461 14.047 19.7461 14.2897V19.4039C19.3871 19.1266 18.9917 18.9177 18.5724 18.7815C18.7088 18.5291 18.7844 18.2177 18.7844 17.8633C18.7844 16.9447 18.1343 16.252 17.2723 16.252H16.949C17.0618 16.0321 17.1259 15.7833 17.1259 15.5196V14.5472C17.1259 13.5077 16.4173 12.6254 15.4027 12.4016C14.2773 12.1533 12.5999 11.8574 10.9997 11.8574C9.39947 11.8574 7.72206 12.1533 6.59671 12.4015C5.5821 12.6253 4.87347 13.5076 4.87347 14.5471V15.5195C4.87347 15.8057 4.94882 16.0745 5.08019 16.3077C3.80788 16.481 2.63179 17.0573 1.70642 17.9738C0.62203 19.048 0 20.5027 0 21.9649C0 23.2345 0.458085 24.3966 1.28982 25.237C2.09964 26.0552 3.18814 26.5059 4.35497 26.5059H17.7768C18.8544 26.5059 19.7739 26.18 20.4361 25.5634C20.6904 25.3266 20.8999 25.0531 21.0628 24.7481H28.6816C29.4086 24.7481 29.9999 24.1567 29.9999 23.4297V20.1468C29.9999 19.904 29.8032 19.7073 29.5605 19.7073ZM17.7768 25.627H4.35491C2.37328 25.627 0.878905 24.0526 0.878905 21.9649C0.878905 20.7356 1.40601 19.5086 2.325 18.5984C3.28048 17.6521 4.54968 17.1309 5.89897 17.1309H7.81633C8.05903 17.1309 8.25578 16.9342 8.25578 16.6915C8.25578 16.4488 8.05903 16.252 7.81633 16.252H6.48491C6.08102 16.252 5.75249 15.9235 5.75249 15.5196V14.5472C5.75249 13.9234 6.17753 13.3941 6.78614 13.2599C7.86883 13.021 9.47875 12.7364 10.9998 12.7364C12.5208 12.7364 14.1307 13.021 15.2135 13.2599C15.822 13.3942 16.2471 13.9235 16.2471 14.5472V15.5196C16.2471 15.9235 15.9185 16.2521 15.5147 16.2521H9.57414C9.33145 16.2521 9.13469 16.4488 9.13469 16.6915C9.13469 16.9342 9.33145 17.131 9.57414 17.131H17.2723C17.7073 17.131 17.9055 17.5106 17.9055 17.8634C17.9055 18.1975 17.8175 18.5958 17.3985 18.5958H5.51296C4.75634 18.5958 3.97488 18.908 3.36902 19.4523C2.70785 20.0462 2.34375 20.8345 2.34375 21.6719C2.34375 22.8498 3.32824 24.1621 4.74093 24.1621H12.5938C12.8365 24.1621 13.0332 23.9654 13.0332 23.7227C13.0332 23.48 12.8365 23.2832 12.5938 23.2832H4.74093C3.87193 23.2832 3.22265 22.4325 3.22265 21.6719C3.22265 20.4143 4.43185 19.4747 5.51296 19.4747H17.3985C19.314 19.4747 20.6008 21.2773 20.6008 22.961C20.6008 24.6054 19.5187 25.627 17.7768 25.627V25.627Z" fill="black"/>
</svg>
