<svg width="30" height="34" viewBox="0 0 30 34" fill="none" xmlns="http://www.w3.org/2000/svg">
<path d="M28.7356 21.5899C28.6016 21.367 28.3122 21.2949 28.0892 21.429C27.8662 21.563 27.7942 21.8524 27.9282 22.0753C28.6675 23.3047 29.0582 24.7172 29.0582 26.16V28.5755H25.3519V19.4436C25.7898 19.7201 26.201 20.0384 26.5788 20.3963C26.7673 20.575 27.0654 20.5674 27.2446 20.3783C27.4235 20.1895 27.4155 19.8914 27.2266 19.7125C26.6626 19.178 26.0321 18.7218 25.3518 18.3523V17.7256C25.3518 17.0882 24.8334 16.5698 24.196 16.5698H21.5102C21.0311 16.5698 20.6192 16.8628 20.4443 17.2791H19.5463V15.5454C20.3152 14.7785 20.8567 13.8165 21.1201 12.7752C22.2834 12.7612 23.2255 11.8111 23.2255 10.6446V9.03215C23.2255 8.32829 22.6817 7.75319 21.8627 7.71686V3.37186C21.8627 1.51263 20.3502 6.26854e-05 18.4909 6.26854e-05H13.976C13.7159 6.26854e-05 13.505 0.210917 13.505 0.471091C13.505 0.731266 13.7159 0.94212 13.976 0.94212H18.4909C19.8307 0.94212 20.9207 2.03207 20.9207 3.37192V4.77357H16.8878C17.2144 4.25393 17.3804 3.80255 17.3804 3.4248C17.3804 2.21843 16.4683 1.469 15.0001 1.469C13.5318 1.469 12.6197 2.21843 12.6197 3.4248C12.6197 3.80255 12.7857 4.25393 13.1123 4.77357H9.0794V3.37186C9.0794 2.03207 10.1694 0.942055 11.5092 0.942055H11.7459C12.3571 0.950975 12.3568 -0.00892221 11.7459 6.26854e-05H11.5092C9.64998 6.26854e-05 8.13741 1.51263 8.13741 3.37186V7.71829C7.45637 7.76916 6.9174 8.33824 6.9174 9.03208V10.6445C6.9174 11.7623 7.78254 12.6812 8.87831 12.7684C9.14113 13.8123 9.68327 14.7769 10.4538 15.5454V17.2791H9.55586C9.38088 16.8628 8.969 16.5698 8.48995 16.5698H5.80412C5.16677 16.5698 4.6483 17.0882 4.6483 17.7256V18.3523C1.7772 19.9103 0 22.886 0 26.1601V32.3105C0 32.7434 0.352156 33.0955 0.784983 33.0955H7.52295C8.54445 33.0955 9.37552 32.2645 9.37552 31.243V26.1477C9.37552 25.2443 8.72518 24.4902 7.86819 24.3279V21.4599C7.86819 21.1998 7.65733 20.989 7.39716 20.989C7.13698 20.989 6.92613 21.1998 6.92613 21.4599V24.2952H5.59016V17.7255C5.59016 17.6076 5.68608 17.5117 5.80399 17.5117H8.48983C8.60773 17.5117 8.70365 17.6076 8.70365 17.7255V19.5234C8.70365 20.7826 9.19388 21.9665 10.0841 22.857L14.1825 26.9569C14.2841 27.0585 14.4016 27.1378 14.529 27.1947V32.1534H10.7924C10.5323 32.1534 10.3214 32.3643 10.3214 32.6244C10.3214 32.8845 10.5322 33.0954 10.7924 33.0954H29.215C29.6478 33.0954 30 32.7432 30 32.3104V26.16C30.0002 24.5462 29.5629 22.9659 28.7356 21.5899V21.5899ZM0.942186 29.5175H2.25101V31.2821C2.25101 31.5978 2.33226 31.8947 2.4746 32.1535H0.942186V29.5175ZM8.43372 26.1477V31.2429C8.43372 31.745 8.0252 32.1535 7.52314 32.1535H4.06434C3.58388 32.1535 3.193 31.7626 3.193 31.2821V26.1084C3.193 25.628 3.58388 25.2371 4.06434 25.2371H7.52314C8.0252 25.2371 8.43372 25.6456 8.43372 26.1477V26.1477ZM4.06434 24.2951C3.06443 24.2951 2.25101 25.1085 2.25101 26.1084V28.5755H0.942186V26.16C0.942186 23.408 2.347 20.8918 4.64849 19.4429V24.295H4.06434V24.2951ZM9.63964 11.3166V9.93316C10.724 9.88546 11.7951 9.53783 12.7525 8.91948C13.4219 8.48711 14.1992 8.25854 15.0002 8.25854C15.8012 8.25854 16.5785 8.48711 17.248 8.91948C18.2053 9.53783 19.2764 9.88546 20.3608 9.93316V11.3166C20.3608 12.7118 19.7739 14.0561 18.7507 15.0046L16.7641 16.8462C15.775 17.7631 14.2254 17.7631 13.2363 16.8462L11.2497 15.0046C10.2265 14.0561 9.63964 12.7118 9.63964 11.3166V11.3166ZM11.396 16.4247L12.5959 17.537C13.9441 18.7868 16.0563 18.7868 17.4045 17.537L18.6044 16.4247V18.3081C18.6044 19.8204 17.3741 21.0507 15.8618 21.0507H14.1386C12.6263 21.0507 11.396 19.8204 11.396 18.3081V16.4247ZM21.9069 8.65524C22.1146 8.65524 22.2837 8.82427 22.2837 9.03202V10.6445C22.2837 11.2366 21.8482 11.7276 21.2811 11.8176C21.2952 11.6515 21.3027 11.4843 21.3027 11.3165V9.75993C21.6696 9.53686 21.8918 9.1083 21.8628 8.65685C21.8775 8.65614 21.8921 8.65524 21.9069 8.65524ZM15.0002 2.41092C15.6564 2.41092 16.4386 2.58681 16.4386 3.42473C16.4386 3.75161 16.068 4.49238 15.0283 5.59093C15.0254 5.59397 15.0166 5.60328 15.0002 5.60328C14.9838 5.60328 14.975 5.59397 14.9721 5.59093C13.9323 4.49238 13.5618 3.75161 13.5618 3.42473C13.5618 2.58681 14.344 2.41092 15.0002 2.41092ZM13.8176 5.71549C13.962 5.88472 14.1177 6.0586 14.2879 6.23849C14.6561 6.64365 15.3444 6.64365 15.7125 6.23849C15.8827 6.05866 16.0384 5.88472 16.1828 5.71549H20.9209V8.75569C20.9224 8.918 20.7704 9.01786 20.6182 8.9975C19.6282 8.9975 18.6395 8.69693 17.7591 8.12829C16.937 7.59735 15.983 7.31668 15.0003 7.31668C14.0175 7.31668 13.0635 7.59735 12.2414 8.12829C11.361 8.69693 10.3723 8.9975 9.3823 8.9975C9.23021 9.01786 9.07811 8.918 9.0796 8.75569V5.71549H13.8176ZM7.85959 10.6445V9.03208C7.85959 8.85853 7.97769 8.71244 8.1376 8.66887C8.1113 9.11696 8.33501 9.53867 8.69771 9.75993V11.3166C8.69771 11.4736 8.70404 11.63 8.71639 11.7856C8.22202 11.6413 7.85959 11.1848 7.85959 10.6445V10.6445ZM10.7505 22.1911C10.0382 21.4784 9.64584 20.5311 9.64584 19.5235V18.2211H10.4539C10.4059 20.2825 12.0751 21.9955 14.1385 21.9927H15.8617C17.9251 21.9955 19.5944 20.2824 19.5464 18.2211H20.3544V19.5235C20.3544 20.5311 19.9621 21.4785 19.2497 22.1911L15.1513 26.291C15.0315 26.3799 14.9687 26.3799 14.8489 26.291L10.7505 22.1911ZM15.4712 27.1948C15.5985 27.1379 15.7161 27.0585 15.8176 26.957L19.916 22.8571C20.8062 21.9665 21.2965 20.7827 21.2965 19.5235V17.7255C21.2965 17.6076 21.3925 17.5117 21.5104 17.5117H24.1962C24.3141 17.5117 24.41 17.6076 24.41 17.7255V32.1535H15.4712V27.1948ZM25.352 32.1535V29.5175H29.0583V32.1535H25.352Z" fill="black"/>
<path d="M4.77627 27.5523C5.10239 27.5523 5.36676 27.2879 5.36676 26.9618C5.36676 26.6357 5.10239 26.3713 4.77627 26.3713C4.45016 26.3713 4.18579 26.6357 4.18579 26.9618C4.18579 27.2879 4.45016 27.5523 4.77627 27.5523Z" fill="black"/>
<path d="M6.75397 28.6803H4.77633C4.51622 28.6803 4.3053 28.8912 4.3053 29.1513C4.3053 29.4114 4.51615 29.6222 4.77633 29.6222H6.75397C7.01408 29.6222 7.225 29.4114 7.225 29.1513C7.225 28.8912 7.01408 28.6803 6.75397 28.6803Z" fill="black"/>
<path d="M6.75397 30.6833H4.77633C4.51622 30.6833 4.3053 30.8942 4.3053 31.1544C4.3053 31.4145 4.51615 31.6253 4.77633 31.6253H6.75397C7.01408 31.6253 7.225 31.4145 7.225 31.1544C7.225 30.8942 7.01408 30.6833 6.75397 30.6833Z" fill="black"/>
<path d="M22.8355 27.2546H18.1647C17.6972 27.2546 17.3169 27.635 17.3169 28.1025V29.9906C17.3169 30.458 17.6972 30.8384 18.1647 30.8384H22.8355C23.303 30.8384 23.6833 30.458 23.6833 29.9906V28.1025C23.6833 27.6349 23.303 27.2546 22.8355 27.2546ZM22.7413 29.8963H18.259V28.1966H22.7413V29.8963Z" fill="black"/>
<path d="M13.7442 14.8857H16.2561C16.5162 14.8857 16.7271 14.6748 16.7271 14.4146C16.7271 14.1545 16.5162 13.9436 16.2561 13.9436H13.7442C13.4841 13.9436 13.2732 14.1545 13.2732 14.4146C13.2732 14.6748 13.4841 14.8857 13.7442 14.8857Z" fill="black"/>
<path d="M12.3586 11.047C12.697 11.047 12.9713 10.7727 12.9713 10.4343C12.9713 10.0959 12.697 9.82166 12.3586 9.82166C12.0203 9.82166 11.746 10.0959 11.746 10.4343C11.746 10.7727 12.0203 11.047 12.3586 11.047Z" fill="black"/>
<path d="M17.6417 11.047C17.9801 11.047 18.2544 10.7727 18.2544 10.4343C18.2544 10.0959 17.9801 9.82166 17.6417 9.82166C17.3033 9.82166 17.0291 10.0959 17.0291 10.4343C17.0291 10.7727 17.3033 11.047 17.6417 11.047Z" fill="black"/>
</svg>
