<svg width="30" height="31" viewBox="0 0 30 31" fill="none" xmlns="http://www.w3.org/2000/svg">
<path d="M19.0001 19.5983V15.0477C19.0001 14.2207 18.3271 13.5477 17.5001 13.5477H3.50001C2.67301 13.5477 2.00001 14.2207 2.00001 15.0477V19.5983C0.860503 19.8308 0 20.8408 0 22.0478V25.0478V30.0478C0 30.3238 0.224001 30.5478 0.500002 30.5478H2.50001C2.77601 30.5478 3.00001 30.3238 3.00001 30.0478V28.5478H18.0001V30.0478C18.0001 30.3238 18.2241 30.5478 18.5001 30.5478H20.5001C20.7761 30.5478 21.0001 30.3238 21.0001 30.0478V25.0478V22.0478C21.0001 20.8408 20.1396 19.8308 19.0001 19.5983ZM3.00001 15.0477C3.00001 14.7722 3.22451 14.5477 3.50001 14.5477H17.5001C17.7756 14.5477 18.0001 14.7722 18.0001 15.0477V19.5478H17.0001V17.5477C17.0001 16.7207 16.3271 16.0477 15.5001 16.0477H12.5C11.673 16.0477 11 16.7207 11 17.5477V19.5478H10V17.5477C10 16.7207 9.32703 16.0477 8.50003 16.0477H5.50002C4.67302 16.0477 4.00001 16.7207 4.00001 17.5477V19.5478H3.00001V15.0477ZM16.0001 17.5477V19.5478H12V17.5477C12 17.2722 12.2245 17.0477 12.5 17.0477H15.5001C15.7756 17.0477 16.0001 17.2722 16.0001 17.5477ZM9.00003 17.5477V19.5478H5.00002V17.5477C5.00002 17.2722 5.22452 17.0477 5.50002 17.0477H8.50003C8.77553 17.0477 9.00003 17.2722 9.00003 17.5477ZM20.0001 29.5478H19.0001V28.0478C19.0001 27.7718 18.7761 27.5478 18.5001 27.5478H2.50001C2.22401 27.5478 2.00001 27.7718 2.00001 28.0478V29.5478H1V25.5478H20.0001V29.5478ZM20.0001 24.5478H1V22.0478C1 21.2208 1.67301 20.5478 2.50001 20.5478H4.50002H9.50003H11.5H16.5001H18.5001C19.3271 20.5478 20.0001 21.2208 20.0001 22.0478V24.5478Z" fill="black"/>
<path d="M29.5 19.5477H22.5C22.224 19.5477 22 19.7717 22 20.0477V24.0477V27.5478H23V24.5477H29V27.5478H30V24.0477V20.0477C30 19.7717 29.776 19.5477 29.5 19.5477ZM29 23.5477H23V20.5477H29V23.5477Z" fill="black"/>
<path d="M27 21.5477H25V22.5477H27V21.5477Z" fill="black"/>
<path d="M28.4746 15.3892L27.4746 12.3892C27.4061 12.1852 27.2156 12.0477 27.0001 12.0477H25.0001C24.7846 12.0477 24.5941 12.1852 24.5256 12.3897L23.5255 15.3897C23.4745 15.5422 23.5005 15.7097 23.5945 15.8402C23.6885 15.9707 23.8396 16.0477 24.0001 16.0477H25.5001V17.5477H24.5001V18.5478H27.5001V17.5477H26.5001V16.0477H28.0001C28.1606 16.0477 28.3116 15.9707 28.4056 15.8397C28.4996 15.7092 28.5251 15.5417 28.4746 15.3892ZM24.6936 15.0477L25.3606 13.0477H26.6401L27.3066 15.0477H24.6936Z" fill="black"/>
<path d="M29.7046 7.09125L15.2046 0.59123C15.0741 0.533229 14.9255 0.533229 14.7955 0.59123L0.295501 7.09125C0.1155 7.17225 0 7.35075 0 7.54775V13.5478H1V7.87125L15.0001 1.59573L29.0001 7.87175V13.5478H30.0001V7.54775C30.0001 7.35075 29.8846 7.17225 29.7046 7.09125Z" fill="black"/>
<path d="M18.4515 7.46474L17.465 7.63074C17.4885 7.76724 17.5 7.90724 17.5 8.04774C17.5 9.42625 16.3785 10.5477 15 10.5477C13.6215 10.5477 12.5 9.42625 12.5 8.04774C12.5 6.66924 13.6215 5.54773 15 5.54773C15.286 5.54773 15.567 5.59573 15.834 5.69023L16.167 4.74723C15.7925 4.61473 15.4 4.54773 15 4.54773C13.07 4.54773 11.5 6.11773 11.5 8.04774C11.5 9.97775 13.07 11.5478 15 11.5478C16.93 11.5478 18.5 9.97775 18.5 8.04774C18.5 7.85174 18.4835 7.65574 18.4515 7.46474Z" fill="black"/>
<path d="M18.1465 4.69421L15 7.84072L14.3535 7.19422L13.6465 7.90122L14.6465 8.90123C14.744 8.99873 14.872 9.04773 15 9.04773C15.128 9.04773 15.256 8.99873 15.3535 8.90123L18.8535 5.40122L18.1465 4.69421Z" fill="black"/>
</svg>
