<svg width="30" height="28" viewBox="0 0 30 28" fill="none" xmlns="http://www.w3.org/2000/svg">
<path d="M25.7401 17.6489L20.4175 19.8975C20.427 19.8311 20.4364 19.7647 20.4364 19.6935C20.4364 18.6593 19.5968 17.8197 18.5626 17.8197H14.7296C14.5731 17.8197 14.4213 17.7865 14.279 17.7201L11.0294 16.2495C10.5218 16.0218 9.95732 15.8984 9.40229 15.8984H6.75523V16.8472H9.40229C9.82449 16.8472 10.2514 16.9373 10.6404 17.1129L13.89 18.5834C14.1556 18.702 14.4402 18.7637 14.7344 18.7637H18.5674C19.0797 18.7637 19.4924 19.1812 19.4924 19.6888C19.4924 20.1964 19.075 20.6138 18.5674 20.6138H13.6006V21.5626H18.5626C18.89 21.5626 19.1936 21.4724 19.4592 21.3254V21.3301L26.1053 18.517C26.6556 18.2846 27.2581 18.2893 27.8036 18.5265C28.2211 18.7115 28.5626 19.0104 28.7903 19.3994L17.0588 25.6233C16.1623 26.0977 15.0949 26.1926 14.1271 25.8842L8.38711 24.0389L6.75049 24.0151V24.9639H8.16889L13.8378 26.7855C14.3074 26.9373 14.7913 27.0085 15.2799 27.0085C16.0484 27.0085 16.8169 26.8235 17.5 26.4582L30 19.8358L29.8624 19.4468C29.5731 18.6404 28.9753 18.0047 28.1879 17.6584C27.4004 17.3216 26.5323 17.3121 25.7401 17.6489V17.6489Z" fill="black"/>
<path d="M5.72581 25.7086V15.6375C5.72581 15.1157 5.29886 14.6887 4.77704 14.6887H0V15.6375H4.77704V25.7134H0V26.6622H4.77704C5.29886 26.6574 5.72581 26.2305 5.72581 25.7086V25.7086Z" fill="black"/>
<path d="M3.52943 24.2333C3.52943 24.5986 3.23057 24.8975 2.86529 24.8975C2.49527 24.8975 2.19641 24.5986 2.19641 24.2333C2.19641 23.8633 2.49527 23.5645 2.86529 23.5645C3.23057 23.5645 3.52943 23.8633 3.52943 24.2333Z" fill="black"/>
<path d="M11.2238 11.3775L11.7362 11.757L15.2656 9.80253L18.4582 11.7238L18.7333 11.8851L19.2457 11.5151L18.4772 7.55869L21.2997 5.11088L21.5274 4.89266L21.3282 4.30443L17.3339 3.81107L15.8823 0.376532L15.7495 0.0919019L15.4459 0.0871582H15.1233L13.4202 3.74465L9.70107 4.05775L9.38323 4.0957L9.19348 4.68868L12.1394 7.43535L11.2238 11.3775ZM10.8206 4.91638L13.7713 4.66021L14.0512 4.62701L15.4126 1.7048L16.5654 4.42302L16.684 4.68393L19.8908 5.07767L17.6707 7.00367L17.4478 7.19342L18.0644 10.3718L15.5218 8.83953L15.2798 8.71145L12.4667 10.2722L13.1261 7.42587L13.2068 7.13175L10.8206 4.91638Z" fill="black"/>
<path d="M4.98579 9.62697L4.29793 12.5824L4.20305 12.9239L4.73911 13.3177L7.69451 11.6811L10.3036 13.2465L10.5977 13.4315L11.1243 13.0473L10.4791 9.73134L11.167 9.13836L10.5456 8.42204L9.63 9.21426L9.49243 9.37555V9.56531L9.93835 11.923L8.01235 10.7608L7.91273 10.6659L7.5095 10.6564L7.41463 10.7513L5.44594 11.8423L5.97725 9.53684V9.25696L4.1319 7.53969L6.38996 7.34045L6.60818 7.3357L6.80742 7.13646L7.81785 4.96379L8.72867 7.11274L8.87573 7.39263H9.14138L10.2846 7.53494L10.4032 6.59092L9.48768 6.48181L8.28275 3.63551L8.12146 3.33191L7.46681 3.38409L7.37668 3.66398L6.09584 6.42014L3.07876 6.68106L2.704 6.70003L2.50476 7.39263L2.76567 7.56341L4.98579 9.62697Z" fill="black"/>
<path d="M20.5787 6.48188L20.6641 7.4259L21.5796 7.34052L21.7931 7.33103L21.9923 7.13179L23.0028 4.95911L23.8709 7.0037L23.8804 7.38795H24.3263L26.5891 7.66784L24.8292 9.19535L24.6726 9.36139V9.56537L25.1233 11.9183L23.1925 10.7608L23.0929 10.6612L22.6755 10.6659L22.5901 10.7561L20.6309 11.8424L21.1669 9.53691L21.1622 9.25702L19.9478 8.12325L19.2979 8.81585L20.166 9.62704L19.4829 12.5825L19.388 12.9003L19.9051 13.3272L22.8794 11.6811L25.4933 13.2513L25.7874 13.4316L26.3045 13.0426L25.6593 9.73141L27.9411 7.75323C28.0977 7.62989 28.1641 7.42116 28.1119 7.23141L28.0028 6.89459L24.6726 6.48663L23.4582 3.63084L23.3159 3.36993L22.7514 3.35095L22.6043 3.5834L21.276 6.42021L20.5787 6.48188Z" fill="black"/>
</svg>
