<svg width="701" height="600" viewBox="0 0 701 600" fill="none" xmlns="http://www.w3.org/2000/svg">
<mask id="path-1-inside-1_190_89" fill="white">
<path d="M700.915 99.8771C700.646 98.3489 699.84 97.8577 698.809 97.6394C696.435 97.2028 694.106 97.5848 691.777 97.6394C683.177 97.8577 674.577 97.9123 665.932 98.0761C664.14 98.0761 662.348 97.5848 660.601 98.6764C660.153 98.9493 659.526 98.8402 658.944 98.7856C647.119 98.1853 635.473 96.9845 623.827 94.3102C628.216 91.5268 632.113 93.4916 636.503 93.437C644.162 93.5462 651.777 93.6007 659.437 93.5461C661.9 93.5461 664.364 93.8736 666.738 92.0726C669.291 90.7627 671.979 92.0726 675.204 90.7082C670.321 89.7258 666.021 91.0356 662.169 88.3068C651.688 86.3965 641.117 86.4511 630.59 85.4141C629.918 85.3596 629.157 85.305 628.978 84.1043C630.053 82.849 631.352 83.5039 632.561 83.5585C644.207 84.7046 655.853 85.0867 667.589 84.9229C672.74 84.9229 677.891 84.8684 683.042 84.7592C683.67 84.7592 684.476 84.8684 684.655 83.2311C679.459 81.4846 673.322 82.6853 667.902 82.3032C671.441 81.048 675.249 82.9582 678.384 79.9564C679.325 79.0286 680.668 78.5374 681.833 78.3737C684.61 78.0462 685.954 75.9723 686.76 72.261C684.431 71.6061 683.893 69.5322 684.073 67.2399C686.357 66.3121 688.462 65.4388 690.523 64.5656C690.657 64.511 690.657 63.9653 690.747 63.3104C678.026 62.2734 665.26 62.9283 652.539 62.1097C651.867 62.0551 651.105 61.9459 651.15 60.4177C652.987 59.3262 655.181 59.8174 657.152 59.6537C666.738 59.7083 676.368 59.8174 685.954 59.872C687.746 59.872 689.537 59.9811 691.105 59.2171C691.598 57.9072 691.867 56.5973 692.494 55.7787C693.121 54.96 694.151 54.6326 695.047 54.0868C695.136 52.5586 695.271 51.1942 695.316 50.0481C693.524 48.0833 691.643 47.4284 689.672 47.3738C677.309 47.1009 664.946 47.0463 652.583 46.828C656.346 44.5358 660.288 44.6995 664.274 44.6995C664.722 44.6995 665.439 44.8632 665.17 43.3351C660.736 43.5534 656.256 44.0992 651.688 41.7523C652.539 40.5516 653.345 40.6062 654.151 40.5516C657.331 40.497 660.556 40.3879 663.737 40.3333C665.752 40.2787 666.827 38.3139 668.126 36.8403C667.499 34.9847 668.888 33.9478 669.157 32.5288C667.32 29.6362 664.453 28.2717 662.572 24.7788C666.021 24.3967 668.709 24.6151 671.979 24.3422C672.651 24.2876 672.875 23.6872 672.651 22.5957C666.335 21.8862 659.929 21.9954 653.524 21.395C657.555 21.1222 661.587 21.0675 665.618 21.1221C668.35 21.1221 670.859 20.5218 672.561 17.3563C672.785 16.9197 673.143 16.4284 673.502 16.3193C675.741 15.5552 676.055 12.9356 676.906 11.0254C675.562 7.04123 672.337 8.07818 669.694 7.96903C656.167 8.84227 642.908 4.14863 629.47 3.87574C593.771 3.05708 558.116 6.16792 522.416 4.5306C489.225 2.56582 456.033 3.00246 422.842 1.41972C418.005 1.20141 413.077 0.98308 408.285 0.109844C405.463 -0.435929 403.223 1.20142 400.715 1.74719C400.132 1.85634 399.505 2.67504 399.864 4.2032C404.298 5.56764 409.18 4.749 413.346 7.69617C413.57 7.8599 413.884 7.91438 414.152 7.91438C418.453 7.53234 422.125 10.6979 426.336 11.0799C435.608 11.9531 444.925 12.7172 454.197 13.5904C454.869 13.645 455.63 13.6997 455.63 15.1187C454.242 15.9373 452.719 15.7736 451.241 15.6644C444.432 15.2278 437.624 14.8458 430.815 14.3546C422.887 13.6996 415.003 12.9901 407.075 12.4989C406.896 12.4989 406.672 12.8264 406.448 12.9356C406.582 13.6451 406.717 14.3 406.851 15.1732C403.85 16.5376 400.625 13.8634 397.982 16.7014C396.907 18.0112 394.981 17.138 393.906 18.8845C395.16 21.013 396.594 22.1591 398.565 22.3228C399.46 22.432 400.715 22.9778 401.073 23.7964C401.879 25.8158 403.178 26.0341 404.567 26.1978C407.478 26.5798 409.763 28.108 411.062 31.9284C410.3 32.4196 409.584 32.8563 408.24 33.7295C414.69 35.6943 420.737 35.0939 426.829 37.5499C406.179 38.696 385.843 37.0041 365.239 35.9125C356.101 35.9671 347.008 33.1837 337.96 35.0393C337.781 35.0393 337.647 35.4759 337.467 35.7488C337.467 37.1132 338.184 37.659 339.08 37.7682C340.872 37.9865 342.708 37.8773 344.5 38.2594C349.158 39.2418 353.548 41.6432 358.296 42.189C359.595 42.4618 360.76 43.99 362.059 44.372C365.597 45.1907 369.136 46.0094 372.719 46.6097C376.168 47.483 379.931 46.8281 383.201 48.4108C383.022 49.939 382.35 49.9389 381.633 49.8843C378.318 49.7752 374.959 49.5023 371.644 49.284C370.211 48.7928 368.509 49.0111 367.031 48.9565C366.627 48.9565 366.269 48.902 365.866 48.9565C359.371 48.4108 352.876 47.6467 346.381 46.3914C344.052 45.9548 341.768 45.6819 339.394 45.9548C339.394 46.0639 339.394 46.1185 339.394 46.1731C335.183 45.5182 331.017 44.9724 326.762 44.8633C291.062 44.0446 255.407 47.1555 219.708 45.5182C186.516 43.5534 153.325 43.99 120.134 42.4073C115.296 42.189 110.369 41.9706 105.576 41.0974C102.754 40.5516 100.515 42.189 98.0062 42.7348C97.4239 42.8439 96.7968 43.6626 97.1552 45.1907C101.59 46.5552 106.472 45.7365 110.638 48.6837C110.862 48.8474 111.175 48.902 111.444 48.902C115.744 48.5199 119.417 51.6854 123.628 52.0674C132.9 52.9407 142.217 53.7048 151.489 54.578C152.16 54.6326 152.922 54.6871 152.922 56.1061C151.533 56.9248 150.01 56.7611 148.532 56.6519C141.724 56.2153 134.915 55.8333 128.107 55.3421C120.179 54.6872 112.295 53.9777 104.367 53.4865C104.188 53.4865 103.964 53.8139 103.74 53.9231C103.874 54.6326 104.008 55.2874 104.143 56.1607C101.142 57.5251 97.9166 54.8509 95.2739 57.6889C94.1988 58.9988 92.2728 58.1255 91.1977 59.872C92.4519 62.0005 93.8853 63.1466 95.8562 63.3104C96.752 63.4195 98.0062 63.9653 98.3646 64.784C99.1708 66.8033 100.47 67.0216 101.858 67.1853C104.77 67.5674 107.054 69.0955 108.353 72.9159C107.592 73.4071 106.875 73.8437 105.531 74.717C111.982 76.6817 118.029 76.0814 124.12 78.5374C103.471 79.6835 83.1351 77.9916 62.5305 76.9001C53.3928 76.9547 44.2999 74.1712 35.2518 76.0268C35.0726 76.0268 34.9382 76.4634 34.7591 76.7363C34.7591 78.1007 35.4757 78.6466 36.3716 78.7557C38.1633 78.974 39.9998 78.8649 41.7915 79.2469C46.4499 80.2293 50.8396 82.6307 55.5876 83.1764C56.8866 83.4493 58.0512 84.9775 59.3502 85.3596C62.8888 86.1782 66.4274 86.9969 70.0108 87.5972C73.4599 88.4705 77.2225 87.8156 80.4923 89.3983C80.3131 90.9265 79.6413 90.9265 78.9246 90.8719C67.1441 90.4353 55.3637 89.562 43.6728 87.3243C41.3436 86.8877 39.0592 86.6148 36.6851 86.8877C37.1779 89.7803 36.4164 91.9088 35.207 93.8736C33.8184 94.0373 32.5194 94.2556 30.235 94.5285C33.8632 96.3841 35.1174 97.4211 37.6706 100.423C44.9718 101.951 47.0322 103.315 49.5854 107.736C43.3145 107.955 37.0883 110.083 30.9517 112.703C28.3537 114.176 27.5475 116.741 27.0547 124.928C26.6516 131.805 25.8005 137.917 28.4433 141.083C28.8464 141.738 29.2496 142.229 29.6527 142.72C29.5183 142.829 29.3839 142.993 29.2048 143.102C27.3235 144.303 26.3381 146.268 25.3526 147.96C23.7849 148.451 22.4411 148.833 21.1421 149.215C22.889 150.525 24.5016 151.725 25.8005 153.527C26.2933 154.236 27.2787 154.509 28.0402 154.782C28.5777 155 29.1152 155.164 29.6527 155.382C29.1152 156.146 28.5777 157.019 28.0402 158.056C26.9651 163.132 25.6662 168.153 24.9943 173.938C23.4713 189.384 19.9327 198.935 15.2295 205.429C14.0649 210.996 16.1253 215.526 15.9014 220.929C15.0055 224.422 14.0649 227.97 13.2138 231.408C15.1847 240.741 15.1847 240.741 12.9451 248.928C15.6774 252.038 18.365 251.711 21.1869 252.693C21.5452 252.803 21.8588 254.276 22.5307 256.077C17.3795 257.933 12.6315 257.824 8.64497 265.846C8.73456 273.433 11.4221 271.304 12.3628 276.434C10.8846 279.218 9.31686 279.491 7.74912 281.074C7.12203 281.838 6.6741 283.693 7.2564 286.804C8.4658 286.804 9.76479 286.804 11.3773 286.804C10.4815 294.281 8.24184 294.39 6.49493 297.72C6.00221 301.922 5.41991 306.561 4.70322 312.292C6.047 315.457 8.68977 320.26 6.22617 325.063C5.37511 325.936 4.65843 326.755 4.79281 329.92C4.8376 330.903 5.24073 332.431 5.50949 332.485C7.30119 332.813 9.0929 333.031 10.8846 332.922C19.0816 331.94 27.3235 331.94 35.4309 331.776C41.1196 329.538 46.8083 330.63 52.4969 330.63C53.0344 330.63 53.8855 329.811 54.1991 333.413C37.2227 337.616 19.7983 332.049 3.09069 341.873C2.06046 349.95 1.03023 358.137 0 366.105C0.268756 369.707 1.07502 370.908 2.10525 371.399C4.47926 372.49 6.80848 371.508 9.13769 371.399C17.7379 370.908 26.3381 370.689 34.983 370.416C36.7747 370.362 38.5664 371.617 40.3133 368.997C40.7613 368.288 41.3884 368.67 41.9707 368.725C53.7959 370.198 65.442 372.982 77.0881 379.203C72.6984 385.698 68.8014 381.114 64.4118 381.277C56.7522 381.059 49.1375 380.95 41.478 381.004C39.0144 381.004 36.5508 380.295 34.1768 384.443C31.6236 387.499 28.936 384.388 25.711 387.608C30.5933 389.846 34.8934 386.79 38.7456 393.23C49.2271 397.651 59.7981 397.596 70.3244 399.997C70.9963 400.161 71.7578 400.325 71.9369 403.054C70.8619 405.946 69.5629 404.473 68.3535 404.364C56.7074 401.744 45.0614 400.761 33.3257 401.143C28.1745 401.198 23.0234 401.307 17.8722 401.525C17.2452 401.525 16.4389 401.198 16.2597 405.073C21.4557 409.166 27.5922 406.383 33.0121 407.202C29.4735 410.203 25.6662 405.619 22.5307 412.768C21.59 414.897 20.2463 416.152 19.0816 416.534C16.3045 417.353 14.9607 422.156 14.1545 430.833C16.4837 432.416 17.0212 437.274 16.842 442.622C14.5576 444.86 12.4523 446.825 10.3919 448.899C10.2575 449.008 10.2575 450.263 10.1679 451.791C22.889 454.247 35.6549 452.664 48.376 454.575C49.0479 454.629 49.8094 454.902 49.7646 458.504C47.9281 461.015 45.7332 459.978 43.7624 460.305C34.1768 460.141 24.5463 459.923 14.9607 459.759C13.169 459.705 11.3773 459.432 9.80958 461.233C9.31686 464.344 9.04811 467.4 8.42101 469.256C7.79391 471.166 6.76368 471.93 5.86783 473.24C5.77825 476.842 5.64387 480.062 5.59907 482.736C7.39078 487.321 9.27207 488.849 11.2429 489.013C23.6057 489.613 35.9685 489.722 48.3312 490.268C44.5686 495.617 40.6269 495.289 36.6403 495.289C36.1924 495.344 35.4757 494.962 35.7445 498.455C40.179 497.909 44.6582 496.654 49.2271 502.111C48.376 504.949 47.5698 504.84 46.7635 504.895C43.5832 505.059 40.3581 505.277 37.1779 505.386C35.1622 505.441 34.0872 510.134 32.7882 513.573C33.4153 517.884 32.0267 520.34 31.758 523.669C33.5945 530.437 36.4612 533.657 38.3425 541.898C34.8934 542.826 32.2059 542.226 28.936 542.881C28.2641 542.99 28.0402 544.354 28.2641 547.028C34.5799 548.666 40.9852 548.447 47.3906 549.812C43.3592 550.467 39.3279 550.521 35.2966 550.467C32.5642 550.412 30.0558 551.886 28.3537 559.254C28.1298 560.236 27.7714 561.382 27.4131 561.655C25.1734 563.511 24.8599 569.623 24.0088 574.044C25.3526 583.377 28.5777 580.975 31.2204 581.194C44.7926 579.229 58.0512 590.308 71.5338 590.963C95.0947 592.273 118.7 589.544 142.261 588.616C147.771 590.526 153.012 589.872 158.297 589.38C162.239 588.998 166.136 588.835 170.078 588.78C172.899 588.944 175.721 589.053 178.588 589.38C211.779 593.91 244.971 592.928 278.162 596.639C283 597.13 287.927 597.622 292.72 599.75C295.542 601.005 297.781 597.185 300.29 595.984C300.872 595.711 301.499 593.801 301.141 590.254C296.706 587.088 291.824 588.998 287.658 582.067C287.434 581.685 287.121 581.576 286.852 581.576C284.299 582.122 281.925 579.666 279.551 577.428C298.05 575.572 316.594 576.282 335.138 574.372C363.178 571.479 391.263 573.28 419.348 570.06C436.37 568.095 453.391 569.351 470.412 569.787C498.273 570.551 526.134 569.351 554.04 572.789C572.091 575.027 590.098 580.102 608.149 582.449C616.346 583.486 624.722 588.18 632.964 592.218C639.594 595.438 646.626 596.148 653.524 588.234C635.562 569.896 617.063 562.692 598.519 558.271C600.042 557.344 601.43 555.761 602.953 555.051C603.536 554.778 604.163 552.868 603.804 549.321C602.505 548.393 601.161 547.902 599.818 547.52C604.073 548.175 608.373 549.212 612.673 550.685C623.782 554.506 634.846 558.162 645.954 561.928C648.059 562.638 649.941 561.328 652.494 552.868C622.617 538.241 593.457 527.926 564.028 524.761C564.028 524.543 564.029 524.324 563.984 524.161C566.895 524.597 569.851 525.034 572.763 525.47C580.691 526.999 588.575 528.636 596.503 529.891C596.682 529.946 596.906 529.182 597.13 528.8C596.996 527.217 596.861 525.634 596.727 523.56C599.728 520.395 602.953 526.671 605.596 519.904C606.671 516.847 608.597 518.812 609.672 514.719C608.418 509.752 606.985 507.078 605.014 506.587C604.118 506.368 602.864 505.059 602.505 503.094C601.699 498.346 600.4 497.909 599.011 497.472C596.1 496.544 593.816 492.997 592.517 483.992C593.278 482.846 593.995 481.754 595.339 479.735C590.994 476.624 586.828 476.187 582.662 474.495C604.611 477.879 626.38 478.916 647.925 490.486C647.432 485.957 646.85 483.883 646.223 483.664C638.25 480.663 630.008 480.935 622.348 474.386C621.229 473.458 620.109 472.749 618.989 472.148C625.394 472.967 631.845 473.895 638.295 474.714C647.432 474.604 656.525 481.045 665.573 476.788C665.752 476.788 665.887 475.696 666.066 475.096C666.066 471.93 665.349 470.62 664.454 470.347C662.662 469.856 660.825 470.129 659.034 469.201C654.375 466.854 649.985 461.233 645.237 460.032C643.938 459.323 642.774 455.775 641.475 454.902C637.936 452.992 634.398 451.082 630.814 449.663C629.784 449.062 628.754 448.789 627.724 448.571C630.232 442.076 633.099 450.045 635.831 450.154C641.699 450.427 647.477 461.506 653.479 451.9C654.106 450.918 654.778 450.645 655.271 449.553C655.898 449.826 656.525 449.99 657.152 450.263C659.481 451.3 661.766 452.009 664.14 451.245C663.647 444.478 664.409 439.511 665.618 434.818C667.007 434.381 668.306 433.999 670.59 433.235C666.962 428.814 665.708 426.467 663.154 419.372C660.825 418.226 659.078 417.08 657.645 415.77C658.272 414.842 658.854 413.969 659.481 412.768C657.376 411.295 655.271 410.04 653.121 408.675C652.36 406.601 651.643 404.091 650.881 400.98C652.763 399.015 652.807 399.015 655.092 399.779C654.778 398.578 654.51 396.723 654.151 396.559C644.118 391.974 635.428 386.899 624.991 384.225C630.456 382.587 634.532 385.644 639.325 384.497C641.117 382.806 642.908 383.188 644.7 383.679C650.613 384.497 657.108 390.446 662.886 387.827C661.094 382.369 657.555 379.64 655.226 375.383C655.092 375.165 655.002 374.564 654.913 373.8C656.391 371.945 657.914 369.598 659.347 367.36C658.63 366.76 657.914 366.214 657.152 365.614C657.242 362.012 657.331 358.737 657.421 355.844C660.333 350.223 663.692 355.79 666.514 351.86C668.171 348.804 669.873 348.258 671.665 347.822C672.382 347.658 673.278 348.913 673.815 346.02C673.188 342.036 671.934 343.019 670.904 342.691C668.843 342.036 667.634 338.707 667.231 332.649C668.664 327.955 669.829 321.843 671.531 319.278C673.412 316.44 674.397 311.855 675.383 307.926C676.951 306.834 678.294 305.906 679.593 305.033C677.846 301.922 676.234 299.139 674.935 294.882C674.442 293.19 673.457 292.589 672.695 291.88C671.083 290.406 669.47 289.151 667.858 287.841C665.17 285.658 665.17 285.603 665.26 275.397C666.738 273.324 668.171 271.031 669.694 269.285C671.307 267.484 673.278 267.702 674.218 261.48C673.188 259.679 672.292 258.097 671.531 256.732C671.799 251.493 673.905 250.947 673.77 244.943C671.307 240.959 667.499 240.959 667.544 229.389C668.574 227.533 669.739 225.459 670.904 223.276C671.083 221.202 671.396 219.128 671.351 217.109C671.262 213.834 671.172 210.505 670.948 207.449C672.651 206.739 673.278 205.539 673.681 202.591C674.084 199.699 674.935 197.079 672.292 195.715C670.68 194.569 668.888 194.187 667.052 194.023C666.693 193.204 666.335 192.331 666.066 191.349C668.35 190.966 670.59 190.257 672.651 188.511C673.726 186.327 675.025 184.199 675.696 181.743C677.219 175.139 680.758 171.1 685.461 168.317C686.626 165.916 684.565 164.005 684.789 161.713C685.685 160.24 686.626 158.711 687.477 157.238C685.506 153.254 685.506 153.254 687.746 149.761C685.013 148.451 682.326 148.56 679.504 148.123C679.145 148.069 678.832 147.468 678.16 146.704C683.311 145.886 688.059 145.94 692.046 142.557C691.956 139.336 689.269 140.21 688.328 138.027C689.806 136.826 691.374 136.717 692.942 136.062C693.569 135.734 694.017 134.97 693.434 133.606C692.225 133.606 690.926 133.606 689.313 133.606C690.209 130.44 692.449 130.386 694.196 128.967C694.688 127.166 695.271 125.201 695.987 122.745C694.644 121.38 692.001 119.361 694.465 117.287C695.316 116.905 696.032 116.578 695.898 115.213C695.853 114.777 695.45 114.122 695.181 114.122C693.39 113.958 691.598 113.903 689.806 113.958C682.639 114.34 675.428 114.395 668.261 114.449C667.096 113.849 665.887 113.521 664.722 112.976C675.786 112.866 686.85 112.866 697.6 110.192C698.854 106.754 699.884 103.261 700.915 99.8771ZM661.094 81.8666C661.99 81.8666 662.886 81.8666 663.782 81.8666C663.782 82.0304 663.782 82.1395 663.782 82.3032C662.886 82.3032 661.99 82.3032 661.094 82.3032C661.049 82.1395 661.094 81.9758 661.094 81.8666ZM650.165 21.8316C649.627 21.8316 649.493 21.8316 649.358 21.8316C649.358 21.5041 649.582 21.7224 650.165 21.8316ZM654.375 81.1571C654.42 81.43 654.42 81.6483 654.465 81.9212C653.569 82.6853 651.956 82.5215 650.926 82.3578C646.805 80.9388 642.55 82.0849 638.429 80.6659C643.759 80.8297 649.045 80.9934 654.375 81.1571ZM60.4252 335.487C60.8284 333.741 61.0075 332.431 61.2763 332.158C62.1721 331.23 62.1721 331.339 63.9191 334.996C62.8888 335.16 61.8586 335.269 60.4252 335.487ZM40.0894 408.675C39.1935 408.675 38.2977 408.675 37.4018 408.675C37.4018 408.348 37.4018 408.02 37.4018 407.693C38.2977 407.693 39.1935 407.693 40.0894 407.693C40.0894 408.075 40.0894 408.402 40.0894 408.675ZM51.0188 549.484C51.5563 549.484 51.6907 549.484 51.825 549.484C51.825 550.358 51.6011 549.757 51.0188 549.484ZM46.8083 410.312C46.7635 409.712 46.7635 409.166 46.7187 408.566C47.6145 406.71 49.2271 407.092 50.2573 407.584C54.3782 410.913 58.6335 408.184 62.7544 411.513C57.4241 411.131 52.1386 410.694 46.8083 410.312ZM346.695 62.8738C346.695 62.4917 346.919 62.7646 347.501 62.8738C346.964 62.8738 346.829 62.8738 346.695 62.8738ZM343.291 553.905C331.286 549.648 319.326 556.47 307.277 554.669C307.098 554.615 306.874 554.615 306.695 554.615C305.486 550.248 304.142 547.847 302.305 547.41C301.723 547.301 301.006 546.646 300.469 545.664C308.979 545.719 317.49 545.991 325.956 545.991C335.183 545.991 344.41 545.991 353.593 545.991C350.144 549.812 346.919 555.215 343.291 553.905ZM551.979 523.942C552.472 523.615 552.83 523.014 553.144 522.36C553.95 522.469 554.756 522.632 555.563 522.742C554.532 525.198 553.413 526.835 551.979 523.942Z"/>
</mask>
<path d="M700.915 99.8771C700.646 98.3489 699.84 97.8577 698.809 97.6394C696.435 97.2028 694.106 97.5848 691.777 97.6394C683.177 97.8577 674.577 97.9123 665.932 98.0761C664.14 98.0761 662.348 97.5848 660.601 98.6764C660.153 98.9493 659.526 98.8402 658.944 98.7856C647.119 98.1853 635.473 96.9845 623.827 94.3102C628.216 91.5268 632.113 93.4916 636.503 93.437C644.162 93.5462 651.777 93.6007 659.437 93.5461C661.9 93.5461 664.364 93.8736 666.738 92.0726C669.291 90.7627 671.979 92.0726 675.204 90.7082C670.321 89.7258 666.021 91.0356 662.169 88.3068C651.688 86.3965 641.117 86.4511 630.59 85.4141C629.918 85.3596 629.157 85.305 628.978 84.1043C630.053 82.849 631.352 83.5039 632.561 83.5585C644.207 84.7046 655.853 85.0867 667.589 84.9229C672.74 84.9229 677.891 84.8684 683.042 84.7592C683.67 84.7592 684.476 84.8684 684.655 83.2311C679.459 81.4846 673.322 82.6853 667.902 82.3032C671.441 81.048 675.249 82.9582 678.384 79.9564C679.325 79.0286 680.668 78.5374 681.833 78.3737C684.61 78.0462 685.954 75.9723 686.76 72.261C684.431 71.6061 683.893 69.5322 684.073 67.2399C686.357 66.3121 688.462 65.4388 690.523 64.5656C690.657 64.511 690.657 63.9653 690.747 63.3104C678.026 62.2734 665.26 62.9283 652.539 62.1097C651.867 62.0551 651.105 61.9459 651.15 60.4177C652.987 59.3262 655.181 59.8174 657.152 59.6537C666.738 59.7083 676.368 59.8174 685.954 59.872C687.746 59.872 689.537 59.9811 691.105 59.2171C691.598 57.9072 691.867 56.5973 692.494 55.7787C693.121 54.96 694.151 54.6326 695.047 54.0868C695.136 52.5586 695.271 51.1942 695.316 50.0481C693.524 48.0833 691.643 47.4284 689.672 47.3738C677.309 47.1009 664.946 47.0463 652.583 46.828C656.346 44.5358 660.288 44.6995 664.274 44.6995C664.722 44.6995 665.439 44.8632 665.17 43.3351C660.736 43.5534 656.256 44.0992 651.688 41.7523C652.539 40.5516 653.345 40.6062 654.151 40.5516C657.331 40.497 660.556 40.3879 663.737 40.3333C665.752 40.2787 666.827 38.3139 668.126 36.8403C667.499 34.9847 668.888 33.9478 669.157 32.5288C667.32 29.6362 664.453 28.2717 662.572 24.7788C666.021 24.3967 668.709 24.6151 671.979 24.3422C672.651 24.2876 672.875 23.6872 672.651 22.5957C666.335 21.8862 659.929 21.9954 653.524 21.395C657.555 21.1222 661.587 21.0675 665.618 21.1221C668.35 21.1221 670.859 20.5218 672.561 17.3563C672.785 16.9197 673.143 16.4284 673.502 16.3193C675.741 15.5552 676.055 12.9356 676.906 11.0254C675.562 7.04123 672.337 8.07818 669.694 7.96903C656.167 8.84227 642.908 4.14863 629.47 3.87574C593.771 3.05708 558.116 6.16792 522.416 4.5306C489.225 2.56582 456.033 3.00246 422.842 1.41972C418.005 1.20141 413.077 0.98308 408.285 0.109844C405.463 -0.435929 403.223 1.20142 400.715 1.74719C400.132 1.85634 399.505 2.67504 399.864 4.2032C404.298 5.56764 409.18 4.749 413.346 7.69617C413.57 7.8599 413.884 7.91438 414.152 7.91438C418.453 7.53234 422.125 10.6979 426.336 11.0799C435.608 11.9531 444.925 12.7172 454.197 13.5904C454.869 13.645 455.63 13.6997 455.63 15.1187C454.242 15.9373 452.719 15.7736 451.241 15.6644C444.432 15.2278 437.624 14.8458 430.815 14.3546C422.887 13.6996 415.003 12.9901 407.075 12.4989C406.896 12.4989 406.672 12.8264 406.448 12.9356C406.582 13.6451 406.717 14.3 406.851 15.1732C403.85 16.5376 400.625 13.8634 397.982 16.7014C396.907 18.0112 394.981 17.138 393.906 18.8845C395.16 21.013 396.594 22.1591 398.565 22.3228C399.46 22.432 400.715 22.9778 401.073 23.7964C401.879 25.8158 403.178 26.0341 404.567 26.1978C407.478 26.5798 409.763 28.108 411.062 31.9284C410.3 32.4196 409.584 32.8563 408.24 33.7295C414.69 35.6943 420.737 35.0939 426.829 37.5499C406.179 38.696 385.843 37.0041 365.239 35.9125C356.101 35.9671 347.008 33.1837 337.96 35.0393C337.781 35.0393 337.647 35.4759 337.467 35.7488C337.467 37.1132 338.184 37.659 339.08 37.7682C340.872 37.9865 342.708 37.8773 344.5 38.2594C349.158 39.2418 353.548 41.6432 358.296 42.189C359.595 42.4618 360.76 43.99 362.059 44.372C365.597 45.1907 369.136 46.0094 372.719 46.6097C376.168 47.483 379.931 46.8281 383.201 48.4108C383.022 49.939 382.35 49.9389 381.633 49.8843C378.318 49.7752 374.959 49.5023 371.644 49.284C370.211 48.7928 368.509 49.0111 367.031 48.9565C366.627 48.9565 366.269 48.902 365.866 48.9565C359.371 48.4108 352.876 47.6467 346.381 46.3914C344.052 45.9548 341.768 45.6819 339.394 45.9548C339.394 46.0639 339.394 46.1185 339.394 46.1731C335.183 45.5182 331.017 44.9724 326.762 44.8633C291.062 44.0446 255.407 47.1555 219.708 45.5182C186.516 43.5534 153.325 43.99 120.134 42.4073C115.296 42.189 110.369 41.9706 105.576 41.0974C102.754 40.5516 100.515 42.189 98.0062 42.7348C97.4239 42.8439 96.7968 43.6626 97.1552 45.1907C101.59 46.5552 106.472 45.7365 110.638 48.6837C110.862 48.8474 111.175 48.902 111.444 48.902C115.744 48.5199 119.417 51.6854 123.628 52.0674C132.9 52.9407 142.217 53.7048 151.489 54.578C152.16 54.6326 152.922 54.6871 152.922 56.1061C151.533 56.9248 150.01 56.7611 148.532 56.6519C141.724 56.2153 134.915 55.8333 128.107 55.3421C120.179 54.6872 112.295 53.9777 104.367 53.4865C104.188 53.4865 103.964 53.8139 103.74 53.9231C103.874 54.6326 104.008 55.2874 104.143 56.1607C101.142 57.5251 97.9166 54.8509 95.2739 57.6889C94.1988 58.9988 92.2728 58.1255 91.1977 59.872C92.4519 62.0005 93.8853 63.1466 95.8562 63.3104C96.752 63.4195 98.0062 63.9653 98.3646 64.784C99.1708 66.8033 100.47 67.0216 101.858 67.1853C104.77 67.5674 107.054 69.0955 108.353 72.9159C107.592 73.4071 106.875 73.8437 105.531 74.717C111.982 76.6817 118.029 76.0814 124.12 78.5374C103.471 79.6835 83.1351 77.9916 62.5305 76.9001C53.3928 76.9547 44.2999 74.1712 35.2518 76.0268C35.0726 76.0268 34.9382 76.4634 34.7591 76.7363C34.7591 78.1007 35.4757 78.6466 36.3716 78.7557C38.1633 78.974 39.9998 78.8649 41.7915 79.2469C46.4499 80.2293 50.8396 82.6307 55.5876 83.1764C56.8866 83.4493 58.0512 84.9775 59.3502 85.3596C62.8888 86.1782 66.4274 86.9969 70.0108 87.5972C73.4599 88.4705 77.2225 87.8156 80.4923 89.3983C80.3131 90.9265 79.6413 90.9265 78.9246 90.8719C67.1441 90.4353 55.3637 89.562 43.6728 87.3243C41.3436 86.8877 39.0592 86.6148 36.6851 86.8877C37.1779 89.7803 36.4164 91.9088 35.207 93.8736C33.8184 94.0373 32.5194 94.2556 30.235 94.5285C33.8632 96.3841 35.1174 97.4211 37.6706 100.423C44.9718 101.951 47.0322 103.315 49.5854 107.736C43.3145 107.955 37.0883 110.083 30.9517 112.703C28.3537 114.176 27.5475 116.741 27.0547 124.928C26.6516 131.805 25.8005 137.917 28.4433 141.083C28.8464 141.738 29.2496 142.229 29.6527 142.72C29.5183 142.829 29.3839 142.993 29.2048 143.102C27.3235 144.303 26.3381 146.268 25.3526 147.96C23.7849 148.451 22.4411 148.833 21.1421 149.215C22.889 150.525 24.5016 151.725 25.8005 153.527C26.2933 154.236 27.2787 154.509 28.0402 154.782C28.5777 155 29.1152 155.164 29.6527 155.382C29.1152 156.146 28.5777 157.019 28.0402 158.056C26.9651 163.132 25.6662 168.153 24.9943 173.938C23.4713 189.384 19.9327 198.935 15.2295 205.429C14.0649 210.996 16.1253 215.526 15.9014 220.929C15.0055 224.422 14.0649 227.97 13.2138 231.408C15.1847 240.741 15.1847 240.741 12.9451 248.928C15.6774 252.038 18.365 251.711 21.1869 252.693C21.5452 252.803 21.8588 254.276 22.5307 256.077C17.3795 257.933 12.6315 257.824 8.64497 265.846C8.73456 273.433 11.4221 271.304 12.3628 276.434C10.8846 279.218 9.31686 279.491 7.74912 281.074C7.12203 281.838 6.6741 283.693 7.2564 286.804C8.4658 286.804 9.76479 286.804 11.3773 286.804C10.4815 294.281 8.24184 294.39 6.49493 297.72C6.00221 301.922 5.41991 306.561 4.70322 312.292C6.047 315.457 8.68977 320.26 6.22617 325.063C5.37511 325.936 4.65843 326.755 4.79281 329.92C4.8376 330.903 5.24073 332.431 5.50949 332.485C7.30119 332.813 9.0929 333.031 10.8846 332.922C19.0816 331.94 27.3235 331.94 35.4309 331.776C41.1196 329.538 46.8083 330.63 52.4969 330.63C53.0344 330.63 53.8855 329.811 54.1991 333.413C37.2227 337.616 19.7983 332.049 3.09069 341.873C2.06046 349.95 1.03023 358.137 0 366.105C0.268756 369.707 1.07502 370.908 2.10525 371.399C4.47926 372.49 6.80848 371.508 9.13769 371.399C17.7379 370.908 26.3381 370.689 34.983 370.416C36.7747 370.362 38.5664 371.617 40.3133 368.997C40.7613 368.288 41.3884 368.67 41.9707 368.725C53.7959 370.198 65.442 372.982 77.0881 379.203C72.6984 385.698 68.8014 381.114 64.4118 381.277C56.7522 381.059 49.1375 380.95 41.478 381.004C39.0144 381.004 36.5508 380.295 34.1768 384.443C31.6236 387.499 28.936 384.388 25.711 387.608C30.5933 389.846 34.8934 386.79 38.7456 393.23C49.2271 397.651 59.7981 397.596 70.3244 399.997C70.9963 400.161 71.7578 400.325 71.9369 403.054C70.8619 405.946 69.5629 404.473 68.3535 404.364C56.7074 401.744 45.0614 400.761 33.3257 401.143C28.1745 401.198 23.0234 401.307 17.8722 401.525C17.2452 401.525 16.4389 401.198 16.2597 405.073C21.4557 409.166 27.5922 406.383 33.0121 407.202C29.4735 410.203 25.6662 405.619 22.5307 412.768C21.59 414.897 20.2463 416.152 19.0816 416.534C16.3045 417.353 14.9607 422.156 14.1545 430.833C16.4837 432.416 17.0212 437.274 16.842 442.622C14.5576 444.86 12.4523 446.825 10.3919 448.899C10.2575 449.008 10.2575 450.263 10.1679 451.791C22.889 454.247 35.6549 452.664 48.376 454.575C49.0479 454.629 49.8094 454.902 49.7646 458.504C47.9281 461.015 45.7332 459.978 43.7624 460.305C34.1768 460.141 24.5463 459.923 14.9607 459.759C13.169 459.705 11.3773 459.432 9.80958 461.233C9.31686 464.344 9.04811 467.4 8.42101 469.256C7.79391 471.166 6.76368 471.93 5.86783 473.24C5.77825 476.842 5.64387 480.062 5.59907 482.736C7.39078 487.321 9.27207 488.849 11.2429 489.013C23.6057 489.613 35.9685 489.722 48.3312 490.268C44.5686 495.617 40.6269 495.289 36.6403 495.289C36.1924 495.344 35.4757 494.962 35.7445 498.455C40.179 497.909 44.6582 496.654 49.2271 502.111C48.376 504.949 47.5698 504.84 46.7635 504.895C43.5832 505.059 40.3581 505.277 37.1779 505.386C35.1622 505.441 34.0872 510.134 32.7882 513.573C33.4153 517.884 32.0267 520.34 31.758 523.669C33.5945 530.437 36.4612 533.657 38.3425 541.898C34.8934 542.826 32.2059 542.226 28.936 542.881C28.2641 542.99 28.0402 544.354 28.2641 547.028C34.5799 548.666 40.9852 548.447 47.3906 549.812C43.3592 550.467 39.3279 550.521 35.2966 550.467C32.5642 550.412 30.0558 551.886 28.3537 559.254C28.1298 560.236 27.7714 561.382 27.4131 561.655C25.1734 563.511 24.8599 569.623 24.0088 574.044C25.3526 583.377 28.5777 580.975 31.2204 581.194C44.7926 579.229 58.0512 590.308 71.5338 590.963C95.0947 592.273 118.7 589.544 142.261 588.616C147.771 590.526 153.012 589.872 158.297 589.38C162.239 588.998 166.136 588.835 170.078 588.78C172.899 588.944 175.721 589.053 178.588 589.38C211.779 593.91 244.971 592.928 278.162 596.639C283 597.13 287.927 597.622 292.72 599.75C295.542 601.005 297.781 597.185 300.29 595.984C300.872 595.711 301.499 593.801 301.141 590.254C296.706 587.088 291.824 588.998 287.658 582.067C287.434 581.685 287.121 581.576 286.852 581.576C284.299 582.122 281.925 579.666 279.551 577.428C298.05 575.572 316.594 576.282 335.138 574.372C363.178 571.479 391.263 573.28 419.348 570.06C436.37 568.095 453.391 569.351 470.412 569.787C498.273 570.551 526.134 569.351 554.04 572.789C572.091 575.027 590.098 580.102 608.149 582.449C616.346 583.486 624.722 588.18 632.964 592.218C639.594 595.438 646.626 596.148 653.524 588.234C635.562 569.896 617.063 562.692 598.519 558.271C600.042 557.344 601.43 555.761 602.953 555.051C603.536 554.778 604.163 552.868 603.804 549.321C602.505 548.393 601.161 547.902 599.818 547.52C604.073 548.175 608.373 549.212 612.673 550.685C623.782 554.506 634.846 558.162 645.954 561.928C648.059 562.638 649.941 561.328 652.494 552.868C622.617 538.241 593.457 527.926 564.028 524.761C564.028 524.543 564.029 524.324 563.984 524.161C566.895 524.597 569.851 525.034 572.763 525.47C580.691 526.999 588.575 528.636 596.503 529.891C596.682 529.946 596.906 529.182 597.13 528.8C596.996 527.217 596.861 525.634 596.727 523.56C599.728 520.395 602.953 526.671 605.596 519.904C606.671 516.847 608.597 518.812 609.672 514.719C608.418 509.752 606.985 507.078 605.014 506.587C604.118 506.368 602.864 505.059 602.505 503.094C601.699 498.346 600.4 497.909 599.011 497.472C596.1 496.544 593.816 492.997 592.517 483.992C593.278 482.846 593.995 481.754 595.339 479.735C590.994 476.624 586.828 476.187 582.662 474.495C604.611 477.879 626.38 478.916 647.925 490.486C647.432 485.957 646.85 483.883 646.223 483.664C638.25 480.663 630.008 480.935 622.348 474.386C621.229 473.458 620.109 472.749 618.989 472.148C625.394 472.967 631.845 473.895 638.295 474.714C647.432 474.604 656.525 481.045 665.573 476.788C665.752 476.788 665.887 475.696 666.066 475.096C666.066 471.93 665.349 470.62 664.454 470.347C662.662 469.856 660.825 470.129 659.034 469.201C654.375 466.854 649.985 461.233 645.237 460.032C643.938 459.323 642.774 455.775 641.475 454.902C637.936 452.992 634.398 451.082 630.814 449.663C629.784 449.062 628.754 448.789 627.724 448.571C630.232 442.076 633.099 450.045 635.831 450.154C641.699 450.427 647.477 461.506 653.479 451.9C654.106 450.918 654.778 450.645 655.271 449.553C655.898 449.826 656.525 449.99 657.152 450.263C659.481 451.3 661.766 452.009 664.14 451.245C663.647 444.478 664.409 439.511 665.618 434.818C667.007 434.381 668.306 433.999 670.59 433.235C666.962 428.814 665.708 426.467 663.154 419.372C660.825 418.226 659.078 417.08 657.645 415.77C658.272 414.842 658.854 413.969 659.481 412.768C657.376 411.295 655.271 410.04 653.121 408.675C652.36 406.601 651.643 404.091 650.881 400.98C652.763 399.015 652.807 399.015 655.092 399.779C654.778 398.578 654.51 396.723 654.151 396.559C644.118 391.974 635.428 386.899 624.991 384.225C630.456 382.587 634.532 385.644 639.325 384.497C641.117 382.806 642.908 383.188 644.7 383.679C650.613 384.497 657.108 390.446 662.886 387.827C661.094 382.369 657.555 379.64 655.226 375.383C655.092 375.165 655.002 374.564 654.913 373.8C656.391 371.945 657.914 369.598 659.347 367.36C658.63 366.76 657.914 366.214 657.152 365.614C657.242 362.012 657.331 358.737 657.421 355.844C660.333 350.223 663.692 355.79 666.514 351.86C668.171 348.804 669.873 348.258 671.665 347.822C672.382 347.658 673.278 348.913 673.815 346.02C673.188 342.036 671.934 343.019 670.904 342.691C668.843 342.036 667.634 338.707 667.231 332.649C668.664 327.955 669.829 321.843 671.531 319.278C673.412 316.44 674.397 311.855 675.383 307.926C676.951 306.834 678.294 305.906 679.593 305.033C677.846 301.922 676.234 299.139 674.935 294.882C674.442 293.19 673.457 292.589 672.695 291.88C671.083 290.406 669.47 289.151 667.858 287.841C665.17 285.658 665.17 285.603 665.26 275.397C666.738 273.324 668.171 271.031 669.694 269.285C671.307 267.484 673.278 267.702 674.218 261.48C673.188 259.679 672.292 258.097 671.531 256.732C671.799 251.493 673.905 250.947 673.77 244.943C671.307 240.959 667.499 240.959 667.544 229.389C668.574 227.533 669.739 225.459 670.904 223.276C671.083 221.202 671.396 219.128 671.351 217.109C671.262 213.834 671.172 210.505 670.948 207.449C672.651 206.739 673.278 205.539 673.681 202.591C674.084 199.699 674.935 197.079 672.292 195.715C670.68 194.569 668.888 194.187 667.052 194.023C666.693 193.204 666.335 192.331 666.066 191.349C668.35 190.966 670.59 190.257 672.651 188.511C673.726 186.327 675.025 184.199 675.696 181.743C677.219 175.139 680.758 171.1 685.461 168.317C686.626 165.916 684.565 164.005 684.789 161.713C685.685 160.24 686.626 158.711 687.477 157.238C685.506 153.254 685.506 153.254 687.746 149.761C685.013 148.451 682.326 148.56 679.504 148.123C679.145 148.069 678.832 147.468 678.16 146.704C683.311 145.886 688.059 145.94 692.046 142.557C691.956 139.336 689.269 140.21 688.328 138.027C689.806 136.826 691.374 136.717 692.942 136.062C693.569 135.734 694.017 134.97 693.434 133.606C692.225 133.606 690.926 133.606 689.313 133.606C690.209 130.44 692.449 130.386 694.196 128.967C694.688 127.166 695.271 125.201 695.987 122.745C694.644 121.38 692.001 119.361 694.465 117.287C695.316 116.905 696.032 116.578 695.898 115.213C695.853 114.777 695.45 114.122 695.181 114.122C693.39 113.958 691.598 113.903 689.806 113.958C682.639 114.34 675.428 114.395 668.261 114.449C667.096 113.849 665.887 113.521 664.722 112.976C675.786 112.866 686.85 112.866 697.6 110.192C698.854 106.754 699.884 103.261 700.915 99.8771ZM661.094 81.8666C661.99 81.8666 662.886 81.8666 663.782 81.8666C663.782 82.0304 663.782 82.1395 663.782 82.3032C662.886 82.3032 661.99 82.3032 661.094 82.3032C661.049 82.1395 661.094 81.9758 661.094 81.8666ZM650.165 21.8316C649.627 21.8316 649.493 21.8316 649.358 21.8316C649.358 21.5041 649.582 21.7224 650.165 21.8316ZM654.375 81.1571C654.42 81.43 654.42 81.6483 654.465 81.9212C653.569 82.6853 651.956 82.5215 650.926 82.3578C646.805 80.9388 642.55 82.0849 638.429 80.6659C643.759 80.8297 649.045 80.9934 654.375 81.1571ZM60.4252 335.487C60.8284 333.741 61.0075 332.431 61.2763 332.158C62.1721 331.23 62.1721 331.339 63.9191 334.996C62.8888 335.16 61.8586 335.269 60.4252 335.487ZM40.0894 408.675C39.1935 408.675 38.2977 408.675 37.4018 408.675C37.4018 408.348 37.4018 408.02 37.4018 407.693C38.2977 407.693 39.1935 407.693 40.0894 407.693C40.0894 408.075 40.0894 408.402 40.0894 408.675ZM51.0188 549.484C51.5563 549.484 51.6907 549.484 51.825 549.484C51.825 550.358 51.6011 549.757 51.0188 549.484ZM46.8083 410.312C46.7635 409.712 46.7635 409.166 46.7187 408.566C47.6145 406.71 49.2271 407.092 50.2573 407.584C54.3782 410.913 58.6335 408.184 62.7544 411.513C57.4241 411.131 52.1386 410.694 46.8083 410.312ZM346.695 62.8738C346.695 62.4917 346.919 62.7646 347.501 62.8738C346.964 62.8738 346.829 62.8738 346.695 62.8738ZM343.291 553.905C331.286 549.648 319.326 556.47 307.277 554.669C307.098 554.615 306.874 554.615 306.695 554.615C305.486 550.248 304.142 547.847 302.305 547.41C301.723 547.301 301.006 546.646 300.469 545.664C308.979 545.719 317.49 545.991 325.956 545.991C335.183 545.991 344.41 545.991 353.593 545.991C350.144 549.812 346.919 555.215 343.291 553.905ZM551.979 523.942C552.472 523.615 552.83 523.014 553.144 522.36C553.95 522.469 554.756 522.632 555.563 522.742C554.532 525.198 553.413 526.835 551.979 523.942Z" fill="black" stroke="black" stroke-width="2" mask="url(#path-1-inside-1_190_89)"/>
</svg>
