<svg width="750" height="674" viewBox="0 0 750 674" fill="none" xmlns="http://www.w3.org/2000/svg">
<path d="M66.7617 666.38C67.2816 667.151 67.6099 666.67 68.0477 665.947C67.8288 665.947 67.5826 665.947 67.309 665.947C67.1448 666.043 66.9533 666.188 66.7617 666.38Z" fill="black"/>
<path d="M82.1388 668.067C82.1388 668.404 82.1388 668.742 82.1388 669.079C83.2059 669.079 84.273 669.079 85.3401 669.079C85.3401 668.742 85.3401 668.404 85.3401 668.067C84.273 668.067 83.2059 668.067 82.1388 668.067Z" fill="black"/>
<path d="M540.004 670.862C547.063 673.706 548.24 673.609 553.575 669.947C547.966 670.911 544.026 667.778 540.004 670.862Z" fill="black"/>
<path d="M496.499 662.525C496.499 662.862 496.499 663.2 496.499 663.537C497.758 663.537 498.989 663.537 500.248 663.537C500.248 663.2 500.248 662.862 500.248 662.525C498.989 662.525 497.731 662.525 496.499 662.525Z" fill="black"/>
<path d="M116.012 669.609C109.829 668.935 103.618 668.356 97.4065 667.778C100.991 671.007 105.341 667.923 108.679 671.441C111.498 675.826 114.124 673.513 117.134 672.26C116.587 670.862 116.313 669.658 116.012 669.609Z" fill="black"/>
<path d="M696.101 532.401C695.006 532.063 693.994 531.726 692.927 531.389C692.653 533.702 692.024 535.822 691.422 537.991C692.954 538.762 694.486 536.738 696.101 532.401Z" fill="black"/>
<path d="M446.893 663.922C453.022 664.115 457.619 668.501 462.763 673.706C464.158 670.139 465.116 667.633 466.046 665.127C466.101 665.031 465.8 664.404 465.663 664.019C458.549 661.416 454.281 661.32 446.893 663.922Z" fill="black"/>
<path d="M420.873 662.187C426.564 664.886 432.282 665.706 438.028 663.778C432.364 660.549 426.673 658.621 420.873 662.187Z" fill="black"/>
<path d="M125.534 670.477C124.987 670.621 124.467 671.103 123.92 671.489C124.33 673.369 125.315 672.164 126.273 672.308C125.944 671.393 125.725 670.429 125.534 670.477Z" fill="black"/>
<path d="M385.467 661.031C390.474 661.368 394.879 662.043 399.257 661.85C403.826 661.609 408.396 665.175 412.938 661.657C407.137 658.814 390.885 658.91 385.467 661.031Z" fill="black"/>
<path d="M284.804 13.6389C284.832 13.7353 284.887 13.7835 284.914 13.8317C284.941 13.6389 284.969 13.4462 284.996 13.2534L284.804 13.6389Z" fill="black"/>
<path d="M245.842 0C245.842 0.0963883 245.842 0.240971 245.842 0.337359C245.897 0.337359 245.924 0.289165 245.979 0.289165L245.842 0Z" fill="black"/>
<path d="M730.439 404.831C730.001 405.361 729.153 405.12 728.633 404.686C723.407 400.011 717.826 399.915 712.244 399.385C701.436 399.337 690.82 394.855 680.067 393.939C679.547 391.481 679.739 388.927 680.833 386.131C690.875 387.192 700.916 384.975 710.848 387.866C719.878 385.891 728.962 386.951 738.073 387.336C739.715 387.336 741.083 386.517 742.588 389.071C744.175 391.77 746.172 390.18 747.95 388.83C748.99 388.011 750.276 387.481 749.948 383.915C742.971 379.047 734.981 381.698 727.895 378.951C724.584 377.264 721.492 378.179 718.263 378.083C713.968 378.565 709.398 373.746 705.239 376.203C703.652 377.987 702.257 378.179 700.615 376.396C696.484 372.011 691.586 375.191 687.126 373.023C687.236 372.782 687.318 372.589 687.427 372.348C681.161 368.589 674.896 367.529 670.49 358.082C671.831 353.841 673.719 356.588 675.388 356.492C679.027 356.251 682.228 356.107 685.977 356.203C685.348 352.058 685.156 346.853 683.268 345.697C682.475 347.142 681.845 348.877 681.079 350.709C677.303 351.239 673.5 350.902 669.998 346.709C660.202 341.359 650.079 337.263 639.873 334.178C625.016 331.142 610.268 326.515 595.301 325.792C591.361 325.166 587.12 326.901 583.727 322.178C592.264 318.563 600.664 325.214 609.201 324.202C632.978 323.768 656.208 333.696 679.793 337.166C681.134 337.359 681.572 336.01 681.189 332.925C673.692 331.238 665.976 328.925 658.533 325.937C645.674 321.985 632.239 322.756 619.708 315.961C622.17 314.467 624.496 313.985 626.767 314.563C641.05 318.081 655.25 323.383 669.615 325.6C671.585 325.841 673.09 323.768 672.652 318.178C663.732 314.515 654.648 309.744 645.537 307.141C647.945 306.659 650.489 304.009 652.815 306.418C657.083 310.611 661.324 309.84 665.784 307.816C674.622 303.671 683.46 311.768 692.27 306.033C692.79 304.153 693.31 302.177 693.802 300.346C696.402 299.575 698.864 298.804 700.287 298.418C703.05 288.394 704.473 282.08 708.085 293.261C708.358 293.84 708.933 293.888 709.672 294.418C711.177 292.683 713.749 288.346 715.637 290.081C716.758 291.767 717.306 292.153 718.947 291.43C722.477 289.84 726.417 289.117 729.892 290.755C736.267 293.743 742.15 292.105 749.893 287.334C730.165 270.466 708.358 274.514 687.454 270.417C686.907 264.875 685.32 261.212 683.323 258.224C684.691 246.465 688.85 239.525 695.088 236.392C697.523 235.139 699.986 234.127 701.792 230.416C700.916 226.031 699.767 223.669 697.469 224.006C690.628 224.97 684.062 221.452 677.604 218.898C677.194 216.536 676.893 214.801 676.619 213.307C672.707 211.187 668.931 209.114 665.264 207.138C665.237 206.464 665.237 205.934 665.21 205.355C666.195 205.355 667.152 205.355 668.137 205.355C668.137 199.765 668.849 198.415 670.025 194.656C674.567 193.981 679.137 193.355 683.815 192.68C682.584 184.391 685.348 176.15 684.253 167.523C681.681 167.523 679.137 168.824 677.194 167.234C676.209 166.414 675.197 165.932 674.212 165.643C674.184 164.92 674.157 164.197 674.02 163.378C671.94 161.836 669.505 160.197 667.152 159.812C669.752 159.619 672.351 159.426 674.978 159.233C675.826 156.294 675.06 151.812 677.413 151.281C678.507 151.04 678.945 149.595 678.015 146.269C638.04 134.413 597.052 138.703 556.722 138.173C546.133 132.919 535.134 133.498 524.326 132.004C560.99 129.835 598.147 133.112 634.565 128.389C634.565 125.98 634.565 123.763 634.565 121.208C640.037 117.208 645.728 120.967 651.337 119.666C653.991 119.281 656.728 121.546 659.792 119.232C642.472 103.328 620.2 109.834 601.266 107.136C586.081 106.605 570.868 108.581 555.709 108.292C544.737 105.883 533.629 107.569 522.712 107.425C480.356 103.955 437.782 110.75 395.344 110.654C391.377 110.75 387.41 109.594 383.442 108.726C382.758 108.581 382.184 106.75 380.679 104.244C396.001 101.449 408.943 100.099 423.855 100.388C431.817 100.581 439.725 97.2558 447.687 100.051C453.98 97.9305 460.163 98.0269 466.402 100.87C467.469 101.256 469.056 101.834 469.631 100.726C472.339 95.3762 474.802 100.533 477.374 100.726C479.371 97.2558 481.396 92.3882 483.858 97.545C485.938 101.69 489.468 97.3522 491.219 103.039C491.41 103.666 492.587 103.473 493.216 103.087C497.019 100.678 500.932 100.919 504.954 100.822C506.432 97.1112 507.827 93.8822 509.441 90.3641C510.837 92.1954 511.576 94.9907 513.354 93.3521C515.269 91.6171 515.516 97.9305 517.349 97.545C519.1 97.4968 522 95.4726 523.013 93.0147C524.271 89.352 526.214 96.4365 527.089 91.087C527.609 87.858 529.607 87.5688 530.701 88.87C533.656 92.4846 536.611 88.7736 539.566 89.6893C548.842 91.3279 559.376 83.4723 567.831 94.075C574.178 85.5928 580.28 85.4964 586.546 92.34C588.324 87.617 589.747 86.2194 591.525 87.9061C592.346 88.6773 592.976 90.3159 593.769 91.1834C595.411 92.9665 596.368 90.7014 597.271 88.2917C600.336 91.1352 602.99 100.292 605.48 89.4002C610.022 91.9545 612.867 86.4603 616.944 88.2435C618.422 90.4122 617.026 93.0629 615.521 93.2557C618.23 97.304 618.175 89.7375 619.927 89.352C620.693 90.7978 621.377 92.7256 622.334 93.7858C624.222 95.81 624.332 91.3761 625.344 90.2195C626.685 88.6773 628.901 86.8459 629.859 88.0025C633.99 92.9665 638.669 91.4725 642.91 93.9786C643.676 91.9545 644.388 90.1231 645.181 88.1471C646.467 89.5929 647.644 90.9424 648.793 92.2436C651.857 87.1832 651.857 87.2314 656.126 86.6049C658.944 86.2194 661.653 85.3519 663.869 81.1108C664.827 79.2312 666.222 78.2673 667.481 76.7733C664.662 71.2792 660.996 71.5201 657.631 70.9418C646.768 68.3393 635.632 69.6888 624.906 65.9296C625.426 61.6403 626.931 61.7367 628.299 61.8331C643.211 59.7608 660.202 73.3997 672.597 51.0858C668.63 49.4472 671.284 43.3266 670.299 39.0855C665.675 38.0252 661.051 39.3265 656.645 34.8926C654.785 33.013 652.021 33.254 649.833 34.2661C647.616 35.2782 645.838 35.6155 643.868 32.9648C642.965 31.7118 641.569 30.9407 640.502 31.3262C636.726 32.5793 633.142 29.8804 629.421 29.8804C606.629 29.784 583.864 29.3021 561.072 29.1575C540.715 29.1575 520.441 22.4585 500.111 22.8441C492.122 23.4224 484.296 19.5669 476.361 20.9645C474.501 21.3019 473.078 17.8801 470.944 19.5187C469.33 20.7717 467.086 21.3501 465.608 20.0006C463.009 17.5909 462.407 22.8441 460.765 23.567C457.291 24.6754 453.487 22.7477 450.779 18.362C449.848 20.4826 449.246 21.8802 448.398 23.8561C442.57 14.4583 436.66 26.1213 430.23 22.7477C427.056 20.9163 423.089 25.9285 419.942 23.0368C416.112 16.6752 412.172 19.5669 408.15 21.9766C403.197 24.9646 398.327 24.7236 393.566 19.1813C392.499 20.7235 391.404 22.3139 390.693 23.326C385.659 21.7356 381.472 21.7356 376.575 21.6874C374.358 21.5428 372.197 17.4945 369.898 21.8802C369.57 22.5067 367.956 21.5428 367.408 20.3862C363.797 13.0607 359.009 17.6391 355.041 20.6271C353.81 16.627 351.867 19.0849 350.335 18.8921C346.641 18.362 340.923 16.0969 338.46 13.5908C338.077 13.2052 337.557 13.4462 336.791 13.398C335.779 15.9041 334.63 18.6512 333.207 22.073C331.073 19.7596 328.637 20.097 326.202 20.9645C324.561 15.7595 321.606 15.8559 319.389 16.5788C316.954 17.3499 314.738 15.3258 312.494 16.2415C310.77 16.9644 310.716 14.2655 310.032 12.6751C309.649 11.8076 308.883 11.5184 307.898 10.651C309.731 20.1934 307.077 21.8802 304.532 14.2173C300.045 15.2776 295.694 17.0608 291.344 17.0126C289.292 16.9644 286.692 17.7355 284.859 14.0245C284.668 15.4704 284.504 16.9644 284.285 18.6994C279.059 14.0245 273.367 16.2897 269.318 10.7955C262.56 17.4463 256.294 15.0848 249.207 14.2173C248.14 14.0727 247.101 12.5787 245.787 11.5184C245.787 7.66291 245.787 4.09655 245.787 0.530183C244.747 0.96393 243.708 1.30129 242.695 1.92781C241.847 2.45795 240.78 4.38571 240.26 3.85558C236.484 0.192823 233.885 7.7593 230.52 7.56653C225.485 14.7956 219.63 13.3498 214.103 12.2896C195.442 12.9643 176.754 16.7716 158.121 21.0127C146.219 22.9887 134.454 26.555 122.77 31.5672C118.721 33.3022 116.149 36.7722 114.918 44.676C114.015 50.5557 112.401 55.6161 109.309 58.074C109.09 58.2668 109.09 59.6162 109.008 60.3391C109.528 61.2066 110.047 62.0259 110.649 63.038C109.664 64.7248 108.488 65.8332 108.023 67.6646C107.448 69.9297 107.421 72.8214 107.257 74.6528C104.247 78.6047 100.17 77.448 98.8293 85.9784C99.9237 87.5688 101.292 88.7736 102.031 90.7978C102.742 92.7738 102.824 95.6654 103.234 98.6053C107.503 98.0269 111.525 96.1955 115.219 100.629C115.739 101.256 116.614 100.774 117.298 100.629C125.452 99.1354 133.633 97.545 141.787 96.051C144.359 95.569 146.958 94.5569 150.159 96.5329C149.338 96.8221 148.572 97.1112 147.779 97.4004C145.699 97.4486 143.62 97.6414 141.568 98.3643C141.568 98.798 141.568 99.1836 141.568 99.6173C129.31 104.967 116.696 106.124 105.095 115.329C98.583 116.871 92.5635 124.1 85.6958 122.317C85.3948 122.269 85.0118 123.377 84.3825 124.437C89.1707 124.967 93.8495 125.449 98.5557 125.98C97.4612 127.474 95.6827 127.666 96.3941 132.004C99.4586 132.004 99.9511 132.004 104.11 132.004C100.991 134.703 99.4039 135.956 97.8716 137.45C97.598 137.739 97.4886 138.799 97.2149 140.245C74.6692 139.859 52.397 136.245 29.8513 137.787C30.5079 141.112 30.6174 144.341 31.4382 145.354C36.0896 152.149 42.0818 149.643 46.2954 158.559C46.4322 163.764 46.9795 170.077 47.8277 175.282C43.8876 178.848 40.2486 176.921 36.6916 177.258C33.3535 177.595 29.9881 177.885 26.65 177.788C20.0832 177.595 20.0832 177.451 15.897 181.306C19.5907 184.439 23.3119 182.126 26.5132 185.355C33.2441 194.271 42.4375 188.054 48.457 198.078C47.8003 202.464 47.1436 206.801 46.5143 210.946C37.6492 217.356 28.8389 211.187 20.138 212.681C20.0012 216.103 19.8644 218.946 19.7549 222.079C17.7849 224.006 16.0338 226.272 14.1185 227.476C12.34 228.585 10.1511 227.38 8.18105 231.91C13.4618 233.934 18.2227 232.007 23.1204 234.85C27.9907 237.934 32.5053 242.995 37.6766 244.633C40.5495 245.405 39.8382 253.116 39.0173 258.176C48.4296 261.791 58.2797 257.405 67.309 263.718C68.6497 265.068 67.8015 268.923 66.9259 269.791C52.2876 274.273 39.7013 269.646 24.4063 271.719C30.891 280.153 38.0049 271.767 42.8479 281.165C42.7385 291.767 37.4304 294.996 35.7066 303.045C35.6792 315.093 35.8434 321.069 29.5503 323.286C19.9464 328.732 10.0416 328.106 0 327.527C3.47489 330.033 7.00451 332.058 10.4794 331.865C17.3471 331.431 23.5581 337.263 30.1796 338.805C30.891 338.949 31.7392 339.721 32.2317 340.733C34.2838 344.829 36.8831 344.733 39.4551 345.07C51.4667 347.528 63.8341 345.697 75.4627 353.07C62.7396 354.95 49.5241 353.022 37.1294 355.673C36.6642 358.468 36.5001 361.36 36.7737 364.251C47.0889 373.264 58.1703 370.227 68.3761 373.456C71.1669 379.481 72.0151 386.18 72.2614 392.734C75.3532 395.867 78.1714 395.385 81.017 395.24C88.2951 394.855 95.6006 394.662 102.879 394.469C102.414 397.361 103.317 400.204 102.386 402.758C95.0808 403.53 87.4196 400.301 80.6613 407.578C76.4203 412.253 70.8386 408.445 66.4881 412.349C67.5826 414.277 67.8015 414.952 67.9656 414.952C80.9897 411.819 93.8495 406.036 107.01 407.289C107.147 414.229 102.824 411.915 102.003 417.313C103.016 417.891 103.973 418.422 104.958 419C95.8469 420.542 85.5864 416.301 78.6092 431.868C74.0399 435.916 68.7044 439.049 64.0803 443.675C62.8217 444.784 61.5084 445.603 61.5904 448.495C61.6725 450.808 62.2198 454.567 62.9585 455.001C67.6647 457.796 70.1545 466.278 73.9578 471.242C74.6418 472.158 74.9702 474.182 75.5447 476.062C71.9057 478.52 68.7318 480.592 65.6126 482.809C65.339 483.002 65.2842 484.448 65.0653 485.701C72.918 488.351 80.5792 492.93 88.5414 493.508C88.4046 495.339 88.2678 497.171 88.1583 498.954C88.1857 499.484 88.2678 499.87 88.3499 500.352C82.3577 501.171 76.3656 502.183 70.4282 503.243C68.5129 507.966 66.8165 512.159 65.2021 516.159C66.3787 518.858 67.1722 520.69 67.8562 522.232C66.4334 524.449 65.3116 526.184 63.9162 528.401C65.6126 530.955 66.8165 532.738 68.9233 535.919C63.1227 536.883 63.4784 547.1 60.496 553.606C63.9162 556.883 66.7617 556.883 68.8959 563.679C56.5286 565.558 60.5781 572.209 62.6302 590.234C69.3611 602.234 69.963 600.306 76.4477 601.174C99.5407 599.294 122.716 598.86 145.836 597.415C146.137 600.74 146.356 603.246 146.63 606.186C262.724 610.909 378.435 629.705 494.529 634.717C532.753 638.042 570.785 647.922 609.037 650.862C610.323 650.958 611.198 649.561 610.897 645.657C597.791 637.946 583.591 639.247 570.047 636.693C557.871 634.861 545.695 633.03 533.547 631.15C528.157 632.789 522.575 636.452 517.376 629.608C517.458 629.223 517.568 628.934 517.65 628.596C516.692 628.452 515.762 628.307 514.804 628.114C514.284 628.885 513.846 629.512 513.491 630.09C513.299 629.319 513.053 628.548 512.834 627.825C511.767 627.632 510.727 627.536 509.66 627.343C510.782 634.138 506.924 631.488 505.064 629.512C505.2 628.5 505.282 627.584 505.392 626.717C504.106 626.524 502.847 626.331 501.561 626.138C501.616 627.054 501.725 628.018 501.972 629.03C497.43 630.379 493.709 632.548 491.438 624.982C488.209 624.644 485.008 624.307 481.779 624.018C481.396 624.741 481.013 625.56 480.712 626.62C480.11 625.56 479.59 624.644 479.098 623.777C478.304 623.729 477.511 623.632 476.717 623.584C476.252 624.933 475.759 626.331 475.212 627.921C474.145 626.186 473.242 624.692 472.312 623.198C471.902 623.15 471.491 623.15 471.081 623.102C469.932 624.548 470.397 628.596 467.852 628.452C465.937 628.307 464.186 627.97 462.626 625.223C461.039 622.427 459.452 622.331 457.701 625.753C456.196 628.693 454.171 628.548 452.694 625.223C451.928 623.488 451.134 621.897 450.231 620.741C448.343 620.403 446.483 620.066 444.622 619.68C443.583 620.162 442.652 621.271 442.023 623.97C439.314 627.054 433.924 621.319 430.641 620.403C427.138 629.464 423.445 623.488 419.833 619.536C416.002 622.861 412.308 625.656 408.478 620.114C407.849 619.198 406.508 619.15 405.769 619.873C401.638 623.68 397.506 622.042 393.429 619.873C392.006 619.102 390.283 620.885 389.708 620.066C388.066 617.801 387.191 620.692 386.014 620.789C382.539 621.126 379.01 620.933 375.562 619.921C355.424 617.367 335.314 617.56 315.23 612.355C315.312 612.162 315.395 612.017 315.477 611.873C358.625 612.74 401.774 615.198 444.896 617.945C443.583 618.234 442.297 618.572 440.983 619.006C442.187 619.198 443.418 619.439 444.622 619.68C446.401 619.102 448.699 618.572 450.231 620.741C457.181 622.138 464.131 622.427 471.108 623.054C471.354 622.861 471.683 622.716 471.929 622.476C472.066 622.716 472.203 622.909 472.339 623.15C473.817 623.295 475.267 623.391 476.745 623.536C477.018 622.717 477.319 621.897 477.593 621.078C478.14 622.042 478.632 622.861 479.125 623.777C480.028 623.873 480.931 623.921 481.834 624.018C482.682 622.476 483.722 621.753 485.199 622.572C486.95 623.536 488.893 623.102 491 623.295C491.137 623.97 491.328 624.452 491.492 624.982C494.858 625.319 498.223 625.705 501.616 626.138C501.534 624.5 501.698 622.957 501.999 621.512C501.096 621.415 500.166 621.319 499.263 621.222C499.071 620.933 498.907 620.644 498.743 620.403C499.92 620.355 501.096 620.403 502.273 620.355C502.191 620.741 502.081 621.126 502.026 621.512C503.805 621.704 505.583 621.897 507.362 622.09C506.322 622.186 505.611 624.548 505.447 626.717C506.869 626.909 508.292 627.15 509.742 627.343C509.606 626.331 509.441 625.271 509.222 624.355C508.867 623.054 508.374 622.379 507.882 622.138C512.068 622.62 516.282 623.006 520.468 623.391C522.274 621.656 524.189 622.716 525.968 623.921C531.467 624.5 536.967 625.223 542.439 626.283C543.78 625.897 545.066 626.62 546.242 625.946C549.964 623.825 553.63 626.476 557.296 626.958C557.816 627.006 558.309 627.44 558.664 628.211C561.784 628.355 564.903 628.5 568.022 628.741C568.214 627.295 568.597 626.524 569.171 626.813C571.086 627.777 572.947 629.319 574.753 627.44C575.847 627.584 576.942 627.729 578.064 627.825C574.589 630.765 571.552 628.5 568.022 628.741C567.858 629.849 567.83 631.343 567.995 633.271C573.932 634.717 580.554 635.633 586.354 634.38C589.774 632.018 591.936 638.042 595.028 635.729C594.973 633.175 594.918 631.44 594.781 630.235C605.835 630.958 616.972 638.476 627.971 633.705C616.78 627.247 604.987 628.982 594.125 619.777C587.093 615.584 579.459 617.849 572.263 614.716C570.676 612.885 568.952 611.825 567.01 611.776C563.726 611.728 560.58 609.8 557.269 610.572C556.092 610.861 554.779 608.933 553.548 608.017C553.575 607.776 553.63 607.584 553.657 607.391C553.685 607.391 553.712 607.391 553.739 607.391C553.958 608.114 554.314 607.535 554.642 607.439C555.709 607.487 556.722 607.535 557.679 607.294C558.281 608.451 559.458 607.439 560.279 607.584C560.443 606.957 560.634 606.331 560.799 605.704C560.197 605.077 559.622 603.969 558.993 603.921C558.856 603.053 558.774 602.379 558.883 602.234C560.963 599.487 560.306 596.499 559.732 594.523C576.148 595.39 592.456 598.571 608.818 600.595C609.748 600.74 610.706 599.872 613.278 598.86C603.099 595.631 594.645 592.933 586.299 590.282C585.369 579.968 591.553 583.631 594.563 582.956C620.829 584.499 647.151 582.233 673.363 587.39C678.918 588.547 684.499 589.27 690.054 585.703C696.839 583.824 704.637 585.752 711.45 585.125C714.624 575.583 708.577 573.269 705.486 569.848C698.974 565.51 694.158 555.293 690.191 544.353C690.382 542.088 690.902 540.064 691.449 538.088C689.589 536.545 688.193 533.461 686.114 534.569C685.649 534.714 685.019 532.401 684.445 531.244C684.691 530.521 684.965 529.798 685.211 529.075C687.755 529.846 690.327 530.666 692.954 531.485C693.118 530.184 693.146 528.834 693.009 527.34C687.755 516.786 679.766 518.955 673.035 516.159C673.637 514.28 674.129 512.207 674.157 509.605C672.98 508.496 671.831 507.484 670.737 506.424C678.288 507.292 685.84 508.978 693.364 509.316C695.225 508.978 695.499 506.424 694.979 502.472C692.434 501.653 689.698 500.785 686.907 499.918C687.4 495.918 690.081 497.267 689.288 492.448C688.521 486.616 685.566 488.689 683.35 489.845C683.542 493.026 683.706 495.58 683.87 498.183C681.107 498.038 681.107 498.038 680.997 490.665C679.301 488.833 678.069 488.978 677.194 493.171C676.154 498.086 674.485 499.388 672.542 497.171C671.256 493.508 673.09 492.207 674.786 489.46C672.953 487.869 671.694 485.701 670.572 485.99C669.369 486.279 668.192 486.327 667.043 486.231C666.714 469.797 676.893 472.206 682.529 470.712C680.778 468.447 679.054 467.965 677.303 467.724C673.828 467.242 671.53 463.676 670.189 457.796C675.744 458.085 681.325 458.423 686.88 458.712C687.865 458.76 689.123 459.917 690.026 456.64C683.487 451.676 676.729 450.374 670.025 448.591C670.764 445.892 672.159 443.675 673.582 441.603C672.57 438.808 671.64 436.302 670.709 433.795C673.664 430.277 676.838 431 680.122 434.036C680.915 431.868 681.708 429.651 682.447 427.578C684.089 427.578 685.484 427.771 686.88 427.53C688.33 427.289 689.206 432.976 691.34 428.205C684.8 423 677.495 425.169 670.545 423.145C670.764 422.084 670.983 421.024 671.202 420.012C673.965 419 675.716 418.277 676.975 417.554C682.146 416.59 687.974 420.831 692.899 417.602C694.869 415.337 696.265 415.193 698.563 416.638C701.546 418.132 705.595 416.687 708.714 415.193C709.59 412.831 708.851 408.976 711.286 408.06C712.408 410.036 713.749 412.397 715.336 415.241C716.02 414.614 716.84 413.265 717.661 413.313C720.014 413.361 721.902 408.735 723.982 409.747C728.962 412.205 733.832 410.421 738.62 409.698C739.797 412.301 740.836 414.711 741.657 416.59C745.269 416.446 748.032 414.903 749.866 408.06C747.622 404.831 745.296 402.903 742.806 401.65C738.866 405.698 734.352 400.252 730.439 404.831ZM156.37 596.354C157.109 596.306 157.848 596.113 158.586 596.162V596.21C157.875 596.21 157.109 596.306 156.37 596.354ZM498.305 621.126C489.714 620.21 481.122 619.487 472.503 618.668C481.259 617.704 489.851 620.066 498.524 620.403C498.469 620.644 498.387 620.885 498.305 621.126ZM518.06 582.908C514.038 582.282 509.989 581.896 505.939 581.992C505.529 581.607 505.255 581.559 504.872 581.992C503.504 582.378 502.464 580.836 503.148 577.655C504.133 576.836 505.173 576.836 506.213 577.028C506.267 577.125 506.295 577.173 506.349 577.269C506.404 577.221 506.459 577.125 506.514 577.077C508.648 577.559 510.837 578.619 512.67 575.004C512.67 573.799 512.506 573.028 512.26 572.402C515.707 572.836 518.936 576.354 522.575 574.908C523.286 574.619 524.271 577.414 525.858 579.92C522.493 582.282 520.988 582.185 518.06 582.908ZM539.895 584.788C537.405 587.053 535.763 581.414 532.89 583.294C532.726 583.824 532.534 584.499 532.343 585.125C531.221 584.98 530.099 584.836 528.977 584.691C528.649 582.571 528.348 580.45 528.047 578.378C530.865 576.547 533.984 572.209 536.775 571.679C538.609 576.595 540.934 573.944 543.178 573.558C545.422 573.462 546.16 576.643 546.516 581.029C544.081 582.282 541.865 583.005 539.895 584.788ZM620.829 556.45C619.817 556.16 618.777 555.871 617.765 555.63C618.203 551.245 619.899 554.088 620.966 556.401C620.912 556.401 620.884 556.45 620.829 556.45ZM629.558 559.245C628.573 558.907 627.56 558.618 626.548 558.281C626.685 557.317 626.849 556.305 626.986 555.389C628.299 559.63 629.695 552.112 631.227 556.016C630.844 557.751 630.269 558.715 629.558 559.245ZM636.617 556.305C636.179 556.401 635.769 556.498 635.331 556.594C635.495 554.233 635.796 554.522 636.781 555.052C636.726 555.437 636.672 555.871 636.617 556.305ZM642.992 558.57C642.5 557.221 641.788 556.016 641.898 555.534C642.117 554.57 642.746 553.558 643.238 553.462C644.059 553.269 645.318 553.172 645.099 555.727C645.044 556.739 643.868 557.462 642.992 558.57ZM650.681 535.244C650.544 535.148 650.434 535.003 650.325 534.859C650.489 534.81 650.681 534.762 650.845 534.714C650.79 534.859 650.735 535.051 650.681 535.244ZM666.085 555.486C666.195 554.956 666.277 554.474 666.386 553.943C666.441 554.329 666.496 554.763 666.55 555.148C666.414 555.245 666.249 555.341 666.085 555.486ZM669.204 556.98C669.068 556.353 668.958 555.678 668.821 555.052C669.861 554.184 670.107 553.895 670.408 556.353C669.998 556.546 669.615 556.739 669.204 556.98ZM679.848 528.738C681.107 532.931 681.544 532.593 679.383 536.835C678.699 532.401 677.851 531.003 679.848 528.738ZM667.043 524.786C670.299 526.376 673.883 525.075 676.619 530.184C675.634 534.907 674.075 530.087 673.117 531.678C671.64 534.232 669.998 532.401 668.466 532.883C666.715 533.413 666.058 531.051 665.018 529.364C663.212 528.401 661.133 531.003 659.163 531.919C659.026 529.654 658.725 528.16 658.889 526.955C659.245 524.304 660.066 527.292 660.312 526.858C660.695 526.184 661.078 525.702 661.461 525.316C663.349 525.123 665.21 524.979 667.043 524.786Z" fill="black"/>
<path d="M709.015 480.833C710.493 480.833 711.505 480.833 712.545 480.833C711.341 478.52 710.137 476.592 709.015 480.833Z" fill="black"/>
<path d="M567.393 604.499C567.393 605.993 567.858 607.439 568.378 610.186C570.156 605.656 569.746 605.8 568.515 601.848C568.131 602.764 567.393 603.632 567.393 604.499Z" fill="black"/>
<path d="M589.337 606.379C588.953 607.487 588.598 608.596 588.242 609.704C588.652 609.945 589.282 610.668 589.446 610.331C589.856 609.559 590.103 608.355 590.349 607.246C590.431 606.909 590.294 606.379 590.157 604.788C589.665 605.8 589.473 606.041 589.337 606.379Z" fill="black"/>
<path d="M539.84 628.933C546.407 632.596 552.535 634.331 558.774 632.548C559.13 630.476 558.965 629.078 558.582 628.211C553.165 627.97 547.747 627.391 542.33 626.331C541.509 626.572 540.688 627.199 539.84 628.933Z" fill="black"/>
<path d="M513.463 623.295C512.342 624.596 512.177 625.801 512.834 627.825C513.491 627.921 514.147 628.018 514.804 628.114C515.078 627.729 515.297 627.343 515.652 626.861C514.64 625.126 514.12 623.97 513.463 623.295Z" fill="black"/>
<path d="M517.65 628.596C522.93 629.512 528.239 630.331 533.519 631.15C534.094 630.524 534.532 629.464 534.532 627.439C532.972 624.114 528.321 626.09 525.858 623.921C524.025 623.729 522.192 623.584 520.359 623.391C519.319 624.355 518.361 626.042 517.65 628.596Z" fill="black"/>
</svg>
